SplineFontDB: 3.0
FontName: PatrickHand
FullName: Patrick Hand
FamilyName: Patrick Hand
Weight: Regular
Copyright: Copyright (c) 2010 by Patrick Wagesreiter. All rights reserved.
Version: 001.001
ItalicAngle: 0
UnderlinePosition: -73
UnderlineWidth: 71
Ascent: 740
Descent: 260
sfntRevision: 0x00010000
LayerCount: 2
Layer: 0 0 "Back"  1
Layer: 1 0 "Fore"  0
XUID: [1021 288 713564382 4735367]
FSType: 0
OS2Version: 2
OS2_WeightWidthSlopeOnly: 0
OS2_UseTypoMetrics: 1
CreationTime: 1285847470
ModificationTime: 1308170397
PfmFamily: 17
TTFWeight: 400
TTFWidth: 5
LineGap: 0
VLineGap: 0
Panose: 2 0 0 0 0 0 0 0 0 0
OS2TypoAscent: 740
OS2TypoAOffset: 0
OS2TypoDescent: -260
OS2TypoDOffset: 0
OS2TypoLinegap: 0
OS2WinAscent: 740
OS2WinAOffset: 0
OS2WinDescent: 260
OS2WinDOffset: 0
HheadAscent: 740
HheadAOffset: 0
HheadDescent: -260
HheadDOffset: 0
OS2SubXSize: 700
OS2SubYSize: 650
OS2SubXOff: 0
OS2SubYOff: 140
OS2SupXSize: 700
OS2SupYSize: 650
OS2SupXOff: 0
OS2SupYOff: 477
OS2StrikeYSize: 50
OS2StrikeYPos: 250
OS2Vendor: 'pyrs'
OS2CodePages: 00000001.00000000
OS2UnicodeRanges: 800000af.4000e04a.00000000.00000000
Lookup: 1 0 0 "'smcp' Lowercase to Small Capitals in Latin lookup 0"  {"'smcp' Lowercase to Small Capitals in Latin lookup 0 subtable"  } ['smcp' ('latn' <'dflt' > ) ]
Lookup: 1 0 0 "'c2sc' Capitals to Small Capitals in Latin lookup 1"  {"'c2sc' Capitals to Small Capitals in Latin lookup 1 subtable"  } ['c2sc' ('latn' <'dflt' > ) ]
Lookup: 4 0 1 "'liga' Standard Ligatures in Latin lookup 2"  {"'liga' Standard Ligatures in Latin lookup 2 subtable"  } ['liga' ('latn' <'dflt' > ) ]
Lookup: 1 0 0 "'onum' Oldstyle Figures in Latin lookup 3"  {"'onum' Oldstyle Figures in Latin lookup 3 subtable" ("oldstyle" ) } ['onum' ('latn' <'dflt' > ) ]
Lookup: 1 0 0 "'lnum' Lining Figures in Latin lookup 4"  {"'lnum' Lining Figures in Latin lookup 4 subtable"  } ['lnum' ('latn' <'dflt' > ) ]

StartChar: zero
Encoding: 48 48 1
Width: 374
Flags: W
HStem: -1 77<149.949 235.167> 494 59<153.522 231.978>
VStem: 26 70<147.938 410.353> 277 69<132.053 418.892>
LayerCount: 2
Fore
SplineSet
197 553 m 0
 294 553 346 407 346 264 c 0
 346 130 300 -1 199 -1 c 0
 92 -1 26 76 26 263 c 0
 26 402 75 553 197 553 c 0
270 189 m 1
 274 211 277 239 277 270 c 0
 277 370 253 494 196 494 c 0
 124 494 96 363 96 256 c 0
 96 169 139 76 191 76 c 0
 249 76 260 146 270 189 c 1
EndSplineSet
Substitution2: "'onum' Oldstyle Figures in Latin lookup 3 subtable" zero.onum
Substitution2: "'smcp' Lowercase to Small Capitals in Latin lookup 0 subtable" zero.smcp
EndChar

StartChar: one
Encoding: 49 49 2
Width: 303
Flags: W
HStem: -2 21G<216 230> 528 20G<225 242>
VStem: 193 68<4.31808 440>
LayerCount: 2
Fore
SplineSet
79 314 m 1
 71 309 62 307 55 307 c 0
 36 307 22 321 22 340 c 0
 22 347 24 355 29 363 c 1
 186 531 l 1
 196 540 216 548 234 548 c 0
 250 548 264 542 267 526 c 1
 262 433 261 341 261 248 c 0
 261 179 262 109 263 39 c 1
 260 18 239 -2 221 -2 c 0
 211 -2 201 4 196 19 c 1
 194 97 193 176 193 255 c 0
 193 317 194 379 196 440 c 1
 139 390 133 367 79 314 c 1
EndSplineSet
Substitution2: "'sups' Superscript in Latin lookup 5 subtable" onesuperior
Substitution2: "'onum' Oldstyle Figures in Latin lookup 3 subtable" one.onum
Substitution2: "'smcp' Lowercase to Small Capitals in Latin lookup 0 subtable" one.smcp
EndChar

StartChar: two
Encoding: 50 50 3
Width: 390
Flags: W
HStem: 0 73<113.699 362.083> 492 60<127.968 242.833>
VStem: 271 64<324.226 462.858>
LayerCount: 2
Fore
SplineSet
104 453 m 0
 95 445 87 442 80 442 c 0
 66 442 56 455 56 471 c 0
 56 523 158 552 195 552 c 0
 271 552 335 497 335 409 c 0
 335 238 188 188 111 73 c 1
 145 71 180 70 214 70 c 0
 260 70 306 72 353 76 c 1
 372 72 379 62 379 51 c 0
 379 -4 264 0 192 0 c 0
 140 0 37 -2 37 45 c 0
 37 89 99 163 114 177 c 0
 173 232 271 303 271 400 c 0
 271 452 238 492 191 492 c 0
 165 492 135 480 104 453 c 0
EndSplineSet
Substitution2: "'sups' Superscript in Latin lookup 5 subtable" twosuperior
Substitution2: "'onum' Oldstyle Figures in Latin lookup 3 subtable" two.onum
Substitution2: "'smcp' Lowercase to Small Capitals in Latin lookup 0 subtable" two.smcp
EndChar

StartChar: three
Encoding: 51 51 4
Width: 374
Flags: W
HStem: 0 66<138.137 247.582> 270 54<118.219 201.464> 490 66<119.373 225.254>
VStem: 248 65<367.858 468.919> 278 69<99.7857 235.3>
LayerCount: 2
Fore
SplineSet
90 444 m 1xf0
 80 437 71 435 64 435 c 0
 49 435 38 445 38 460 c 0
 38 505 142 556 196 556 c 0
 277 556 313 493 313 437 c 0xf0
 313 394 294 348 259 316 c 1
 312 296 347 244 347 177 c 0
 347 89 294 0 204 0 c 0
 148 0 27 58 27 97 c 0
 27 116 45 134 67 134 c 0
 73 134 80 133 86 129 c 0
 128 95 152 66 206 66 c 0
 250 66 278 126 278 181 c 0xe8
 278 256 202 265 137 270 c 1
 123 274 117 284 117 294 c 0
 117 309 129 324 146 324 c 0
 191 324 248 375 248 417 c 0
 248 448 223 490 177 490 c 0
 145 490 108 463 90 444 c 1xf0
EndSplineSet
Substitution2: "'sups' Superscript in Latin lookup 5 subtable" threesuperior
Substitution2: "'onum' Oldstyle Figures in Latin lookup 3 subtable" three.onum
Substitution2: "'smcp' Lowercase to Small Capitals in Latin lookup 0 subtable" three.smcp
EndChar

StartChar: four
Encoding: 52 52 5
Width: 313
Flags: W
HStem: -1 21G<221.5 248.5> 179 73<107.018 209.605> 369 20G<239.5 258> 534 20G<97.5 112.5>
VStem: 30 75<254.356 465.727> 61 69<387.927 546.927> 209 69<4.33194 184 256 387.843>
LayerCount: 2
Fore
SplineSet
61 521 m 1xf6
 68 541 89 554 106 554 c 0
 119 554 130 546 130 528 c 0
 130 526 130 523 130 521 c 0xf6
 118 442 105 369 105 291 c 0
 105 279 105 266 106 254 c 1
 117 252 128 252 139 252 c 0
 163 252 185 255 211 256 c 1
 221 391 213 381 227 387 c 0
 231 388 236 389 243 389 c 0
 273 389 284 389 284 337 c 0
 284 262 278 182 278 137 c 0
 278 104 279 72 283 37 c 1
 279 18 258 -1 239 -1 c 0
 204 -1 209 96 209 138 c 0
 209 153 210 168 210 184 c 1
 198 182 169 179 138 179 c 0
 48 179 30 195 30 275 c 0xfa
 30 356 53 470 61 521 c 1xf6
EndSplineSet
Substitution2: "'onum' Oldstyle Figures in Latin lookup 3 subtable" four.onum
Substitution2: "'smcp' Lowercase to Small Capitals in Latin lookup 0 subtable" four.smcp
EndChar

StartChar: five
Encoding: 53 53 6
Width: 353
Flags: W
HStem: 3 63<131.856 227.981> 294 74<101.056 225.18> 483 64<80.8585 287.628>
VStem: 34 64<360.147 502> 43 58<359 422.107> 264 73<106.066 256.404>
LayerCount: 2
Fore
SplineSet
297 534 m 1xf4
 308 527 313 515 313 504 c 0
 313 485 299 466 281 466 c 0
 254 466 209 483 170 483 c 0
 126 483 98 473 98 423 c 0xf4
 98 404 101 382 101 359 c 1
 117 365 139 368 161 368 c 0
 278 368 337 300 337 190 c 0
 337 98 284 3 179 3 c 0
 43 3 28 76 28 91 c 0
 28 116 48 134 71 134 c 0
 112 134 119 66 183 66 c 1
 237 68 264 136 264 190 c 0
 264 272 199 294 149 294 c 0
 124 294 109 286 90 286 c 0
 67 286 44 298 43 329 c 0xec
 41 378 34 440 34 485 c 0
 34 519 38 543 53 543 c 0
 80 544 125 547 170 547 c 0
 217 547 266 544 297 534 c 1xf4
EndSplineSet
Substitution2: "'onum' Oldstyle Figures in Latin lookup 3 subtable" five.onum
Substitution2: "'smcp' Lowercase to Small Capitals in Latin lookup 0 subtable" five.smcp
EndChar

StartChar: six
Encoding: 54 54 7
Width: 333
Flags: W
HStem: -1 64<115.535 203.679> 228 60<116 227.363> 534 20G<209.5 221.5>
VStem: 29 67<81.7732 222.506> 244 63<104.964 213.64>
LayerCount: 2
Fore
SplineSet
190 544 m 0
 195 551 205 554 214 554 c 0
 229 554 245 547 245 534 c 1
 244 524 176 416 163 394 c 0
 146 365 120 303 116 287 c 1
 133 287 151 288 170 288 c 0
 241 288 307 260 307 162 c 0
 307 69 222 -1 130 -1 c 0
 29 -1 29 105 29 183 c 0
 29 229 57 319 89 389 c 0
 127 471 176 524 190 544 c 0
236 197 m 0
 223 222 196 228 169 228 c 0
 146 228 123 224 109 224 c 1
 103 208 96 180 96 151 c 0
 96 117 114 63 148 63 c 0
 200 63 244 117 244 163 c 0
 244 175 241 186 236 197 c 0
EndSplineSet
Substitution2: "'onum' Oldstyle Figures in Latin lookup 3 subtable" six.onum
Substitution2: "'smcp' Lowercase to Small Capitals in Latin lookup 0 subtable" six.smcp
EndChar

StartChar: seven
Encoding: 55 55 8
Width: 413
Flags: W
HStem: -1 21G<226.5 245.5> 293 60<91.8441 221> 300 59<121 221 284.263 390.724>
VStem: 213 61<3.75464 288.648>
LayerCount: 2
Fore
SplineSet
111 293 m 2xd0
 96 293 86 303 86 313 c 0
 86 330 103 350 121 353 c 1xd0
 226 356 l 1
 229 391 230 424 233 459 c 1
 167 469 99 483 31 494 c 1
 19 501 14 517 14 526 c 0
 14 539 29 555 44 555 c 0
 46 555 48 554 50 554 c 0
 63 551 284 519 301 510 c 0
 311 504 324 497 324 483 c 0
 324 461 315 446 296 446 c 0
 294 446 292 447 290 447 c 1
 287 419 286 389 284 359 c 1
 314 359 344 360 371 360 c 1
 389 356 394 349 394 337 c 0
 394 304 361 299 326 299 c 0
 312 299 298 300 286 300 c 0
 273 300 274 151 274 124 c 0
 274 94 274 66 276 36 c 1
 271 17 254 -1 237 -1 c 0
 216 -1 213 30 213 62 c 0
 213 144 215 219 221 300 c 1xb0
 111 293 l 2xd0
EndSplineSet
Substitution2: "'onum' Oldstyle Figures in Latin lookup 3 subtable" seven.onum
Substitution2: "'smcp' Lowercase to Small Capitals in Latin lookup 0 subtable" seven.smcp
EndChar

StartChar: eight
Encoding: 56 56 9
Width: 361
Flags: W
HStem: 1 63<113.18 241.22> 496 58<118.093 255.547>
VStem: 26 62<88.8862 205.039> 46 59<394.357 483.512> 254 68<76.8014 193.46> 270 56<401.706 479.677>
LayerCount: 2
Fore
SplineSet
187 554 m 0xd0
 263 554 326 497 326 439 c 0xd4
 326 408 291 341 239 310 c 1
 282 260 322 193 322 132 c 0
 322 43 246 1 174 1 c 0
 100 1 26 44 26 123 c 0xe8
 26 190 69 262 129 307 c 1
 83 333 46 394 46 448 c 0
 46 523 112 554 187 554 c 0xd0
254 119 m 1xe8
 254 174 217 226 177 269 c 1
 147 250 88 204 88 135 c 0
 88 91 131 64 186 64 c 0
 221 64 253 79 254 119 c 1xe8
196 496 m 0
 190 496 184 496 176 496 c 0
 143 496 105 486 105 438 c 0
 105 399 149 377 186 349 c 1
 196 356 270 407 270 439 c 0xd4
 270 476 234 496 196 496 c 0
EndSplineSet
Substitution2: "'onum' Oldstyle Figures in Latin lookup 3 subtable" eight.onum
Substitution2: "'smcp' Lowercase to Small Capitals in Latin lookup 0 subtable" eight.smcp
EndChar

StartChar: nine
Encoding: 57 57 10
Width: 306
Flags: W
HStem: 254 67<105.409 190.319> 497 58<104.947 205.394>
VStem: 24 61<339.961 477.089> 217 62<4.70047 291 340.749 492.284>
LayerCount: 2
Fore
SplineSet
280 37 m 1
 278 18 260 1 244 1 c 0
 235 1 226 6 220 19 c 1
 216 109 214 201 214 291 c 1
 187 270 148 254 117 254 c 0
 53 254 24 342 24 412 c 0
 24 442 29 468 39 486 c 0
 59 522 131 555 189 555 c 0
 271 555 279 489 279 426 c 0
 279 357 277 304 277 236 c 0
 277 117 277 111 280 37 c 1
141 321 m 1
 169 330 193 336 216 354 c 1
 216 370 217 392 217 414 c 0
 217 446 214 478 201 493 c 1
 193 496 182 497 170 497 c 0
 103 497 85 460 85 418 c 0
 85 381 97 321 141 321 c 1
EndSplineSet
Substitution2: "'onum' Oldstyle Figures in Latin lookup 3 subtable" nine.onum
Substitution2: "'smcp' Lowercase to Small Capitals in Latin lookup 0 subtable" nine.smcp
EndChar

StartChar: A
Encoding: 65 65 11
Width: 407
Flags: W
HStem: -1 21G<351 368> 203 63<140.88 269> 529 20G<168.5 227.5>
VStem: 20 60<1.75806 130.833>
LayerCount: 2
Fore
SplineSet
80 17 m 0
 78 7 64 1 50 1 c 0
 35 1 20 8 20 25 c 0
 20 105 121 549 216 549 c 0
 239 549 310 366 344 229 c 0
 360 164 379 91 390 29 c 1
 390 9 377 -1 359 -1 c 0
 343 -1 327 8 323 26 c 2
 283 203 l 1
 233 203 173 204 121 219 c 1
 103 144 90 89 80 17 c 0
207 457 m 1
 177 401 156 346 139 284 c 1
 179 270 226 266 269 266 c 1
 251 331 233 394 207 457 c 1
EndSplineSet
Substitution2: "'c2sc' Capitals to Small Capitals in Latin lookup 1 subtable" A.smcp
EndChar

StartChar: B
Encoding: 66 66 12
Width: 423
Flags: W
HStem: 3 56<115.336 291.682> 496 60<122.774 245.049>
VStem: 48 65<89.4717 254.063 311 483.386> 274 57<356.191 469.103> 329 57<97.5831 234.074>
LayerCount: 2
Fore
SplineSet
59 6 m 1xe8
 50 41 49 296 49 319 c 0
 49 341 48 360 48 378 c 0
 48 449 65 556 169 556 c 0
 253 556 331 506 331 423 c 0xf0
 331 376 319 336 283 307 c 1
 349 301 386 225 386 163 c 0
 386 24 275 3 165 3 c 0
 129 3 93 5 59 6 c 1xe8
117 59 m 1
 149 56 187 56 224 56 c 0
 297 56 329 116 329 167 c 0xe8
 329 226 299 263 231 263 c 0
 197 263 157 257 111 251 c 1
 113 200 109 141 117 59 c 1
113 396 m 0
 113 381 112 358 112 338 c 0
 112 328 112 318 113 311 c 1
 170 319 274 319 274 419 c 0xf0
 274 467 229 496 174 496 c 0
 118 496 112 460 112 423 c 0
 112 414 113 405 113 396 c 0
EndSplineSet
Substitution2: "'c2sc' Capitals to Small Capitals in Latin lookup 1 subtable" B.smcp
EndChar

StartChar: C
Encoding: 67 67 13
Width: 457
Flags: W
HStem: 1 67<173.515 307.985> 475 70<193.105 386.428>
VStem: 35 71<151.387 380.409>
LayerCount: 2
Fore
SplineSet
403 523 m 1
 413 516 418 508 418 499 c 0
 418 479 396 463 373 463 c 1
 348 470 319 475 289 475 c 0
 171 475 106 404 106 267 c 0
 106 174 146 68 230 68 c 0
 290 68 365 124 393 124 c 0
 408 124 415 114 415 101 c 0
 415 88 408 74 394 64 c 1
 347 39 276 1 214 1 c 0
 86 1 35 154 35 273 c 0
 35 458 149 545 280 545 c 0
 319 545 361 537 403 523 c 1
EndSplineSet
Substitution2: "'c2sc' Capitals to Small Capitals in Latin lookup 1 subtable" C.smcp
EndChar

StartChar: D
Encoding: 68 68 14
Width: 396
Flags: W
HStem: -2 65<127.459 286.319> 532 20G<69 80.5>
VStem: 30 69<111.461 480> 60 70<-40.8156 3.76635> 323 67<93.8725 282.894>
LayerCount: 2
Fore
SplineSet
127 4 m 1xe8
 129 -1 130 -5 130 -10 c 0
 130 -30 108 -46 88 -46 c 0
 75 -46 64 -40 60 -23 c 2xd8
 49 27 l 1
 41 33 37 41 37 48 c 0
 37 55 40 61 46 66 c 1
 34 158 30 248 30 339 c 0
 30 399 32 460 34 521 c 1
 40 539 59 552 79 552 c 0
 82 552 86 552 90 551 c 0
 245 507 385 375 390 193 c 1
 390 53 301 -2 190 -2 c 0
 169 -2 148 0 127 4 c 1xe8
103 480 m 1
 101 436 99 391 99 346 c 0xe8
 99 253 104 159 116 69 c 1
 130 65 151 63 174 63 c 0
 237 63 317 79 321 126 c 0
 322 138 323 150 323 162 c 0
 323 309 239 423 103 480 c 1
EndSplineSet
Substitution2: "'c2sc' Capitals to Small Capitals in Latin lookup 1 subtable" D.smcp
EndChar

StartChar: E
Encoding: 69 69 15
Width: 369
Flags: W
HStem: 0 64<111 321.844> 278 62<110.328 306.204> 483 68<106 352.452>
VStem: 46 65<64 131.875 135.113 278 340 483>
LayerCount: 2
Fore
SplineSet
324 546 m 1
 347 541 356 530 356 518 c 0
 356 469 251 477 209 477 c 0
 182 477 151 479 106 483 c 1
 106 439 106 383 109 340 c 1
 176 339 214 339 279 339 c 1
 301 335 309 324 309 312 c 0
 309 297 295 280 276 276 c 1
 222 276 213 278 132 278 c 0
 124 278 117 278 110 277 c 1
 110 228 113 178 113 133 c 0
 113 109 113 85 111 64 c 1
 211 64 206 67 304 67 c 1
 324 64 331 55 331 44 c 0
 331 27 313 8 293 3 c 1
 187 3 186 0 80 0 c 0
 54 0 46 9 46 31 c 1
 49 56 49 81 49 106 c 0
 49 125 49 145 49 164 c 2
 46 287 l 1
 38 292 34 300 34 309 c 0
 34 318 37 327 43 334 c 1
 41 397 40 450 40 510 c 1
 47 537 60 547 86 551 c 1
 196 546 211 546 324 546 c 1
EndSplineSet
Substitution2: "'c2sc' Capitals to Small Capitals in Latin lookup 1 subtable" E.smcp
EndChar

StartChar: F
Encoding: 70 70 16
Width: 313
Flags: W
HStem: 0 21G<149 181> 261 58<45.2161 134 193 288.902> 477 58<75.5692 254.917> 478 58<212.607 336.014> 523 20G<5 61>
VStem: 133 57<47.6569 259 319 479>
LayerCount: 2
Fore
SplineSet
61 257 m 1xe4
 44 257 37 265 37 276 c 0
 37 291 52 311 71 314 c 1
 134 316 l 1
 134 338 133 356 133 373 c 0
 133 407 134 437 134 480 c 1
 57 483 90 486 13 486 c 0
 -7 486 -15 497 -15 509 c 0
 -15 523 -4 540 14 543 c 1xcc
 108 543 66 535 212 535 c 0xe4
 225 535 235 536 248 536 c 0
 258 536 338 542 338 509 c 0
 338 493 323 476 303 476 c 0
 283 477 271 478 263 478 c 0xd4
 251 478 245 477 232 477 c 0
 223 477 211 477 191 479 c 1
 191 437 190 407 190 374 c 0
 190 357 191 340 191 319 c 1
 271 319 l 1
 287 316 293 307 293 297 c 0
 293 283 279 266 263 261 c 1
 193 261 l 1
 196 201 199 101 199 45 c 0
 199 18 194 0 168 0 c 0
 130 0 136 73 136 146 c 0
 136 175 136 204 136 230 c 0
 136 240 136 250 136 259 c 1
 111 259 86 259 61 257 c 1xe4
EndSplineSet
Substitution2: "'c2sc' Capitals to Small Capitals in Latin lookup 1 subtable" F.smcp
EndChar

StartChar: G
Encoding: 71 71 17
Width: 400
Flags: W
HStem: -1 68<166.087 277.208> 234 73<214.453 304.215> 480 73<199.676 340.507>
VStem: 37 69<146.356 367.895> 311 69<42.2782 232.576> 341 5<454.002 456>
LayerCount: 2
Fore
SplineSet
393 503 m 1xf8
 394 496 396 491 396 484 c 0
 396 466 380 450 361 450 c 0
 357 450 351 451 346 456 c 1
 346 454 l 1
 346 454 341 457 341 459 c 1xf4
 317 474 300 480 269 480 c 0
 164 480 106 359 106 264 c 0
 106 147 157 67 216 67 c 0
 270 67 311 108 311 163 c 0
 311 225 296 234 286 234 c 0
 280 234 272 234 261 234 c 0
 242 234 209 245 209 264 c 0
 209 281 220 303 240 307 c 1
 295 307 350 297 363 251 c 0
 375 209 380 135 380 83 c 0
 380 26 379 0 347 0 c 0
 324 0 317 6 314 41 c 1
 287 17 241 -1 209 -1 c 0
 99 -1 37 143 37 256 c 0
 37 440 146 553 276 553 c 0
 316 553 356 540 393 503 c 1xf8
EndSplineSet
Substitution2: "'c2sc' Capitals to Small Capitals in Latin lookup 1 subtable" G.smcp
EndChar

StartChar: H
Encoding: 72 72 18
Width: 390
Flags: W
HStem: 244 64<112.023 299> 535 7G<82.5 95.5 328 341.5>
VStem: 45 65<19.2747 254 315.942 532.25> 299 62<9.92952 246 309 550.633>
LayerCount: 2
Fore
SplineSet
297 521 m 1
 301 539 320 555 336 555 c 0
 347 555 356 549 359 533 c 1
 359 427 361 333 361 227 c 0
 361 166 359 106 357 39 c 1
 354 17 333 1 316 1 c 0
 305 1 296 8 296 27 c 0
 298 89 299 135 299 188 c 0
 299 206 299 225 299 246 c 1
 283 244 265 244 247 244 c 0
 200 244 150 248 110 254 c 1
 110 241 110 229 110 218 c 0
 110 153 112 105 120 36 c 1
 116 16 97 -3 80 -3 c 0
 71 -3 63 2 57 16 c 1
 48 86 45 147 45 210 c 0
 45 241 46 272 47 306 c 2
 51 509 l 1
 56 527 75 542 90 542 c 0
 101 542 110 535 113 519 c 1
 110 319 l 1
 153 312 206 308 257 308 c 0
 271 308 285 308 299 309 c 1
 297 383 297 449 297 521 c 1
EndSplineSet
Substitution2: "'c2sc' Capitals to Small Capitals in Latin lookup 1 subtable" H.smcp
EndChar

StartChar: I
Encoding: 73 73 19
Width: 196
Flags: W
HStem: -1 21G<80.5 96> 518 20G<100.5 115>
VStem: 72 65<26.189 535.036>
LayerCount: 2
Fore
SplineSet
67 510 m 1
 71 526 92 538 109 538 c 0
 121 538 130 533 133 519 c 1
 133 423 137 326 137 230 c 0
 137 163 136 96 130 31 c 0
 128 13 105 -1 87 -1 c 0
 74 -1 63 6 63 23 c 1
 70 91 72 161 72 230 c 0
 72 324 68 418 67 510 c 1
EndSplineSet
Substitution2: "'c2sc' Capitals to Small Capitals in Latin lookup 1 subtable" I.smcp
EndChar

StartChar: J
Encoding: 74 74 20
Width: 309
Flags: W
HStem: -3 59<123.073 201.042> 537 20G<231.5 246.5>
VStem: 29 61<88.6543 182.11> 223 61<76.7487 440.708>
LayerCount: 2
Fore
SplineSet
29 153 m 1
 30 170 51 187 68 187 c 0
 78 187 86 182 90 170 c 1
 96 126 92 102 124 76 c 0
 140 63 153 56 167 56 c 0
 223 56 223 161 223 221 c 0
 223 310 208 428 199 526 c 1
 200 542 222 557 241 557 c 0
 252 557 262 552 266 540 c 1
 274 433 284 313 284 211 c 0
 284 115 278 -3 161 -3 c 0
 62 -3 40 82 29 153 c 1
EndSplineSet
Substitution2: "'c2sc' Capitals to Small Capitals in Latin lookup 1 subtable" J.smcp
EndChar

StartChar: K
Encoding: 75 75 21
Width: 436
Flags: W
HStem: 532 20G<69.5 86 359.5 374>
VStem: 60 68<8.13232 218.679 287 329.054>
LayerCount: 2
Fore
SplineSet
419 54 m 0
 420 51 420 48 420 44 c 0
 420 22 405 2 386 2 c 0
 378 2 369 5 361 13 c 1
 316 103 271 194 197 263 c 1
 173 240 154 221 127 201 c 1
 128 174 128 147 128 121 c 0
 128 75 137 1 83 1 c 0
 70 1 60 9 60 30 c 0
 60 52 61 74 61 95 c 0
 61 170 57 243 51 319 c 1
 49 371 47 450 39 506 c 1
 39 530 59 552 80 552 c 0
 92 552 102 545 107 527 c 1
 119 449 121 374 123 287 c 1
 217 373 262 423 327 531 c 0
 336 546 353 553 366 553 c 0
 382 553 397 544 397 527 c 0
 397 521 395 515 391 507 c 0
 343 427 310 380 250 310 c 1
 327 234 371 149 419 54 c 0
EndSplineSet
Substitution2: "'c2sc' Capitals to Small Capitals in Latin lookup 1 subtable" K.smcp
EndChar

StartChar: L
Encoding: 76 76 22
Width: 310
Flags: W
HStem: 1 60<89.3676 253.637> 531 20G<58 78>
VStem: 23 61<62.8259 402.638> 31 78<289.75 547.735>
LayerCount: 2
Fore
SplineSet
31 529 m 0xd0
 31 544 49 551 67 551 c 0
 89 551 109 541 109 520 c 1xd0
 99 403 84 293 84 178 c 0
 84 140 86 101 90 61 c 1
 130 59 206 73 256 73 c 0
 277 73 287 60 287 44 c 0
 287 -10 180 1 127 1 c 0
 93 1 39 -7 30 17 c 1
 25 71 23 126 23 181 c 0xe0
 23 297 31 413 31 529 c 0xd0
EndSplineSet
Substitution2: "'c2sc' Capitals to Small Capitals in Latin lookup 1 subtable" L.smcp
EndChar

StartChar: M
Encoding: 77 77 23
Width: 496
Flags: W
HStem: -1 21G<62 77 409 444.5> 258 71<180.395 293.537> 535 20G<422 436.5>
VStem: 46 68<7.84058 306 415.611 509.962> 390 66<151.951 369 453.051 549.125>
LayerCount: 2
Fore
SplineSet
113 39 m 1
 109 16 86 -1 68 -1 c 0
 56 -1 46 7 46 27 c 0
 46 126 50 240 50 339 c 0
 50 388 49 434 49 473 c 0
 49 490 62 514 81 514 c 0
 91 514 104 507 117 489 c 1
 129 421 147 356 217 329 c 1
 326 329 365 422 387 520 c 1
 393 538 413 555 431 555 c 0
 442 555 452 548 456 529 c 1
 457 397 461 273 461 146 c 0
 461 92 474 -1 415 -1 c 0
 403 -1 393 7 393 27 c 0
 393 53 394 80 394 106 c 0
 394 194 391 282 390 369 c 1
 347 296 289 258 216 258 c 0
 170 258 141 273 114 306 c 1
 114 292 114 277 114 263 c 0
 114 219 114 175 114 132 c 0
 114 101 114 70 113 39 c 1
EndSplineSet
Substitution2: "'c2sc' Capitals to Small Capitals in Latin lookup 1 subtable" M.smcp
EndChar

StartChar: O
Encoding: 79 79 24
Width: 464
Flags: W
HStem: 1 75<184.273 299.947> 487 69<168.402 312.361>
VStem: 35 67<190.196 415.021> 364 70<161.951 427.77>
LayerCount: 2
Fore
SplineSet
254 556 m 0
 376 556 434 431 434 299 c 0
 434 157 366 7 240 1 c 1
 77 1 35 207 35 307 c 0
 35 441 98 556 254 556 c 0
351 184 m 0
 358 217 364 262 364 308 c 0
 364 397 340 487 249 487 c 0
 140 487 102 407 102 315 c 0
 102 257 126 76 246 76 c 0
 304 76 341 139 351 184 c 0
EndSplineSet
Substitution2: "'c2sc' Capitals to Small Capitals in Latin lookup 1 subtable" O.smcp
EndChar

StartChar: P
Encoding: 80 80 25
Width: 401
Flags: W
HStem: 0 21G<84 106> 252 60<113 278.095> 482 69<111.062 294.279>
VStem: 41 66<314.186 479.593> 44 72<26.4238 253 391.407 481> 326 71<356.495 454.769>
LayerCount: 2
Fore
SplineSet
113 253 m 1xf4
 114 200 116 143 116 88 c 0
 116 55 125 0 87 0 c 0
 81 0 74 1 67 3 c 0
 40 11 46 187 44 263 c 1xec
 37 269 33 273 33 280 c 0
 33 287 37 294 43 301 c 1
 43 319 41 337 41 354 c 0
 41 407 44 457 47 507 c 1
 57 547 119 551 169 551 c 0
 269 551 397 529 397 427 c 0
 397 291 256 252 142 252 c 0
 132 252 122 252 113 253 c 1xf4
110 481 m 1
 108 451 107 420 107 390 c 0xf4
 107 365 108 341 109 316 c 1
 129 314 152 312 175 312 c 0
 249 312 326 330 326 427 c 0
 326 469 229 482 153 482 c 0
 137 482 123 482 110 481 c 1
EndSplineSet
Substitution2: "'c2sc' Capitals to Small Capitals in Latin lookup 1 subtable" P.smcp
EndChar

StartChar: Q
Encoding: 81 81 26
Width: 546
Flags: W
HStem: -1 21G<455.5 476.5> 489 65<183.458 336.532>
VStem: 41 69<162.283 385.357> 443 61<159.204 365.121>
LayerCount: 2
Fore
SplineSet
256 -3 m 1
 121 7 41 133 41 263 c 0
 41 397 120 554 264 554 c 0
 419 554 504 410 504 266 c 0
 504 220 497 170 454 106 c 1
 470 87 504 57 504 37 c 0
 504 17 486 -1 467 -1 c 0
 444 -1 417 37 401 56 c 1
 360 21 317 3 256 -3 c 1
266 60 m 1
 309 64 337 70 370 94 c 1
 304 170 l 2
 287 190 278 205 279 217 c 1
 279 236 296 251 316 251 c 0
 346 251 396 176 417 150 c 1
 434 181 443 217 443 254 c 0
 443 370 377 489 254 489 c 0
 146 489 110 373 110 280 c 0
 110 176 151 67 266 60 c 1
EndSplineSet
Substitution2: "'c2sc' Capitals to Small Capitals in Latin lookup 1 subtable" Q.smcp
EndChar

StartChar: R
Encoding: 82 82 27
Width: 379
Flags: W
HStem: 486 67<97.9441 258.952>
VStem: 33 63<1.375 196 286 479.171> 283 64<-0.443096 47.4744> 291 64<373.708 456.497>
LayerCount: 2
Fore
SplineSet
99 36 m 1xe0
 95 15 76 -3 59 -3 c 0
 49 -3 41 2 36 17 c 1
 34 90 33 163 33 236 c 2
 33 416 l 1
 32 426 31 436 31 446 c 0
 31 534 123 553 193 553 c 0
 247 553 355 505 355 428 c 0xd0
 355 353 240 268 154 239 c 1
 231 186 317 107 346 39 c 0
 347 36 347 33 347 31 c 0
 347 11 330 -3 312 -3 c 0
 302 -3 291 1 283 10 c 1
 256 76 170 147 94 196 c 1
 99 36 l 1xe0
97 474 m 1
 96 410 96 347 96 286 c 1
 113 288 123 286 149 296 c 0
 188 311 291 367 291 413 c 0
 291 465 227 486 168 486 c 0
 141 486 115 482 97 474 c 1
EndSplineSet
Substitution2: "'c2sc' Capitals to Small Capitals in Latin lookup 1 subtable" R.smcp
EndChar

StartChar: S
Encoding: 83 83 28
Width: 383
Flags: W
HStem: 0 70<127.626 267.409> 493 59<132.856 284.719>
VStem: 28 71<376.233 462.462> 300 67<103.453 237.458>
LayerCount: 2
Fore
SplineSet
341 513 m 0
 348 503 352 493 352 484 c 0
 352 468 340 456 322 456 c 0
 297 456 268 493 215 493 c 0
 161 493 99 466 99 422 c 0
 99 297 367 397 367 186 c 0
 367 89 291 0 186 0 c 0
 133 0 96 27 40 57 c 1
 32 64 29 72 29 80 c 0
 29 100 50 117 72 117 c 0
 74 117 77 116 80 116 c 1
 120 93 170 70 212 70 c 0
 253 70 300 97 300 182 c 0
 300 328 28 216 28 420 c 0
 28 511 132 552 222 552 c 0
 275 552 322 538 341 513 c 0
EndSplineSet
Substitution2: "'c2sc' Capitals to Small Capitals in Latin lookup 1 subtable" S.smcp
EndChar

StartChar: T
Encoding: 84 84 29
Width: 390
Flags: W
HStem: 481 60<5.57182 166.199> 494 60<228.465 396.941>
VStem: 161 61<0.00637436 483.587>
LayerCount: 2
Fore
SplineSet
226 33 m 1x60
 223 12 203 -3 187 -3 c 0
 175 -3 166 5 166 24 c 0
 166 130 161 210 161 294 c 0
 161 353 163 414 169 487 c 1
 121 483 74 481 29 481 c 0
 9 481 1 491 1 503 c 0
 1 519 16 538 37 541 c 1xa0
 157 541 259 554 377 554 c 1
 394 549 401 540 401 530 c 0
 401 515 386 498 367 494 c 1
 316 494 279 493 227 491 c 1
 223 427 222 373 222 323 c 0
 222 231 226 149 226 33 c 1x60
EndSplineSet
Substitution2: "'c2sc' Capitals to Small Capitals in Latin lookup 1 subtable" T.smcp
EndChar

StartChar: U
Encoding: 85 85 30
Width: 459
Flags: W
HStem: 0 65<198.444 299.403> 524 20G<75 88.5 377.5 391.5>
VStem: 29 65<207.051 511.757> 36 64<191.189 327.547 331.859 341.688 345.766 532.774> 361 64<151.246 508.843>
LayerCount: 2
Fore
SplineSet
41 510 m 1xe8
 48 528 67 544 83 544 c 0
 94 544 103 537 106 519 c 1
 101 461 94 402 94 343 c 0xe8
 94 315 95 288 100 261 c 0
 114 178 182 65 250 65 c 0
 281 65 313 88 340 147 c 1
 360 184 356 220 359 261 c 1
 359 297 361 334 361 371 c 0
 361 418 358 465 349 511 c 1
 349 534 368 555 387 555 c 0
 396 555 404 551 411 541 c 1
 422 486 425 432 425 378 c 0
 425 286 432 179 381 100 c 1
 344 32 281 0 237 0 c 0
 136 0 53 129 36 237 c 0xd8
 31 267 29 298 29 329 c 0
 29 390 36 451 41 510 c 1xe8
EndSplineSet
Substitution2: "'c2sc' Capitals to Small Capitals in Latin lookup 1 subtable" U.smcp
EndChar

StartChar: V
Encoding: 86 86 31
Width: 469
Flags: W
HStem: 532 20G<406 450.5>
VStem: 51 68<464.209 521.503>
LayerCount: 2
Fore
SplineSet
54 470 m 0
 52 474 51 479 51 484 c 0
 51 507 71 527 91 527 c 0
 101 527 111 522 119 511 c 1
 173 386 229 263 279 137 c 1
 309 248 368 552 444 552 c 0
 457 552 468 544 468 530 c 0
 468 523 466 516 461 507 c 0
 439 467 426 407 410 369 c 1
 377 254 349 139 310 26 c 0
 304 8 286 -5 271 -5 c 0
 261 -5 251 1 246 16 c 0
 193 171 121 320 54 470 c 0
EndSplineSet
Substitution2: "'c2sc' Capitals to Small Capitals in Latin lookup 1 subtable" V.smcp
EndChar

StartChar: W
Encoding: 87 87 32
Width: 514
Flags: W
HStem: 0 21G<93.5 119 382 393.5> 523 20G<54.5 69.5 470.5 484>
VStem: 24 65<293.139 536.888> 439 64<340.875 550.25>
LayerCount: 2
Fore
SplineSet
24 499 m 1
 24 522 45 543 64 543 c 0
 75 543 85 536 89 519 c 1
 100 386 111 250 134 119 c 1
 170 181 215 339 262 339 c 0
 271 339 279 334 286 324 c 1
 311 253 336 179 376 114 c 1
 403 253 430 381 439 521 c 1
 444 540 462 556 479 556 c 0
 489 556 499 549 503 531 c 1
 493 359 456 197 421 29 c 1
 414 12 401 0 386 0 c 0
 378 0 370 3 363 10 c 1
 311 80 286 157 249 236 c 1
 209 164 186 90 147 19 c 1
 138 8 125 0 113 0 c 0
 74 0 60 151 54 210 c 0
 43 307 33 403 24 499 c 1
EndSplineSet
Substitution2: "'c2sc' Capitals to Small Capitals in Latin lookup 1 subtable" W.smcp
EndChar

StartChar: X
Encoding: 88 88 33
Width: 501
Flags: W
HStem: -2 21G<381 396> 532 20G<447.5 460.5>
LayerCount: 2
Fore
SplineSet
77 6 m 1
 67 -1 57 -4 49 -4 c 0
 34 -4 24 6 24 22 c 0
 24 29 26 38 31 47 c 1
 84 107 143 170 200 240 c 1
 144 327 96 401 56 471 c 0
 53 477 52 483 52 488 c 0
 52 510 70 530 90 530 c 0
 98 530 109 527 116 516 c 0
 158 447 203 374 250 300 c 1
 319 381 364 446 414 527 c 0
 424 544 441 552 454 552 c 0
 467 552 478 544 478 528 c 0
 478 522 476 515 473 507 c 1
 416 411 360 339 287 246 c 1
 326 183 370 117 419 60 c 1
 423 53 426 46 426 39 c 0
 426 18 407 -2 385 -2 c 0
 377 -2 369 0 361 7 c 1
 316 63 276 126 236 187 c 1
 183 124 129 64 77 6 c 1
EndSplineSet
Substitution2: "'c2sc' Capitals to Small Capitals in Latin lookup 1 subtable" X.smcp
EndChar

StartChar: Y
Encoding: 89 89 34
Width: 369
Flags: W
HStem: 535 19G<42 61.5 331 342>
VStem: 146 57<4.76172 278.689>
LayerCount: 2
Fore
SplineSet
309 544 m 1
 318 552 327 555 335 555 c 0
 349 555 359 546 359 531 c 0
 359 526 358 521 356 516 c 1
 299 446 251 351 207 270 c 1
 207 191 203 146 203 101 c 0
 203 81 204 60 206 37 c 1
 202 19 186 2 171 2 c 0
 141 2 146 65 146 93 c 0
 146 130 148 165 148 202 c 0
 148 226 147 252 144 280 c 1
 97 349 57 433 20 507 c 0
 18 511 17 515 17 519 c 0
 17 538 34 554 50 554 c 0
 73 554 117 458 139 421 c 0
 148 406 170 359 181 344 c 1
 219 411 l 2
 243 454 271 499 309 544 c 1
EndSplineSet
Substitution2: "'c2sc' Capitals to Small Capitals in Latin lookup 1 subtable" Y.smcp
EndChar

StartChar: Z
Encoding: 90 90 35
Width: 423
Flags: W
HStem: -2 63<107 386.75> 260 63<306 360.409> 296 59<81.1528 125.86> 491 63<38.0071 286.065>
LayerCount: 2
Fore
SplineSet
87 296 m 1xb0
 80 303 77 311 77 318 c 0
 77 337 96 355 118 355 c 0xb0
 121 355 123 354 126 354 c 1
 157 337 193 334 233 330 c 1
 269 376 303 417 331 469 c 1
 251 487 123 491 59 491 c 0
 39 491 31 501 31 512 c 0
 31 529 48 551 69 554 c 1
 144 554 319 546 391 520 c 1
 403 512 406 506 406 495 c 0
 406 493 406 491 406 489 c 0
 379 429 344 373 306 323 c 1
 319 323 329 323 341 324 c 1
 358 321 365 312 365 301 c 0
 365 252 298 260 256 260 c 1xd0
 186 180 141 169 107 63 c 1
 154 63 202 61 251 61 c 0
 291 61 332 62 373 67 c 1
 390 64 397 55 397 44 c 0
 397 -13 290 -2 233 -2 c 0
 201 -2 168 -2 136 -2 c 0
 112 -2 88 -3 64 -3 c 0
 44 -3 37 4 37 24 c 1
 59 146 107 176 180 266 c 1
 149 271 117 280 87 296 c 1xb0
EndSplineSet
Substitution2: "'c2sc' Capitals to Small Capitals in Latin lookup 1 subtable" Z.smcp
EndChar

StartChar: a
Encoding: 97 97 36
Width: 383
Flags: W
HStem: 0 62<133.075 222.897> 313 73<142.835 245.423>
VStem: 47 64<85.1907 276.827> 260 66<101.886 299.438>
LayerCount: 2
Fore
SplineSet
339 11 m 1
 336 -2 318 -9 301 -9 c 0
 262 -9 268 26 266 41 c 1
 240 14 202 0 165 0 c 0
 74 0 47 76 47 182 c 0
 47 270 73 386 194 386 c 0
 218 386 241 381 260 374 c 1
 267 384 280 389 292 389 c 0
 333 389 326 324 326 282 c 0
 326 244 324 204 320 170 c 1
 323 111 327 69 339 11 c 1
244 113 m 1
 253 139 260 179 260 216 c 0
 260 275 248 313 203 313 c 0
 192 313 180 312 170 311 c 0
 137 307 111 241 111 214 c 0
 111 204 111 192 111 181 c 0
 111 128 123 62 172 62 c 0
 201 62 233 86 244 113 c 1
EndSplineSet
Substitution2: "'smcp' Lowercase to Small Capitals in Latin lookup 0 subtable" A.smcp
EndChar

StartChar: b
Encoding: 98 98 37
Width: 344
Flags: W
HStem: -1 70<127.447 219.449> 315 76<116 216.419>
VStem: 47 60<391.042 591.005> 56 71<69.4803 277.781> 262 61<115.054 269.78>
LayerCount: 2
Fore
SplineSet
47 563 m 1xe8
 52 582 71 597 88 597 c 0
 98 597 108 590 111 573 c 1
 111 491 107 490 107 456 c 0xe8
 107 442 108 421 110 386 c 1
 120 389 137 391 154 391 c 0
 257 391 323 308 323 195 c 0
 323 102 259 -1 143 -1 c 0
 118 -1 56 3 56 46 c 0xd8
 56 228 47 241 47 563 c 1xe8
179 311 m 0
 168 313 156 315 145 315 c 0
 134 315 124 313 116 310 c 1
 123 227 124 157 127 74 c 1xd8
 139 70 150 69 159 69 c 0
 221 69 262 122 262 195 c 0
 262 246 238 297 179 311 c 0
EndSplineSet
Substitution2: "'smcp' Lowercase to Small Capitals in Latin lookup 0 subtable" B.smcp
EndChar

StartChar: c
Encoding: 99 99 38
Width: 324
Flags: W
HStem: 0 74<118.745 241.305> 319 70<144.609 291.158>
VStem: 21 72<100.555 268.004>
LayerCount: 2
Fore
SplineSet
220 389 m 0
 239 389 311 386 311 357 c 0
 311 339 299 300 276 300 c 0
 260 300 229 319 210 319 c 0
 150 319 93 271 93 196 c 0
 93 120 109 74 177 74 c 0
 224 74 264 117 296 117 c 0
 310 117 319 106 319 93 c 0
 319 50 227 0 163 0 c 0
 73 0 21 77 21 196 c 0
 21 317 126 389 220 389 c 0
EndSplineSet
Substitution2: "'smcp' Lowercase to Small Capitals in Latin lookup 0 subtable" C.smcp
EndChar

StartChar: d
Encoding: 100 100 39
Width: 357
Flags: W
HStem: 1 68<129.492 240.43> 316 75<132.483 234.513>
VStem: 29 68<102.429 269.523> 238 63<390 594.674> 250 68<80.3664 299.798> 257 60<-4.67188 29>
LayerCount: 2
Fore
SplineSet
317 19 m 1xe4
 313 -4 297 -6 279 -6 c 0
 268 -6 260 1 257 16 c 2xe4
 254 29 l 1
 230 10 200 1 169 1 c 0
 77 1 29 82 29 161 c 0
 29 251 79 391 216 391 c 0
 223 391 231 391 239 390 c 1
 239 423 238 437 238 457 c 0
 238 470 239 486 239 510 c 0
 239 525 238 539 238 551 c 0
 238 578 243 596 271 596 c 0
 300 596 301 567 301 526 c 0xf0
 301 433 305 407 307 307 c 0
 308 230 318 159 318 66 c 0xe8
 318 51 317 35 317 19 c 1xe4
246 100 m 0
 250 113 249 166 250 180 c 0
 250 185 250 190 250 196 c 0xe8
 250 250 237 316 213 316 c 0
 196 316 139 313 124 293 c 0
 101 263 97 210 97 177 c 0
 97 132 119 69 185 69 c 0
 206 69 239 79 246 100 c 0
EndSplineSet
Substitution2: "'smcp' Lowercase to Small Capitals in Latin lookup 0 subtable" D.smcp
EndChar

StartChar: e
Encoding: 101 101 40
Width: 333
Flags: W
HStem: -3 73<136.612 235.503> 177 59<111 208.503> 328 58<137.131 223.908>
VStem: 227 73<255.876 324.294>
LayerCount: 2
Fore
SplineSet
196 186 m 0
 163 176 143 177 111 177 c 1
 119 121 129 70 181 70 c 0
 239 70 275 140 306 140 c 0
 318 140 339 114 339 100 c 0
 339 81 256 -3 167 -3 c 0
 79 -3 41 115 41 214 c 0
 41 290 74 386 167 386 c 0
 231 386 300 350 300 300 c 0
 300 245 239 198 196 186 c 0
154 320 m 0
 120 301 116 271 110 236 c 1
 202 236 227 264 227 293 c 0
 227 316 208 328 185 328 c 0
 174 328 163 325 154 320 c 0
EndSplineSet
Substitution2: "'smcp' Lowercase to Small Capitals in Latin lookup 0 subtable" E.smcp
EndChar

StartChar: f
Encoding: 102 102 41
Width: 297
Flags: W
HStem: -1 21G<127 141> 324 64<8.22211 97 161 251.493> 533 63<165.247 262.562>
VStem: 97 61<97.6449 321 386 525.834> 111 63<5.43359 255.058>
LayerCount: 2
Fore
SplineSet
31 324 m 0xf0
 17 326 4 341 4 351 c 0
 4 392 68 388 74 388 c 0
 78 388 84 387 97 386 c 1
 100 553 107 596 179 596 c 0
 271 596 278 572 278 547 c 0
 278 531 270 516 256 516 c 0
 234 516 223 533 197 533 c 0
 163 533 158 505 158 455 c 0xf0
 158 435 159 411 159 383 c 1
 210 383 254 391 254 354 c 0
 254 314 189 321 161 321 c 1
 166 200 174 163 174 36 c 1
 171 16 149 -1 133 -1 c 0
 121 -1 111 7 111 26 c 0xe8
 111 156 101 173 97 321 c 1
 59 323 65 320 31 324 c 0xf0
EndSplineSet
Substitution2: "'smcp' Lowercase to Small Capitals in Latin lookup 0 subtable" F.smcp
EndChar

StartChar: g
Encoding: 103 103 42
Width: 371
Flags: W
HStem: -260 60<142.119 258.458> 0 79<142.846 259.034> 320 67<146.053 237.524>
VStem: 46 65<111.849 280.686> 271 61<-55.5768 34 90.3216 280.984> 274 65<-184.5 201.288>
LayerCount: 2
Fore
SplineSet
89 -231 m 1xf4
 69 -221 63 -209 63 -199 c 0
 63 -172 83 -163 95 -163 c 0
 131 -163 163 -200 214 -200 c 0
 269 -200 274 -146 274 -109 c 0xf4
 274 -38 273 6 271 34 c 1
 264 26 244 0 199 0 c 0
 100 0 46 90 46 196 c 0
 46 294 106 387 216 387 c 0
 331 387 332 241 332 132 c 0xf8
 332 26 339 -6 339 -58 c 0
 339 -126 363 -260 199 -260 c 0
 159 -260 129 -254 89 -231 c 1xf4
201 79 m 0
 267 79 270 113 270 163 c 0
 270 214 264 320 193 320 c 0
 143 320 111 261 111 207 c 0
 111 129 134 79 201 79 c 0
EndSplineSet
Substitution2: "'smcp' Lowercase to Small Capitals in Latin lookup 0 subtable" G.smcp
EndChar

StartChar: h
Encoding: 104 104 43
Width: 350
Flags: W
HStem: -1 22G<77 91.5 270.5 286.5> 323 68<130.225 241.327>
VStem: 33 77<373.121 588.503> 57 70<34 251.581> 256 65<6.7687 177.617> 261 70<13.8412 303.172>
LayerCount: 2
Fore
SplineSet
321 34 m 1xc8
 319 17 297 0 276 0 c 0
 265 0 256 7 256 22 c 0
 256 24 256 25 256 27 c 2xc8
 261 174 l 2
 261 187 261 202 261 217 c 0
 261 269 254 323 189 323 c 0
 161 323 121 317 121 270 c 0
 121 157 127 167 127 91 c 0
 127 69 127 61 126 34 c 1
 124 31 l 1
 119 13 99 -1 84 -1 c 0
 70 -1 60 6 59 21 c 1
 57 21 l 1xd4
 57 259 37 310 33 563 c 1
 37 581 56 597 69 597 c 0
 118 597 100 497 110 369 c 1
 136 383 166 391 199 391 c 0
 311 391 331 290 331 180 c 0xe4
 331 129 324 89 321 34 c 1xc8
EndSplineSet
Substitution2: "'smcp' Lowercase to Small Capitals in Latin lookup 0 subtable" H.smcp
EndChar

StartChar: i
Encoding: 105 105 44
Width: 201
Flags: W
HStem: 374 20G<80.5 118> 450 106<69.6504 132.011>
VStem: 57 87<460.837 542.572> 63 72<49.9749 387.145> 73 61<-0.214844 240.129>
LayerCount: 2
Fore
SplineSet
69 543 m 1xe0
 83 556 89 554 97 556 c 1
 124 551 144 547 144 507 c 0
 144 483 123 450 99 450 c 0
 76 450 57 476 57 504 c 0
 57 517 57 534 69 543 c 1xe0
66 379 m 0
 67 390 75 394 86 394 c 0
 150 394 135 323 135 277 c 0xd0
 135 215 133 150 133 90 c 0
 133 70 133 51 134 33 c 1
 131 13 114 -5 97 -5 c 0
 88 -5 79 1 73 16 c 1xc8
 70 93 63 197 63 288 c 0xd0
 63 321 64 351 66 379 c 0
EndSplineSet
Substitution2: "'smcp' Lowercase to Small Capitals in Latin lookup 0 subtable" I.smcp
EndChar

StartChar: j
Encoding: 106 106 45
Width: 196
Flags: W
HStem: -217 67<-19.4299 36.0951> 370 20G<83.5 98.5> 453 100<44.5785 124.875>
VStem: 36 95<460.887 545.955> 60 64<-124.916 151.64 182.281 388.518> 66 69<-54.8604 366.642>
LayerCount: 2
Fore
SplineSet
36 504 m 1xf0
 39 522 44 553 85 553 c 0
 130 553 131 516 131 493 c 0
 131 471 109 453 83 453 c 0
 53 453 37 478 36 504 c 1xf0
57 359 m 1
 58 378 75 390 92 390 c 0
 105 390 118 383 126 369 c 1
 132 319 135 249 135 179 c 0xe4
 134 62 128 -54 124 -77 c 0
 114 -125 103 -217 7 -217 c 0
 -47 -217 -76 -205 -93 -150 c 0
 -94 -148 -94 -145 -94 -143 c 0
 -94 -122 -72 -102 -51 -102 c 0
 -14 -102 -29 -150 10 -150 c 0
 37 -150 56 -90 60 -46 c 0xe8
 62 -16 66 71 66 163 c 0xe4
 66 233 64 306 57 359 c 1
EndSplineSet
Substitution2: "'smcp' Lowercase to Small Capitals in Latin lookup 0 subtable" J.smcp
EndChar

StartChar: k
Encoding: 107 107 46
Width: 346
Flags: W
HStem: -1 22G<64.5 78 285 308.5> 369 20G<284.5 299>
VStem: 36 63<340.898 586.988> 49 62<5.5 140.78>
LayerCount: 2
Fore
SplineSet
329 57 m 0xe0
 332 52 333 46 333 40 c 0
 333 20 319 0 298 0 c 0
 272 0 253 131 187 193 c 1
 169 173 136 146 110 120 c 1
 110 89 111 67 111 37 c 1
 109 16 86 -1 70 -1 c 0
 59 -1 49 7 49 27 c 0xd0
 49 180 36 390 36 451 c 0
 36 477 36 509 36 559 c 1
 40 577 60 593 76 593 c 0
 87 593 96 586 99 569 c 1
 99 396 100 391 109 217 c 1
 131 237 149 244 234 349 c 0
 244 361 279 389 290 389 c 0
 308 389 322 381 322 368 c 0
 322 367 282 293 230 237 c 1
 284 177 301 104 329 57 c 0xe0
EndSplineSet
Substitution2: "'smcp' Lowercase to Small Capitals in Latin lookup 0 subtable" K.smcp
EndChar

StartChar: l
Encoding: 108 108 47
Width: 237
Flags: W
HStem: 570 20G<83 99.5>
VStem: 53 65<105.444 494.719>
LayerCount: 2
Fore
SplineSet
56 561 m 1
 56 579 74 590 92 590 c 0
 107 590 122 582 126 561 c 1
 119 493 118 443 118 265 c 0
 118 190 123 94 154 69 c 1
 180 75 187 124 217 124 c 0
 232 124 246 109 246 79 c 0
 246 40 203 -4 154 -4 c 0
 44 -4 59 210 54 331 c 0
 53 353 53 380 53 408 c 0
 53 472 54 539 56 561 c 1
EndSplineSet
Substitution2: "'smcp' Lowercase to Small Capitals in Latin lookup 0 subtable" L.smcp
EndChar

StartChar: m
Encoding: 109 109 48
Width: 567
Flags: W
HStem: -1 21G<73 98.5 264.5 278 485 516> 321 69<128.355 227.518 332.195 421.322>
VStem: 53 65<3.75928 249.492> 248 64<31 300.809> 472 62<4.29988 268.044>
LayerCount: 2
Fore
SplineSet
33 323 m 1
 33 346 53 367 73 367 c 0
 82 367 91 361 96 349 c 1
 116 376 146 390 178 390 c 0
 216 390 255 370 280 327 c 1
 308 368 350 387 390 387 c 0
 512 387 534 253 534 119 c 0
 534 62 541 -1 491 -1 c 0
 479 -1 469 7 469 27 c 0
 469 50 472 90 472 131 c 0
 472 185 467 242 450 269 c 0
 433 295 402 318 372 318 c 0
 327 318 312 286 312 152 c 0
 312 107 313 62 313 31 c 1
 311 31 l 1
 305 12 286 -1 270 -1 c 0
 259 -1 250 6 249 23 c 1
 247 23 l 1
 247 67 248 107 248 150 c 0
 248 201 261 321 183 321 c 0
 122 321 113 283 113 226 c 0
 113 178 118 120 118 71 c 0
 118 49 118 -1 79 -1 c 0
 67 -1 56 7 53 23 c 1
 53 92 50 212 33 323 c 1
EndSplineSet
Substitution2: "'smcp' Lowercase to Small Capitals in Latin lookup 0 subtable" M.smcp
EndChar

StartChar: n
Encoding: 110 110 49
Width: 376
Flags: W
HStem: -1 22G<77.5 94 290 322> 307 83<161.684 245.496>
VStem: 54 67<331 395.526> 63 64<3.69583 253.38> 276 61<4.85687 252.589>
LayerCount: 2
Fore
SplineSet
54 364 m 1xe8
 59 381 73 400 89 400 c 0
 121 400 117 377 121 331 c 1xe8
 161 384 207 390 233 390 c 0
 328 390 337 250 337 123 c 0
 337 71 348 0 296 0 c 0
 284 0 276 9 276 27 c 0
 276 122 284 307 209 307 c 0
 132 307 129 200 129 126 c 0
 129 81 127 98 127 36 c 0
 127 11 104 -1 84 -1 c 0
 71 -1 63 7 63 26 c 0xd8
 63 163 54 229 54 364 c 1xe8
EndSplineSet
Substitution2: "'smcp' Lowercase to Small Capitals in Latin lookup 0 subtable" N.smcp
EndChar

StartChar: o
Encoding: 111 111 50
Width: 336
Flags: W
HStem: 0 59<149.338 223.962> 369 20G<135 228.5>
VStem: 21 63<134.255 272.862> 250 67<90.2791 270.135>
LayerCount: 2
Fore
SplineSet
183 389 m 0
 274 389 317 277 317 187 c 0
 317 119 274 0 186 0 c 0
 83 0 21 120 21 187 c 0
 21 283 87 389 183 389 c 0
201 59 m 1
 234 77 250 120 250 167 c 0
 250 229 231 309 169 321 c 1
 119 313 84 254 84 201 c 0
 84 167 129 59 201 59 c 1
EndSplineSet
Substitution2: "'smcp' Lowercase to Small Capitals in Latin lookup 0 subtable" O.smcp
EndChar

StartChar: p
Encoding: 112 112 51
Width: 357
Flags: W
HStem: -260 21G<50 65> 1 65<111.953 241.221> 323 66<127.052 242.702>
VStem: 36 64<-251.824 29 79.875 296.044 344 388.549> 279 67<103.626 283.86>
LayerCount: 2
Fore
SplineSet
99 -221 m 1
 94 -243 74 -260 56 -260 c 0
 44 -260 34 -251 34 -231 c 0
 34 -89 36 -87 36 56 c 2
 36 350 l 1
 40 373 46 390 67 390 c 0
 91 390 93 384 100 344 c 1
 103 357 125 389 188 389 c 0
 309 389 346 286 346 181 c 0
 346 73 280 1 163 1 c 0
 127 1 109 24 100 29 c 1
 100 -97 99 -94 99 -221 c 1
174 323 m 1
 127 317 100 274 100 251 c 2
 100 96 l 1
 110 93 127 66 164 66 c 0
 233 66 279 97 279 184 c 0
 279 257 263 323 174 323 c 1
EndSplineSet
Substitution2: "'smcp' Lowercase to Small Capitals in Latin lookup 0 subtable" P.smcp
EndChar

StartChar: q
Encoding: 113 113 52
Width: 386
Flags: W
HStem: -260 21G<313 328> 0 62<134.653 242.2> 321 66<114.771 237.592>
VStem: 25 67<111.15 296.843> 289 68<112.272 263.193> 296 67<-252.682 51.6101>
LayerCount: 2
Fore
SplineSet
363 -221 m 1xf4
 359 -244 337 -260 319 -260 c 0
 307 -260 295 -252 296 -231 c 2xf4
 299 -99 l 1
 299 -47 294 3 291 54 c 1
 273 19 227 0 180 0 c 0
 78 0 25 94 25 189 c 0
 25 310 82 387 183 387 c 0
 362 387 355 226 357 126 c 1xf8
 363 -47 l 2
 364 -86 364 -105 364 -118 c 0
 364 -143 363 -143 363 -221 c 1xf4
93 214 m 0
 92 208 92 202 92 196 c 0
 92 110 138 62 187 62 c 0
 227 62 268 93 289 161 c 1xf8
 286 232 275 321 167 321 c 0
 112 321 96 287 93 214 c 0
EndSplineSet
Substitution2: "'smcp' Lowercase to Small Capitals in Latin lookup 0 subtable" Q.smcp
EndChar

StartChar: r
Encoding: 114 114 53
Width: 321
Flags: W
HStem: 319 71<189.421 304.297>
VStem: 69 70<36 252.918>
LayerCount: 2
Fore
SplineSet
37 360 m 0
 36 362 36 364 36 366 c 0
 36 382 53 394 71 394 c 0
 113 394 106 334 111 307 c 1
 131 355 175 390 240 390 c 0
 264 390 308 387 308 355 c 0
 308 336 289 317 268 317 c 0
 261 317 253 319 244 319 c 0
 147 319 139 180 139 112 c 0
 139 88 140 63 140 36 c 1
 139 34 l 1
 135 15 116 -4 99 -4 c 0
 59 -4 74 126 69 177 c 0
 62 246 57 293 37 360 c 0
EndSplineSet
Substitution2: "'smcp' Lowercase to Small Capitals in Latin lookup 0 subtable" R.smcp
EndChar

StartChar: s
Encoding: 115 115 54
Width: 321
Flags: W
HStem: 4 60<112.408 211.087> 330 61<114.31 228.99>
VStem: 46 61<245.716 319.878> 231 63<82.3651 154.653>
LayerCount: 2
Fore
SplineSet
170 391 m 0
 203 391 293 374 293 330 c 0
 293 310 273 299 253 299 c 0
 239 299 201 330 156 330 c 0
 140 330 107 314 107 289 c 0
 107 187 294 261 294 140 c 0
 294 61 227 4 170 4 c 0
 117 4 46 21 46 64 c 0
 46 84 60 93 81 93 c 0
 116 93 137 64 181 64 c 0
 203 64 231 106 231 136 c 0
 231 141 230 145 229 149 c 1
 174 203 46 151 46 283 c 0
 46 353 103 391 170 391 c 0
EndSplineSet
Substitution2: "'smcp' Lowercase to Small Capitals in Latin lookup 0 subtable" S.smcp
EndChar

StartChar: t
Encoding: 116 116 55
Width: 287
Flags: W
HStem: -1 21G<154.5 168> 318 71<9.79688 110 176 287.597>
VStem: 107 63<390 585.969>
LayerCount: 2
Fore
SplineSet
26 323 m 0
 12 326 6 337 6 350 c 0
 6 373 22 389 54 389 c 0
 68 389 80 388 94 388 c 0
 99 388 104 388 110 389 c 1
 108 445 107 460 107 473 c 0
 107 487 108 497 110 560 c 1
 115 579 134 594 151 594 c 0
 161 594 171 587 174 570 c 1
 172 495 170 491 170 469 c 0
 170 456 171 436 173 390 c 1
 191 390 239 391 271 393 c 1
 289 389 296 378 296 366 c 0
 296 308 221 320 176 320 c 1
 181 224 184 131 200 39 c 1
 196 18 177 -1 159 -1 c 0
 150 -1 141 5 136 19 c 1
 119 117 119 219 113 319 c 1
 102 318 90 318 79 318 c 0
 60 318 40 319 26 323 c 0
EndSplineSet
Substitution2: "'smcp' Lowercase to Small Capitals in Latin lookup 0 subtable" T.smcp
EndChar

StartChar: u
Encoding: 117 117 56
Width: 334
Flags: W
HStem: -1 21G<88 147> 370 20G<59.5 73 253 267>
VStem: 23 66<98.2446 360.078> 226 64<179.989 385.187> 254 63<-4.62006 53.75>
LayerCount: 2
Fore
SplineSet
30 357 m 1xe8
 35 378 52 390 67 390 c 0
 79 390 91 382 94 367 c 1
 91 333 89 290 89 252 c 0
 89 173 89 129 131 59 c 1
 176 70 216 104 236 141 c 1
 230 213 226 287 226 347 c 0
 226 370 244 389 262 389 c 0
 272 389 283 382 290 367 c 1xf0
 290 290 294 241 297 177 c 0
 299 137 317 54 317 33 c 0
 317 10 296 -10 278 -10 c 0
 268 -10 259 -4 254 10 c 1
 246 60 l 1
 209 22 165 -1 129 -1 c 0
 47 -1 23 131 23 220 c 0
 23 271 26 309 30 357 c 1xe8
EndSplineSet
Substitution2: "'smcp' Lowercase to Small Capitals in Latin lookup 0 subtable" U.smcp
EndChar

StartChar: v
Encoding: 118 118 57
Width: 334
Flags: W
HStem: -2 21G<178.5 190.5> 369 20G<43.5 57 294.5 307>
VStem: 16 61<331.961 384.869> 264 60<360.141 389.572>
LayerCount: 2
Fore
SplineSet
19 336 m 0
 17 340 16 345 16 349 c 0
 16 370 34 389 53 389 c 0
 61 389 70 384 77 374 c 1
 116 289 157 227 189 139 c 1
 214 224 230 287 264 371 c 1
 273 385 288 393 301 393 c 0
 313 393 324 385 324 368 c 0
 324 366 323 363 323 360 c 1
 277 243 253 149 221 27 c 1
 214 11 198 -2 183 -2 c 0
 174 -2 164 3 160 17 c 0
 122 136 69 223 19 336 c 0
EndSplineSet
Substitution2: "'smcp' Lowercase to Small Capitals in Latin lookup 0 subtable" V.smcp
EndChar

StartChar: w
Encoding: 119 119 58
Width: 386
Flags: W
HStem: 1 215<200 281> 369 20G<48.5 61 330 347.5>
VStem: 20 57<190.742 384.932> 306 55<109.375 387.848>
LayerCount: 2
Fore
SplineSet
20 359 m 1
 24 374 41 389 56 389 c 0
 66 389 74 383 77 367 c 1
 77 283 94 190 121 117 c 1
 154 170 160 216 200 216 c 0
 231 216 267 136 283 103 c 1
 297 146 306 187 306 233 c 0
 306 274 301 317 301 360 c 1
 306 376 323 390 337 390 c 0
 358 390 361 342 361 296 c 0
 361 280 361 264 361 250 c 0
 361 180 339 1 281 1 c 0
 246 1 224 87 196 131 c 1
 174 91 159 56 151 44 c 0
 136 21 116 1 101 1 c 0
 91 1 76 34 70 46 c 1
 34 153 20 246 20 359 c 1
EndSplineSet
Substitution2: "'smcp' Lowercase to Small Capitals in Latin lookup 0 subtable" W.smcp
EndChar

StartChar: x
Encoding: 120 120 59
Width: 374
Flags: W
HStem: -1 21G<276.5 302> 368 20G<88 102 304 317>
VStem: 33 307
LayerCount: 2
Fore
SplineSet
283 374 m 0
 290 384 299 388 309 388 c 0
 325 388 340 375 340 357 c 0
 340 344 286 259 230 191 c 1
 264 139 280 106 320 56 c 1
 324 49 326 42 326 35 c 0
 326 16 311 -1 293 -1 c 0
 260 -1 202 100 180 147 c 1
 109 49 96 3 63 3 c 0
 46 3 33 18 33 35 c 0
 33 54 63 101 150 199 c 1
 117 261 61 337 61 355 c 0
 61 375 79 390 97 390 c 0
 107 390 119 386 126 374 c 2
 194 254 l 1
 234 297 249 327 283 374 c 0
EndSplineSet
Substitution2: "'smcp' Lowercase to Small Capitals in Latin lookup 0 subtable" X.smcp
EndChar

StartChar: y
Encoding: 121 121 60
Width: 353
Flags: W
HStem: 368 20G<32.5 47 278.5 295>
VStem: 9 313<355 370>
LayerCount: 2
Fore
SplineSet
9 349 m 1
 9 370 23 388 42 388 c 0
 52 388 61 383 69 371 c 1
 100 273 143 181 181 89 c 1
 207 181 224 259 253 370 c 0
 256 381 271 388 286 388 c 0
 304 388 322 379 322 359 c 0
 322 355 321 351 320 347 c 0
 256 120 189 -109 146 -231 c 0
 141 -246 130 -253 119 -253 c 0
 104 -253 88 -239 88 -214 c 0
 88 -173 136 -54 150 -1 c 1
 124 43 46 236 9 349 c 1
EndSplineSet
Substitution2: "'smcp' Lowercase to Small Capitals in Latin lookup 0 subtable" Y.smcp
EndChar

StartChar: z
Encoding: 122 122 61
Width: 357
Flags: W
HStem: -1 66<121.241 310.958> 322 61<44.8183 243.254>
VStem: 26 311
LayerCount: 2
Fore
SplineSet
61 310 m 0
 54 314 26 313 26 346 c 0
 26 389 70 383 145 383 c 0
 222 383 324 373 324 313 c 0
 324 211 166 157 120 74 c 1
 133 68 148 65 164 65 c 0
 208 65 262 81 311 81 c 0
 329 81 337 67 337 56 c 0
 337 3 233 -1 167 -1 c 0
 99 -1 44 7 44 61 c 0
 44 156 223 233 246 296 c 1
 238 316 212 322 182 322 c 0
 140 322 88 310 65 310 c 0
 64 310 62 310 61 310 c 0
EndSplineSet
Substitution2: "'smcp' Lowercase to Small Capitals in Latin lookup 0 subtable" Z.smcp
EndChar

StartChar: zero.onum
Encoding: 65537 -1 62
Width: 317
Flags: W
HStem: 0 63<125.887 192.744> 333 60<130.417 198.578>
VStem: 33 67<90.2838 298.424> 220 62<95.509 307.891>
LayerCount: 2
Fore
SplineSet
170 393 m 0
 241 393 282 286 282 184 c 0
 282 90 247 0 169 0 c 0
 119 0 33 24 33 180 c 0
 33 316 79 393 170 393 c 0
220 201 m 0
 220 231 217 333 167 333 c 0
 119 333 100 253 100 199 c 0
 100 111 126 63 161 63 c 0
 207 63 220 167 220 201 c 0
EndSplineSet
Substitution2: "'lnum' Lining Figures in Latin lookup 4 subtable" zero
Substitution2: "'smcp' Lowercase to Small Capitals in Latin lookup 0 subtable" zero.smcp
EndChar

StartChar: one.onum
Encoding: 65538 -1 63
Width: 163
Flags: W
HStem: -2 21G<77.5 91> 373 20G<79.5 91.5>
VStem: 56 57<-1.0376 391.682>
LayerCount: 2
Fore
SplineSet
57 367 m 1
 61 384 73 393 86 393 c 0
 97 393 109 385 114 369 c 1
 114 246 113 153 113 29 c 1
 111 8 98 -2 84 -2 c 0
 71 -2 58 7 56 27 c 1
 56 150 57 244 57 367 c 1
EndSplineSet
Substitution2: "'lnum' Lining Figures in Latin lookup 4 subtable" one
Substitution2: "'smcp' Lowercase to Small Capitals in Latin lookup 0 subtable" one.smcp
EndChar

StartChar: two.onum
Encoding: 65539 -1 64
Width: 284
Flags: W
HStem: 0 51<103.139 268.569> 322 67<82.0407 187>
VStem: 192 62<206.404 317.792>
LayerCount: 2
Fore
SplineSet
74 296 m 0
 68 293 63 292 58 292 c 0
 40 292 25 307 25 326 c 0
 25 365 108 389 150 389 c 0
 205 389 254 361 254 294 c 0
 254 180 169 110 101 51 c 1
 143 53 199 53 240 53 c 0
 260 53 270 41 270 29 c 0
 270 -11 189 0 136 0 c 0
 91 0 15 -7 15 33 c 0
 15 39 17 45 20 51 c 0
 53 100 106 146 149 181 c 0
 178 205 192 242 192 272 c 0
 192 304 179 322 151 322 c 0
 129 322 99 310 74 296 c 0
EndSplineSet
Substitution2: "'lnum' Lining Figures in Latin lookup 4 subtable" two
Substitution2: "'smcp' Lowercase to Small Capitals in Latin lookup 0 subtable" two.smcp
EndChar

StartChar: three.onum
Encoding: 65540 -1 65
Width: 437
Flags: W
HStem: -255 62<153.81 284.778> 40 66<207.042 276.536> 322 67<160.679 270.275>
VStem: 27 64<-124.747 -10.9287> 310 68<139.858 280.085> 347 65<-132.441 -17.7737>
LayerCount: 2
Fore
SplineSet
140 283 m 1xf8
 132 278 124 276 117 276 c 0
 98 276 84 290 84 309 c 0
 84 316 86 323 91 331 c 1
 133 372 159 389 216 389 c 0
 310 389 378 330 378 226 c 0xf8
 378 148 339 92 280 74 c 1
 353 71 412 -6 412 -88 c 0
 412 -177 331 -255 229 -255 c 0
 128 -255 27 -181 27 -44 c 0
 27 -22 49 -6 67 -6 c 0
 80 -6 91 -14 91 -34 c 0
 91 -135 154 -193 220 -193 c 0
 290 -193 347 -121 347 -74 c 0xf4
 347 -19 291 26 231 40 c 0
 215 44 205 58 205 73 c 0
 205 87 213 101 234 106 c 0
 294 120 310 170 310 210 c 0
 310 265 272 322 218 322 c 0
 195 322 168 311 140 283 c 1xf8
EndSplineSet
Substitution2: "'lnum' Lining Figures in Latin lookup 4 subtable" three
Substitution2: "'smcp' Lowercase to Small Capitals in Latin lookup 0 subtable" three.smcp
EndChar

StartChar: four.onum
Encoding: 65541 -1 66
Width: 341
Flags: W
HStem: -1 68<100.105 232.507> 6 64<153.266 233> 370 20G<107.5 123.5>
VStem: 28 71<70.2795 261.71> 231 72<-189.457 6 70 192.736>
LayerCount: 2
Fore
SplineSet
73 356 m 0xb8
 83 380 100 390 115 390 c 0
 132 390 148 378 148 360 c 0
 148 356 147 353 146 349 c 0
 118 258 99 194 99 107 c 0
 99 96 99 84 100 71 c 1
 117 68 134 67 152 67 c 0xb8
 179 67 207 69 234 70 c 1
 240 137 230 262 269 262 c 0
 299 262 312 250 312 196 c 0
 312 127 303 17 303 -10 c 0
 303 -68 309 -138 309 -192 c 0
 309 -220 298 -254 266 -254 c 0
 225 -254 231 -146 231 -79 c 0
 231 -48 232 -19 233 6 c 1x78
 218 3 181 -1 143 -1 c 0
 35 -1 28 32 28 112 c 0
 28 195 51 301 73 356 c 0xb8
EndSplineSet
Substitution2: "'lnum' Lining Figures in Latin lookup 4 subtable" four
Substitution2: "'smcp' Lowercase to Small Capitals in Latin lookup 0 subtable" four.smcp
EndChar

StartChar: five.onum
Encoding: 65542 -1 67
Width: 426
Flags: W
HStem: -251 73<143.475 274.846> -1 21G<71 85> 49 74<143.804 293.587> 327 64<107 354.699>
VStem: 43 64<-142.575 -77.985 89 327> 319 68<-135.116 22.8899>
LayerCount: 2
Fore
SplineSet
336 390 m 1
 353 386 360 377 360 366 c 0
 360 350 345 331 326 326 c 1
 268 326 217 328 163 328 c 0
 144 328 126 327 107 327 c 1
 107 318 107 310 107 301 c 0
 107 231 110 155 110 89 c 1
 149 107 193 123 235 123 c 0
 335 123 387 30 387 -71 c 0
 387 -196 312 -251 207 -251 c 0
 101 -251 44 -178 40 -116 c 1
 40 -94 58 -75 79 -75 c 0
 90 -75 100 -81 104 -97 c 0
 119 -153 162 -178 206 -178 c 0
 260 -178 319 -139 319 -77 c 0
 319 1 303 49 237 49 c 0
 209 49 147 36 110 9 c 0
 101 2 90 -1 80 -1 c 0
 62 -1 46 9 46 29 c 0
 46 133 43 251 43 356 c 1
 49 377 60 387 81 391 c 1
 171 391 247 390 336 390 c 1
EndSplineSet
Substitution2: "'lnum' Lining Figures in Latin lookup 4 subtable" five
Substitution2: "'smcp' Lowercase to Small Capitals in Latin lookup 0 subtable" five.smcp
EndChar

StartChar: six.onum
Encoding: 65543 -1 68
Width: 387
Flags: W
HStem: 5 64<130.792 238.756> 321 70<127.866 258.373>
VStem: 25 68<112.25 297.785> 298 67<132.485 281.69>
LayerCount: 2
Fore
SplineSet
174 576 m 0
 183 591 200 598 215 598 c 0
 231 598 245 590 245 575 c 0
 245 570 243 564 240 557 c 0
 203 494 154 447 127 377 c 1
 150 386 176 391 201 391 c 0
 312 391 365 311 365 203 c 0
 365 75 272 5 177 5 c 0
 81 5 25 72 25 216 c 0
 25 292 47 353 77 424 c 0
 99 477 150 537 174 576 c 0
99 274 m 0
 95 258 93 237 93 214 c 0
 93 149 113 69 181 69 c 0
 246 69 298 141 298 212 c 0
 298 267 267 321 187 321 c 0
 147 321 106 306 99 274 c 0
EndSplineSet
Substitution2: "'lnum' Lining Figures in Latin lookup 4 subtable" six
Substitution2: "'smcp' Lowercase to Small Capitals in Latin lookup 0 subtable" six.smcp
EndChar

StartChar: seven.onum
Encoding: 65544 -1 69
Width: 454
Flags: W
HStem: -259 21G<271 293> 10 70<109.749 261> 14 73<333 430.473> 274 73<342.557 381.251> 320 70<25.9668 158.465>
VStem: 253 71<-252.2 -1.43608>
LayerCount: 2
Fore
SplineSet
131 10 m 2xc4
 113 10 101 21 101 34 c 0
 101 54 121 77 143 80 c 1
 264 84 l 1
 269 126 274 237 277 277 c 1
 201 290 121 306 43 320 c 1
 27 327 23 346 23 356 c 0
 23 372 40 390 59 390 c 0
 60 390 62 390 64 390 c 0xcc
 80 386 337 357 357 347 c 0
 369 341 384 333 384 316 c 0
 384 289 374 274 350 274 c 0
 348 274 346 274 344 274 c 1
 341 241 334 121 333 87 c 1
 369 87 379 89 410 89 c 1
 430 84 437 76 437 61 c 0
 437 6 380 16 329 14 c 1xb4
 325 -23 324 -59 324 -95 c 0
 324 -134 325 -174 327 -216 c 1
 323 -237 303 -259 283 -259 c 0
 259 -259 253 -215 253 -162 c 0
 253 -101 261 -30 261 0 c 0
 261 6 261 11 260 13 c 1
 131 10 l 2xc4
EndSplineSet
Substitution2: "'lnum' Lining Figures in Latin lookup 4 subtable" seven
Substitution2: "'smcp' Lowercase to Small Capitals in Latin lookup 0 subtable" seven.smcp
EndChar

StartChar: eight.onum
Encoding: 65545 -1 70
Width: 377
Flags: W
HStem: 2 62<126.322 260.729> 544 49<128.734 254.584>
VStem: 29 69<91.6931 212.874> 50 60<420.691 524.277> 281 64<84.3422 204.959> 291 55<423.998 509.796>
LayerCount: 2
Fore
SplineSet
203 593 m 0xd0
 285 593 346 535 346 468 c 0xd4
 346 420 298 367 237 331 c 1
 288 274 345 219 345 134 c 0
 345 44 276 2 195 2 c 0
 113 2 29 47 29 133 c 0xe8
 29 203 85 282 149 333 c 1
 98 362 50 421 50 481 c 0
 50 562 122 593 203 593 c 0xd0
281 130 m 1xe8
 281 190 235 248 193 293 c 1
 153 266 98 202 98 144 c 0
 98 102 130 64 196 64 c 0
 238 64 280 83 281 130 c 1xe8
200 544 m 0
 170 544 110 539 110 472 c 0
 110 427 154 396 194 376 c 1
 233 393 291 429 291 463 c 0xd4
 291 503 241 544 200 544 c 0
EndSplineSet
Substitution2: "'lnum' Lining Figures in Latin lookup 4 subtable" eight
Substitution2: "'smcp' Lowercase to Small Capitals in Latin lookup 0 subtable" eight.smcp
EndChar

StartChar: nine.onum
Encoding: 65546 -1 71
Width: 369
Flags: W
HStem: -259 21G<263 291> 5 76<140.836 247.475> 331 63<152.889 248.966>
VStem: 54 55<119.105 281.263> 252 69<-252 -155> 266 61<106.015 315.555>
LayerCount: 2
Fore
SplineSet
321 -214 m 1xf8
 318 -238 300 -259 282 -259 c 0
 244 -259 252 -185 252 -159 c 0xf8
 252 -96 256 -53 256 33 c 1
 228 10 207 5 181 5 c 0
 173 5 165 5 156 6 c 0
 85 11 54 119 54 213 c 0
 54 325 99 394 207 394 c 0
 305 394 327 305 327 231 c 0xf4
 327 96 319 -164 319 -155 c 1
 319 -167 320 -182 321 -214 c 1xf8
171 81 m 0
 172 81 174 81 176 81 c 0
 199 81 245 91 260 107 c 1
 260 121 266 171 266 220 c 0xf4
 266 301 250 331 204 331 c 0
 152 331 109 269 109 203 c 0
 109 131 147 84 171 81 c 0
EndSplineSet
Substitution2: "'lnum' Lining Figures in Latin lookup 4 subtable" nine
Substitution2: "'smcp' Lowercase to Small Capitals in Latin lookup 0 subtable" nine.smcp
EndChar

StartChar: fraction
Encoding: 8260 8260 72
Width: 510
Flags: W
LayerCount: 2
Fore
SplineSet
431 594 m 1
 441 604 453 609 463 609 c 0
 477 609 488 601 488 588 c 0
 488 581 485 574 480 566 c 0
 350 383 224 183 93 0 c 1
 84 -8 74 -11 65 -11 c 0
 52 -11 41 -4 41 10 c 0
 41 16 42 22 46 29 c 0
 180 213 301 413 431 594 c 1
EndSplineSet
EndChar

StartChar: AE
Encoding: 198 198 73
Width: 551
Flags: W
HStem: 0 63<339 515.332> 239 68<143.749 264> 249 61<334 493.728> 467 67<330 525.211>
VStem: 30 60<1.75806 167.231> 267 72<63 238.864 430 468.866>
LayerCount: 2
Fore
SplineSet
501 534 m 1xdc
 523 529 532 519 532 507 c 0
 532 460 430 467 415 467 c 0
 397 467 374 469 330 473 c 1
 330 430 330 351 333 310 c 1xbc
 399 309 403 307 466 307 c 1xdc
 488 303 496 293 496 281 c 0
 496 267 482 250 463 246 c 1
 414 246 454 249 356 249 c 0
 348 249 341 249 334 249 c 1xbc
 334 195 339 140 339 85 c 0
 339 77 339 70 339 63 c 1
 436 63 399 66 496 66 c 1
 515 63 523 53 523 42 c 0
 523 26 506 6 486 1 c 1
 385 1 412 0 317 0 c 0
 295 0 267 3 267 26 c 2
 269 241 l 1
 242 241 218 239 194 239 c 0
 173 239 151 240 127 247 c 1
 109 173 100 89 90 17 c 0
 88 7 74 1 60 1 c 0
 45 1 30 8 30 25 c 0
 30 63 36 240 103 356 c 0
 186 500 234 536 310 536 c 0
 370 536 390 534 501 534 c 1xdc
261 469 m 1
 211 436 166 363 143 311 c 1
 159 308 174 307 188 307 c 0xdc
 213 307 237 310 264 310 c 1
 265 326 265 341 265 355 c 0
 265 395 262 428 261 469 c 1
EndSplineSet
Substitution2: "'c2sc' Capitals to Small Capitals in Latin lookup 1 subtable" AE.smcp
EndChar

StartChar: ae
Encoding: 230 230 74
Width: 569
Flags: W
HStem: -3 73<338.19 436.663> 0 58<115.197 205.019> 177 59<313 409.734> 320 63<135.437 233.139> 328 58<337.248 425.102>
VStem: 29 57<92.1249 171> 429 72<256.147 323.377>
LayerCount: 2
Fore
SplineSet
397 186 m 0x2e
 364 176 344 177 313 177 c 1
 320 121 330 70 383 70 c 0
 439 70 476 140 508 140 c 0
 519 140 540 114 540 100 c 0
 540 81 459 -3 369 -3 c 0
 367 -3 365 -3 363 -3 c 1xae
 363 -3 300 13 261 67 c 1
 234 21 187 0 143 0 c 0
 62 0 29 55 29 147 c 0
 29 249 80 383 211 383 c 0x76
 243 383 271 374 283 353 c 1
 299 366 344 386 372 386 c 0
 434 386 501 349 501 301 c 0
 501 245 441 199 397 186 c 0x2e
220 103 m 0
 234 141 247 190 247 236 c 0
 247 274 240 320 188 320 c 0
 93 320 86 166 86 171 c 1
 86 121 110 58 158 58 c 0x76
 184 58 210 76 220 103 c 0
356 320 m 0
 321 301 317 271 311 236 c 1
 402 236 429 264 429 293 c 0
 429 316 409 328 386 328 c 0x2e
 376 328 365 325 356 320 c 0
EndSplineSet
Substitution2: "'smcp' Lowercase to Small Capitals in Latin lookup 0 subtable" AE.smcp
EndChar

StartChar: Thorn
Encoding: 222 222 75
Width: 410
Flags: W
HStem: 0 21G<66 81> 183 64<114 269.79> 428 65<114 254.067> 536 20G<76.5 89.5>
VStem: 50 64<6.562 184 248.611 427.969 490 553.416>
LayerCount: 2
Fore
SplineSet
50 527 m 1
 55 545 69 556 84 556 c 0
 95 556 106 550 114 537 c 1
 114 490 l 1
 129 492 145 493 162 493 c 0
 260 493 369 456 369 335 c 0
 369 211 263 183 156 183 c 0
 142 183 128 183 114 184 c 1
 114 39 l 1
 111 17 90 0 72 0 c 0
 60 0 50 9 50 29 c 2
 50 527 l 1
309 329 m 1
 300 408 220 428 146 428 c 0
 135 428 124 428 114 427 c 1
 114 250 l 1
 132 249 153 247 174 247 c 0
 234 247 295 260 309 329 c 1
EndSplineSet
Substitution2: "'c2sc' Capitals to Small Capitals in Latin lookup 1 subtable" Thorn.smcp
EndChar

StartChar: thorn
Encoding: 254 254 76
Width: 379
Flags: W
HStem: 1 65<100.451 241.221> 323 66<127.344 242.702>
VStem: 36 64<-248.899 14 72.75 296.044 349 476.909> 279 67<103.626 284.082>
LayerCount: 2
Fore
SplineSet
33 454 m 0
 33 470 47 479 65 479 c 0
 80 479 95 472 100 456 c 1
 100 391 100 414 100 349 c 1
 106 363 131 389 188 389 c 0
 309 389 346 287 346 181 c 0
 346 73 280 1 163 1 c 0
 127 1 109 10 100 14 c 1
 100 -111 99 -91 99 -219 c 1
 94 -240 74 -257 56 -257 c 0
 44 -257 34 -249 34 -229 c 0
 34 -86 36 -87 36 56 c 0
 36 353 33 417 33 454 c 0
174 323 m 1
 127 317 100 274 100 251 c 2
 100 81 l 1
 110 79 127 66 164 66 c 0
 233 66 279 97 279 184 c 0
 279 257 263 323 174 323 c 1
EndSplineSet
Substitution2: "'smcp' Lowercase to Small Capitals in Latin lookup 0 subtable" Thorn.smcp
EndChar

StartChar: eth
Encoding: 240 240 77
Width: 386
Flags: W
HStem: -2 66<143.275 238.968> 311 59<142.787 204.842> 393 21G<114.5 125.5> 535 20G<124.5 137 233 244>
VStem: 40 63<109.88 265.843> 279 64<108.323 268.298>
LayerCount: 2
Fore
SplineSet
146 401 m 1
 137 396 129 393 122 393 c 0
 107 393 97 403 97 417 c 0
 97 424 100 432 106 441 c 1
 130 467 l 1
 127 470 l 2
 121 476 105 496 105 499 c 1
 106 499 l 1
 100 505 97 513 97 520 c 0
 97 538 115 555 134 555 c 0
 140 555 145 553 151 550 c 1
 181 513 l 1
 210 543 l 1
 220 551 229 554 237 554 c 0
 251 554 261 544 261 530 c 0
 261 523 259 512 250 503 c 2
 216 469 l 1
 289 377 339 319 343 194 c 1
 343 112 270 -2 179 -2 c 0
 88 -2 40 99 40 170 c 0
 40 261 99 370 206 370 c 1
 164 423 l 1
 146 401 l 1
233 80 m 0
 264 106 279 148 279 189 c 0
 279 240 249 311 195 311 c 0
 130 311 103 243 103 195 c 0
 103 131 136 64 194 64 c 0
 207 64 221 69 233 80 c 0
EndSplineSet
Substitution2: "'smcp' Lowercase to Small Capitals in Latin lookup 0 subtable" Eth.smcp
EndChar

StartChar: germandbls
Encoding: 223 223 78
Width: 441
Flags: W
HStem: -34 58<227.568 302.986> 254 49<148.424 198.533> 513 67<152.547 249.857>
VStem: 33 63<107.668 430.289> 38 71<-249.366 15.005> 144 66<41.4153 90.165> 267 61<362.291 495.653> 331 63<54.8626 225.091>
LayerCount: 2
Fore
SplineSet
109 -216 m 1xef
 105 -238 84 -258 65 -258 c 0
 29 -258 38 -181 38 -134 c 0xef
 38 -42 41 58 41 137 c 0
 41 201 33 266 33 329 c 0
 33 389 40 450 69 507 c 0
 98 563 152 580 195 580 c 0
 275 580 328 511 328 447 c 0
 328 439 322 323 250 297 c 1
 357 290 394 211 394 135 c 0
 394 19 341 -34 253 -34 c 0
 204 -34 155 -13 144 50 c 1
 144 74 163 96 185 96 c 0
 194 96 203 92 210 81 c 1
 223 40 243 24 263 24 c 0
 310 24 331 84 331 151 c 0
 331 229 305 256 199 256 c 0
 189 256 181 255 176 254 c 1
 157 255 148 268 148 280 c 0
 148 291 155 301 170 303 c 1
 239 329 267 381 267 441 c 0
 267 474 255 510 194 513 c 1
 132 513 96 396 96 298 c 0xf7
 96 173 101 -45 109 -216 c 1xef
EndSplineSet
Substitution2: "'smcp' Lowercase to Small Capitals in Latin lookup 0 subtable" germandbls.smcp
EndChar

StartChar: acute
Encoding: 180 180 79
Width: 206
Flags: W
HStem: 600 141<73 139>
VStem: 43 126
LayerCount: 2
Fore
SplineSet
114 727 m 1
 120 737 130 741 139 741 c 0
 153 741 169 729 169 704 c 1
 154 674 112 600 73 600 c 0
 53 600 43 615 43 626 c 0
 43 635 48 645 56 654 c 1
 86 670 100 696 114 727 c 1
EndSplineSet
EndChar

StartChar: grave
Encoding: 96 96 80
Width: 184
Flags: W
HStem: 495 58<96.7773 162.406>
VStem: 18 146
LayerCount: 2
Fore
SplineSet
66 604 m 1
 89 579 109 559 143 553 c 1
 155 545 164 534 164 523 c 0
 164 510 151 495 132 495 c 0
 85 495 18 564 18 582 c 0
 18 601 32 612 47 612 c 0
 53 612 60 609 66 604 c 1
EndSplineSet
EndChar

StartChar: circumflex
Encoding: 710 710 81
Width: 271
Flags: W
HStem: 594 112
VStem: 30 204<610 643>
LayerCount: 2
Fore
SplineSet
131 649 m 1
 116 637 77 594 57 594 c 0
 40 594 30 610 30 627 c 0
 30 643 107 706 133 706 c 0
 153 706 234 654 234 624 c 0
 234 607 216 596 201 596 c 0
 193 596 143 636 131 649 c 1
EndSplineSet
EndChar

StartChar: caron
Encoding: 711 711 82
Width: 326
Flags: W
HStem: 534 132
VStem: 54 226
LayerCount: 2
Fore
SplineSet
229 650 m 0
 234 656 247 661 258 661 c 0
 270 661 280 656 280 643 c 0
 280 641 279 639 279 637 c 0
 271 616 184 534 163 534 c 0
 140 534 67 607 54 643 c 1
 56 659 66 666 78 666 c 0
 105 666 123 626 163 589 c 1
 190 609 210 627 229 650 c 0
EndSplineSet
EndChar

StartChar: hungarumlaut
Encoding: 733 733 83
Width: 256
Flags: W
HStem: 505 150
VStem: 81 56<583.005 654.136> 187 56<579.4 650.778>
LayerCount: 2
Fore
SplineSet
81 636 m 1
 88 648 98 655 109 655 c 0
 123 655 136 643 137 623 c 1
 129 589 97 505 55 505 c 0
 34 505 26 519 26 531 c 0
 26 539 29 548 34 556 c 1
 63 576 73 603 81 636 c 1
187 634 m 1
 192 647 203 652 213 652 c 0
 226 652 240 644 243 621 c 1
 233 588 203 503 160 503 c 0
 140 503 131 517 131 529 c 0
 131 538 134 546 140 554 c 1
 169 574 179 601 187 634 c 1
EndSplineSet
EndChar

StartChar: dieresis
Encoding: 168 168 84
Width: 337
Flags: W
HStem: 446 77<65.2202 135.643 202.79 273.336>
VStem: 57 83<449.223 515.404> 199 82<453.133 519.606>
LayerCount: 2
Fore
SplineSet
244 523 m 0
 261 523 280 514 281 491 c 1
 277 460 256 446 236 446 c 0
 217 446 199 460 199 486 c 0
 199 509 211 523 244 523 c 0
104 524 m 0
 124 524 139 507 140 481 c 1
 136 457 116 443 94 443 c 0
 69 443 60 460 57 476 c 1
 57 501 80 524 104 524 c 0
EndSplineSet
EndChar

StartChar: dotaccent
Encoding: 729 729 85
Width: 117
Flags: W
HStem: 447 69<29.0691 87.6023>
VStem: 26 65<449.911 512.492>
LayerCount: 2
Fore
SplineSet
26 483 m 1
 30 504 36 510 59 516 c 1
 76 516 91 500 91 481 c 0
 91 466 73 447 59 447 c 0
 41 447 29 456 26 483 c 1
EndSplineSet
EndChar

StartChar: tilde
Encoding: 732 732 86
Width: 391
Flags: W
HStem: 419 47<197.152 270.472> 457 52<113.04 186.9>
VStem: 62 262<457.648 464.976>
LayerCount: 2
Fore
SplineSet
141 457 m 0x60
 119 457 112 421 91 421 c 0
 83 421 62 431 62 448 c 0
 62 475 112 509 141 509 c 0x60
 176 509 200 479 239 466 c 1
 260 466 278 506 300 506 c 0
 308 506 324 495 324 482 c 0
 324 454 267 419 237 419 c 0xa0
 190 419 171 457 141 457 c 0x60
EndSplineSet
EndChar

StartChar: breve
Encoding: 728 728 87
Width: 250
Flags: W
HStem: 390 54<88.2562 165.642>
VStem: 19 212<423.589 491>
LayerCount: 2
Fore
SplineSet
19 474 m 0
 19 491 31 507 51 507 c 0
 86 507 74 444 129 444 c 0
 174 444 173 503 204 503 c 0
 219 503 231 491 231 473 c 0
 231 424 176 390 124 390 c 0
 83 390 19 416 19 474 c 0
EndSplineSet
EndChar

StartChar: ring
Encoding: 730 730 88
Width: 169
Flags: W
HStem: 409 44<59.3491 113.053> 509 35<62.4494 111.94>
VStem: 17 42<453.273 507.042> 114 40<454.079 508.154>
LayerCount: 2
Fore
SplineSet
84 409 m 0
 43 409 17 449 17 474 c 0
 17 519 53 544 94 544 c 0
 130 544 154 519 154 471 c 1
 151 441 127 410 84 409 c 0
91 509 m 0
 74 509 59 496 59 479 c 0
 59 467 66 453 84 453 c 0
 102 453 114 460 114 482 c 0
 114 497 104 509 91 509 c 0
EndSplineSet
EndChar

StartChar: cedilla
Encoding: 184 184 89
Width: 476
Flags: W
HStem: -256 63<144.533 295.098> -121 130<182.858 239.94> -117 52<240.002 297.697>
VStem: 174 66<-64.3498 4.18394> 300 60<-187.699 -117.68>
LayerCount: 2
Fore
SplineSet
180 -13 m 0xd8
 184 0 200 9 215 9 c 0xd8
 232 9 242 -1 242 -25 c 0
 242 -35 240 -44 240 -50 c 0
 240 -60 243 -65 259 -65 c 0
 263 -65 269 -64 276 -63 c 1
 339 -63 360 -81 360 -126 c 0
 360 -197 314 -256 223 -256 c 0
 177 -256 119 -241 119 -207 c 0
 119 -189 131 -171 153 -171 c 0
 170 -171 199 -193 233 -193 c 0
 280 -193 300 -189 300 -140 c 0
 300 -122 286 -117 270 -117 c 0xb8
 255 -117 237 -121 226 -121 c 0
 184 -121 174 -91 174 -60 c 0
 174 -43 177 -26 180 -13 c 0xd8
EndSplineSet
EndChar

StartChar: ogonek
Encoding: 731 731 90
Width: 714
Flags: W
HStem: -253 66<144.111 285.263> -22 20G<166 178>
VStem: 79 63<-184.042 -101.813>
LayerCount: 2
Fore
SplineSet
156 -4 m 0
 160 -2 164 -2 168 -2 c 0
 188 -2 208 -22 208 -43 c 0
 208 -68 142 -99 142 -157 c 0
 142 -185 171 -187 189 -187 c 0
 216 -187 242 -177 271 -177 c 1
 292 -183 307 -202 307 -218 c 0
 307 -244 254 -253 201 -253 c 0
 114 -253 79 -208 79 -146 c 0
 79 -87 112 -23 156 -4 c 0
EndSplineSet
EndChar

StartChar: question
Encoding: 63 63 91
Width: 307
Flags: W
HStem: 26 84<126.665 195.266> 527 66<112.478 217.297>
VStem: 99 68<205.567 302.268> 119 80<31.5841 106> 232 64<431.317 510.96>
LayerCount: 2
Fore
SplineSet
156 110 m 0xd8
 183 110 199 107 199 70 c 0
 199 30 174 26 154 26 c 0
 139 26 119 53 119 70 c 0
 119 86 133 110 156 110 c 0xd8
167 527 m 0xe8
 101 527 91 461 63 461 c 0
 41 461 29 476 29 496 c 0
 29 534 97 593 166 593 c 0
 220 593 296 554 296 467 c 0
 296 379 167 304 167 267 c 0
 167 239 189 226 189 209 c 0
 189 193 174 179 160 179 c 0
 133 179 99 213 99 267 c 0
 99 359 211 401 231 467 c 0
 232 470 232 473 232 475 c 0
 232 504 193 527 167 527 c 0xe8
EndSplineSet
EndChar

StartChar: exclam
Encoding: 33 33 92
Width: 206
Flags: W
HStem: 26 84<74.7248 143.314>
VStem: 64 73<337.754 590.571> 67 80<32.1708 106>
LayerCount: 2
Fore
SplineSet
64 573 m 1xc0
 68 585 87 594 105 594 c 0
 120 594 134 588 137 573 c 1
 137 465 129 394 129 289 c 0
 129 270 129 250 130 229 c 1
 126 215 111 202 98 202 c 0
 90 202 82 207 77 220 c 1
 69 349 64 441 64 573 c 1xc0
104 110 m 0
 131 110 147 107 147 70 c 0
 147 30 123 26 103 26 c 0
 87 26 67 53 67 70 c 0xa0
 67 86 81 110 104 110 c 0
EndSplineSet
EndChar

StartChar: questiondown
Encoding: 191 191 93
Width: 313
Flags: W
HStem: -174 65<104.518 208.834> 309 84<126.686 195.275>
VStem: 26 63<-92.7206 -13.2502> 123 80<313 386.829> 154 69<115.888 212.228>
LayerCount: 2
Fore
SplineSet
166 309 m 0xf0
 139 309 123 311 123 349 c 0
 123 389 147 393 167 393 c 0
 183 393 203 366 203 349 c 0
 203 333 189 309 166 309 c 0xf0
154 -109 m 0xe8
 220 -109 230 -43 259 -43 c 0
 280 -43 293 -57 293 -77 c 0
 293 -116 224 -174 156 -174 c 0
 101 -174 26 -136 26 -49 c 0
 26 39 154 115 154 150 c 0
 154 179 132 193 132 210 c 0
 132 225 147 239 161 239 c 0
 188 239 223 205 223 151 c 0
 223 60 110 17 90 -49 c 0
 89 -52 89 -55 89 -57 c 0
 89 -85 128 -109 154 -109 c 0xe8
EndSplineSet
EndChar

StartChar: exclamdown
Encoding: 161 161 94
Width: 179
Flags: W
HStem: 309 84<66.6652 135.266>
VStem: 56 73<-172.745 81.0293> 59 80<313 387.416>
LayerCount: 2
Fore
SplineSet
56 -154 m 1xc0
 56 -23 60 70 69 199 c 1
 73 211 81 216 89 216 c 0
 102 216 117 203 121 190 c 1
 120 170 120 151 120 133 c 0
 120 27 129 -45 129 -154 c 1
 125 -170 112 -176 97 -176 c 0
 79 -176 60 -167 56 -154 c 1xc0
96 309 m 0
 73 309 59 333 59 349 c 0
 59 366 79 393 94 393 c 0
 114 393 139 389 139 349 c 0xa0
 139 311 123 309 96 309 c 0
EndSplineSet
EndChar

StartChar: asterisk
Encoding: 42 42 95
Width: 337
Flags: W
HStem: 316 283<151.753 183.704> 531 20G<253 277.5>
VStem: 36 262
LayerCount: 2
Fore
SplineSet
47 509 m 1xa0
 40 516 36 525 36 533 c 0
 36 548 48 561 65 561 c 0
 85 561 122 517 143 496 c 1
 147 534 140 599 177 599 c 0xa0
 189 599 201 591 206 574 c 1
 202 520 l 1
 222 532 242 542 264 551 c 1
 268 551 l 2x60
 287 551 298 538 298 524 c 0
 298 497 229 470 197 449 c 1
 233 421 292 413 292 383 c 0
 292 369 281 356 262 356 c 0
 239 356 209 373 189 387 c 1
 186 349 188 316 159 316 c 0
 146 316 133 326 130 346 c 1
 130 366 131 386 133 406 c 1
 115 393 87 374 71 374 c 0
 54 374 42 387 42 401 c 0
 42 424 80 439 106 456 c 1
 86 475 67 493 47 509 c 1xa0
EndSplineSet
EndChar

StartChar: comma
Encoding: 44 44 96
Width: 169
Flags: W
HStem: -73 160<67.8815 98.5926>
VStem: 67 57<-21.6147 86.1431>
LayerCount: 2
Fore
SplineSet
67 61 m 1
 70 79 83 87 96 87 c 0
 107 87 119 79 124 63 c 1
 124 26 113 -73 66 -73 c 0
 46 -73 38 -60 38 -44 c 0
 38 -38 39 -33 41 -27 c 1
 64 -1 67 27 67 61 c 1
EndSplineSet
EndChar

StartChar: hyphen
Encoding: 45 45 97
Width: 337
Flags: W
HStem: 163 67<32.6094 303.426>
VStem: 30 277<168.907 224.983>
LayerCount: 2
Fore
SplineSet
269 163 m 1
 57 163 l 2
 34 163 30 181 30 194 c 0
 30 216 44 226 71 230 c 1
 276 230 l 1
 296 224 307 213 307 199 c 0
 307 179 291 169 269 163 c 1
EndSplineSet
EndChar

StartChar: period
Encoding: 46 46 98
Width: 179
Flags: W
HStem: 1 99<58.2063 127.238>
VStem: 46 91<9.10536 89.7278>
LayerCount: 2
Fore
SplineSet
137 50 m 1
 137 27 117 1 91 1 c 0
 74 1 46 13 46 34 c 0
 46 59 59 100 93 100 c 0
 104 100 133 89 137 50 c 1
EndSplineSet
EndChar

StartChar: colon
Encoding: 58 58 99
Width: 194
Flags: W
HStem: 1 93<59.7125 119.673> 250 99<61.0219 130.238>
VStem: 54 86<8.11914 88.3946 258.25 339.465>
LayerCount: 2
Fore
SplineSet
120 90 m 1
 126 86 140 63 140 46 c 0
 140 19 117 1 94 1 c 0
 71 1 54 20 54 47 c 0
 54 77 70 94 103 94 c 0
 107 94 113 93 120 90 c 1
140 299 m 1
 140 276 120 250 94 250 c 0
 77 250 49 261 49 283 c 0
 49 307 61 349 96 349 c 0
 107 349 136 337 140 299 c 1
EndSplineSet
EndChar

StartChar: semicolon
Encoding: 59 59 100
Width: 194
Flags: W
HStem: 4 95<54.9498 92.4896> 249 98<61.0219 130.238>
VStem: 47 93<12.9778 92.2574 257.125 335.771>
LayerCount: 2
Fore
SplineSet
140 297 m 1
 140 274 120 249 94 249 c 0
 77 249 49 260 49 281 c 0
 49 306 61 347 96 347 c 0
 107 347 136 336 140 297 c 1
89 99 m 0
 127 99 140 79 140 31 c 0
 140 -36 91 -72 74 -72 c 0
 63 -72 55 -67 55 -60 c 0
 55 -45 87 -24 93 4 c 1
 70 4 47 23 47 54 c 0
 47 70 59 99 89 99 c 0
EndSplineSet
EndChar

StartChar: numbersign
Encoding: 35 35 101
Width: 381
Flags: W
HStem: 89 54<31.8687 71 267 320.414> 229 64<47.0356 118.25 317.062 360.948> 243 56<203.386 241> 367 20G<169 199 289.5 312.5>
VStem: 64 63<6.63674 82.1108>
LayerCount: 2
Fore
SplineSet
69 229 m 1xd8
 50 231 41 244 41 256 c 0
 41 289 100 286 143 293 c 1xd8
 159 326 147 387 191 387 c 0
 207 387 216 374 216 361 c 0
 216 350 209 317 203 299 c 1xb8
 233 299 247 297 263 296 c 1
 274 329 273 386 306 386 c 0
 319 386 331 376 331 359 c 0
 331 339 324 311 317 290 c 1
 349 284 363 283 363 261 c 0
 363 250 356 237 339 234 c 1
 326 234 313 236 300 237 c 1
 277 184 279 169 267 143 c 1
 299 143 l 1
 313 137 321 127 321 116 c 0
 321 103 313 91 297 89 c 1
 256 89 l 1
 251 51 253 -3 219 -3 c 0
 207 -3 197 1 194 19 c 1
 203 87 l 1
 127 83 l 1
 119 51 121 1 90 1 c 0
 79 1 66 10 64 29 c 1
 66 47 69 64 71 83 c 1
 57 83 l 1
 39 86 29 99 29 110 c 0
 29 123 40 137 59 137 c 2
 86 137 l 1
 94 170 106 201 119 231 c 1
 103 230 87 229 69 229 c 1xd8
179 240 m 1
 167 216 159 191 140 139 c 1
 164 139 190 140 214 141 c 1
 224 176 231 209 241 243 c 1xb8
 227 243 213 244 179 240 c 1
EndSplineSet
EndChar

StartChar: percent
Encoding: 37 37 102
Width: 536
Flags: W
HStem: 6 57<339.207 428.422> 184 57<353.37 442.181> 290 64<100.304 190.269> 490 49<122.255 207.692>
VStem: 36 61<357.46 465.125> 214 63<377.579 485.911> 270 62<70.2155 163.344> 451 55<85.0934 178.083>
LayerCount: 2
Fore
SplineSet
169 539 m 0xfd
 226 539 277 510 277 446 c 0
 277 374 211 290 136 290 c 0
 90 290 36 326 36 404 c 0
 36 490 103 539 169 539 c 0xfd
400 530 m 0
 410 537 421 541 431 541 c 0
 447 541 449 530 449 515 c 0
 449 510 449 504 449 499 c 0
 449 484 404 421 394 406 c 0
 312 287 205 118 159 40 c 0
 144 15 127 6 113 6 c 0
 95 6 81 21 81 34 c 0
 81 66 137 118 167 163 c 0
 255 292 242 285 343 441 c 0
 366 476 364 501 400 530 c 0
406 241 m 0
 464 241 506 187 506 127 c 0
 506 51 447 6 373 6 c 0
 321 6 270 36 270 106 c 0xfb
 270 184 341 241 406 241 c 0
214 429 m 0xfd
 214 454 210 490 177 490 c 0
 121 490 97 447 97 401 c 0
 97 364 107 354 139 354 c 0
 170 354 214 381 214 429 c 0xfd
451 126 m 0
 451 141 446 184 410 184 c 0
 379 184 332 165 332 114 c 0xfb
 332 74 359 63 379 63 c 0
 416 63 451 99 451 126 c 0
EndSplineSet
Substitution2: "'smcp' Lowercase to Small Capitals in Latin lookup 0 subtable" percent.smcp
EndChar

StartChar: ampersand
Encoding: 38 38 103
Width: 470
Flags: W
HStem: 4 71<138.119 230.267> 490 63<188.782 243.124>
VStem: 56 59<99.7228 228.534> 122 57<350.422 483.296> 254 61<374.886 483.666> 329 61<184.875 261.365>
LayerCount: 2
Fore
SplineSet
329 236 m 0
 333 255 347 263 361 263 c 0
 376 263 390 253 390 234 c 0
 390 209 363 165 332 123 c 1
 345 95 357 68 366 37 c 1
 363 18 349 6 335 6 c 0
 309 6 304 45 292 74 c 1
 246 19 218 4 184 4 c 0
 109 4 56 101 56 170 c 0
 56 250 107 289 157 321 c 1
 138 360 122 401 122 442 c 0
 122 516 172 553 216 553 c 0
 275 553 315 492 315 431 c 0
 315 372 272 336 226 303 c 1
 243 273 265 246 280 219 c 2
 303 177 l 1
 316 198 326 219 329 236 c 0
179 75 m 0
 205 75 238 98 266 128 c 1
 242 172 212 213 189 260 c 2
 183 272 l 1
 146 244 115 214 115 170 c 0
 115 152 126 75 179 75 c 0
179 420 m 1
 181 396 189 372 201 348 c 1
 231 369 254 390 254 423 c 0
 254 465 235 490 216 490 c 0
 198 490 180 468 179 420 c 1
EndSplineSet
Substitution2: "'smcp' Lowercase to Small Capitals in Latin lookup 0 subtable" ampersand.smcp
EndChar

StartChar: at
Encoding: 64 64 104
Width: 459
Flags: W
HStem: 2 62<136.213 305.179> 120 49<176.34 241.647> 236 46<189.058 249.856> 331 59<171.093 333.051>
VStem: 29 55<111.851 246.679> 122 54<169.834 222.623> 240 53<97.9453 121> 353 57<215.595 310.045>
LayerCount: 2
Fore
SplineSet
134 144 m 0
 126 154 122 165 122 177 c 0
 122 225 178 282 232 282 c 0
 241 282 250 280 259 277 c 1
 259 283 273 288 286 288 c 0
 298 288 309 284 309 274 c 0
 309 247 303 220 300 190 c 1
 331 207 353 237 353 271 c 0
 353 317 295 331 250 331 c 0
 150 331 84 249 84 175 c 0
 84 118 126 64 223 64 c 0
 284 64 331 95 356 130 c 0
 364 142 375 147 385 147 c 0
 399 147 410 137 410 122 c 0
 410 120 410 117 409 114 c 0
 391 38 316 2 238 2 c 0
 137 2 29 62 29 176 c 0
 29 298 153 390 267 390 c 0
 326 390 410 361 410 267 c 0
 410 204 358 146 293 130 c 1
 290 98 272 97 261 97 c 0
 242 97 240 111 240 118 c 0
 240 120 240 121 240 121 c 1
 232 120 223 120 214 120 c 0
 183 120 149 126 134 144 c 0
244 170 m 1
 246 181 250 213 250 223 c 0
 250 232 242 236 231 236 c 0
 209 236 176 218 176 176 c 1
 186 170 201 169 216 169 c 0
 226 169 237 169 244 170 c 1
EndSplineSet
EndChar

StartChar: degree
Encoding: 176 176 105
Width: 194
Flags: W
HStem: 459 44<67.6498 122.101> 559 35<70.8216 120.766>
VStem: 26 41<504.07 555.975> 123 40<504.151 558.153>
LayerCount: 2
Fore
SplineSet
93 459 m 0
 51 459 26 499 26 524 c 0
 26 569 61 594 103 594 c 0
 139 594 163 569 163 521 c 1
 160 491 136 460 93 459 c 0
100 559 m 0
 83 559 67 546 67 529 c 0
 67 517 74 503 93 503 c 0
 110 503 123 510 123 531 c 0
 123 547 112 559 100 559 c 0
EndSplineSet
EndChar

StartChar: mu
Encoding: 181 181 106
AltUni2: 0003bc.ffffffff.0
Width: 411
Flags: W
HStem: 1 65<140.587 274.714> 371 20G<65 88.5 314 334>
VStem: 39 68<-242.446 20 98.0972 386.887> 290 73<191.899 386.891> 300 67<92.5336 358.762>
LayerCount: 2
Fore
SplineSet
106 -206 m 1xe8
 103 -227 79 -256 61 -256 c 0
 50 -256 40 -247 40 -227 c 0
 40 -29 39 30 39 359 c 1
 43 369 50 391 80 391 c 0
 97 391 106 381 110 363 c 1
 110 271 109 213 107 121 c 1
 131 90 164 66 206 66 c 0
 293 66 300 119 300 189 c 0xe8
 300 251 290 303 290 359 c 1
 294 376 301 389 327 389 c 0
 341 389 357 386 363 364 c 1xf0
 363 303 367 249 367 189 c 0
 367 53 317 1 200 1 c 0
 167 1 136 6 107 20 c 1
 106 -70 106 -114 106 -206 c 1xe8
EndSplineSet
EndChar

StartChar: copyright
Encoding: 169 169 107
Width: 633
Flags: W
HStem: -1 64<220.745 420.184> 113 67<262.114 356.181> 381 65<265.364 353.259> 497 59<241.625 420.721>
VStem: 37 64<180.502 363.69> 179 64<197.016 357.403> 517 64<161.971 398.1>
LayerCount: 2
Fore
SplineSet
316 556 m 1
 380 553 454 551 506 501 c 0
 564 444 581 356 581 279 c 0
 581 116 497 4 329 -1 c 1
 227 -1 37 46 37 277 c 0
 37 427 170 544 316 556 c 1
316 497 m 1
 194 484 101 387 101 273 c 0
 101 151 200 63 316 63 c 0
 454 63 517 144 517 274 c 0
 517 399 476 494 316 497 c 1
316 446 m 0
 347 446 436 410 436 364 c 0
 436 343 416 330 397 330 c 0
 373 330 347 381 307 381 c 0
 263 381 243 330 243 280 c 0
 243 224 259 180 303 180 c 0
 314 180 371 214 405 214 c 0
 419 214 429 208 429 190 c 0
 429 143 347 113 307 113 c 0
 236 113 179 180 179 261 c 0
 179 343 224 446 316 446 c 0
EndSplineSet
EndChar

StartChar: registered
Encoding: 174 174 108
Width: 634
Flags: W
HStem: 0 64<221.343 420.005> 247 53<269.391 330.944> 375 56<269.504 361.494> 497 57<242.065 420.857>
VStem: 39 64<180.799 363.403> 214 55<134.903 249 300.298 374.999> 371 52<136.254 199.386 310.647 361.165> 516 64<162.905 397.975>
LayerCount: 2
Fore
SplineSet
316 554 m 1
 381 553 454 550 504 501 c 0
 563 443 580 356 580 280 c 0
 580 116 496 6 329 0 c 1
 227 0 39 47 39 277 c 0
 39 426 170 544 316 554 c 1
317 497 m 1
 194 483 103 387 103 273 c 0
 103 151 200 64 317 64 c 0
 454 64 516 146 516 274 c 0
 516 399 476 494 317 497 c 1
427 179 m 0
 427 177 428 174 428 172 c 0
 428 153 410 135 394 135 c 0
 386 135 379 140 374 151 c 1
 364 187 334 216 320 247 c 1
 301 247 284 247 267 249 c 1
 267 202 277 130 230 130 c 0
 220 130 211 137 211 154 c 0
 211 223 214 290 214 397 c 1
 227 434 272 431 309 431 c 0
 383 431 423 396 423 344 c 0
 423 313 407 281 376 263 c 1
 393 234 416 209 427 179 c 0
269 374 m 1
 269 307 l 1
 275 302 286 300 299 300 c 0
 330 300 371 313 371 335 c 0
 371 364 318 375 293 375 c 0
 285 375 277 375 269 374 c 1
EndSplineSet
EndChar

StartChar: section
Encoding: 167 167 109
Width: 320
Flags: W
HStem: 0 64<51.8955 177.759> 488 68<133.319 241.851>
VStem: 36 55<234.214 313.24> 61 66<406.3 479.635> 179 62<66.8181 136.252> 227 54<224.061 316.555>
LayerCount: 2
Fore
SplineSet
111 536 m 1xd0
 128 547 160 556 189 556 c 0
 226 556 245 542 245 520 c 0
 245 502 232 484 217 484 c 0
 205 484 193 488 183 488 c 0
 147 488 127 470 127 444 c 0
 127 371 281 400 281 277 c 0xd4
 281 233 257 189 221 157 c 1
 237 136 241 119 241 87 c 0
 241 24 191 0 136 0 c 0
 65 0 43 24 43 38 c 0
 43 46 42 70 75 70 c 0
 87 70 114 64 137 64 c 0
 165 64 179 71 179 97 c 0
 179 162 36 173 36 266 c 0xe8
 36 309 66 350 106 376 c 1
 77 390 61 413 61 441 c 0
 61 504 93 526 111 536 c 1xd0
227 274 m 0
 227 302 196 336 161 336 c 0
 139 336 91 310 91 271 c 0xe4
 91 237 144 211 173 196 c 1
 199 211 227 243 227 274 c 0
EndSplineSet
EndChar

StartChar: paragraph
Encoding: 182 182 110
Width: 417
Flags: W
HStem: 502 51<224 260 317 376.513>
VStem: 30 194<344.943 490.585> 160 59<2.34256 295.772> 253 59<-1.37811 496.374> 260 57<136.104 503>
LayerCount: 2
Fore
SplineSet
160 293 m 1xa0
 87 300 30 337 30 419 c 0
 30 504 95 553 221 553 c 0
 302 553 377 560 377 531 c 0
 377 507 366 502 340 502 c 0
 333 502 326 502 317 503 c 1xc8
 314 375 312 236 312 121 c 0
 312 89 313 59 313 34 c 0
 313 10 297 -4 284 -4 c 0
 245 -4 253 101 253 133 c 0x90
 253 198 257 341 260 504 c 1
 224 504 l 1xc8
 217 401 219 238 219 34 c 0
 219 11 200 1 180 -3 c 1
 161 0 163 9 160 27 c 1
 159 73 157 123 157 183 c 0
 157 216 157 253 160 293 c 1xa0
EndSplineSet
EndChar

StartChar: asciicircum
Encoding: 94 94 111
Width: 309
Flags: W
HStem: 519 145
VStem: 30 247
LayerCount: 2
Fore
SplineSet
86 537 m 0
 80 530 65 524 52 524 c 0
 40 524 30 529 30 543 c 0
 30 546 30 548 31 551 c 0
 39 574 134 664 157 664 c 0
 183 664 263 584 277 544 c 1
 275 526 264 519 251 519 c 0
 220 519 203 561 157 604 c 1
 129 583 106 561 86 537 c 0
EndSplineSet
EndChar

StartChar: asciitilde
Encoding: 126 126 112
Width: 441
Flags: W
HStem: 340 63<242.541 328.345> 391 70<112.647 204.354>
LayerCount: 2
Fore
SplineSet
150 391 m 0x40
 121 391 97 340 62 340 c 0x80
 51 340 22 350 22 371 c 0
 22 409 110 461 150 461 c 0x40
 196 461 236 421 289 403 c 1
 319 404 352 457 385 457 c 0
 396 457 416 446 416 428 c 0
 416 390 327 340 287 340 c 0x80
 224 340 191 391 150 391 c 0x40
EndSplineSet
EndChar

StartChar: underscore
Encoding: 95 95 113
Width: 476
Flags: W
HStem: -50 49<26.2637 450.585>
LayerCount: 2
Fore
SplineSet
46 -50 m 2
 29 -50 26 -37 26 -27 c 0
 26 -11 36 -4 56 -1 c 1
 430 -1 l 1
 444 -6 451 -14 451 -24 c 0
 451 -39 437 -46 420 -50 c 1
 46 -50 l 2
EndSplineSet
EndChar

StartChar: slash
Encoding: 47 47 114
Width: 353
Flags: W
VStem: 37 53<-34.2015 29.205> 276 57<548.063 613.704>
LayerCount: 2
Fore
SplineSet
276 594 m 1
 284 609 298 616 310 616 c 0
 322 616 333 608 333 594 c 0
 333 589 332 583 329 577 c 0
 243 370 179 190 90 -17 c 1
 81 -29 69 -36 59 -36 c 0
 47 -36 37 -28 37 -12 c 0
 37 -8 38 -4 39 0 c 0
 129 209 189 389 276 594 c 1
EndSplineSet
EndChar

StartChar: backslash
Encoding: 92 92 115
Width: 350
Flags: W
VStem: 21 53<554.929 618.01> 260 57<-29.7037 35.937>
LayerCount: 2
Fore
SplineSet
260 -10 m 1
 173 196 113 376 23 584 c 0
 22 588 21 592 21 596 c 0
 21 612 31 620 42 620 c 0
 53 620 65 613 74 601 c 1
 163 394 227 214 313 7 c 0
 316 0 317 -5 317 -10 c 0
 317 -25 306 -32 294 -32 c 0
 282 -32 268 -25 260 -10 c 1
EndSplineSet
EndChar

StartChar: bar
Encoding: 124 124 116
Width: 147
Flags: W
VStem: 43 64<-37.2718 607.901>
LayerCount: 2
Fore
SplineSet
46 581 m 1
 51 600 69 616 86 616 c 0
 96 616 106 609 110 591 c 1
 110 393 107 194 107 -6 c 1
 103 -28 82 -44 65 -44 c 0
 53 -44 43 -36 43 -16 c 0
 43 184 46 383 46 581 c 1
EndSplineSet
EndChar

StartChar: dollar
Encoding: 36 36 117
Width: 423
Flags: W
HStem: 3 48<239 315.703> 497 59<164.082 194 259 318.75>
VStem: 59 58<349.874 447.606> 179 57<-47.7607 3 60 237.048> 194 57<63.2315 240 553.03 602.057> 337 59<72.6078 190.115 427.345 477.947>
LayerCount: 2
Fore
SplineSet
194 577 m 1xec
 197 594 210 603 223 603 c 0
 234 603 246 594 251 579 c 1
 251 556 l 1xec
 317 550 379 516 397 457 c 1
 396 437 381 426 367 426 c 0
 357 426 347 431 341 446 c 1
 333 477 297 493 259 497 c 1
 259 489 259 481 259 474 c 0
 259 444 257 419 257 389 c 1
 254 301 l 1
 342 268 396 214 396 119 c 0
 396 33 309 3 237 3 c 1
 236 -17 l 2
 235 -37 220 -49 207 -49 c 0
 194 -49 181 -39 179 -19 c 1
 179 4 l 1xf4
 130 17 50 60 50 107 c 0
 50 124 61 136 77 136 c 0
 99 136 143 73 183 60 c 1
 189 129 186 194 193 263 c 1
 123 290 59 323 59 376 c 0
 59 454 110 536 194 553 c 1
 194 577 l 1xec
337 110 m 0
 337 183 306 213 247 240 c 1
 240 177 244 116 239 51 c 1
 279 54 337 64 337 110 c 0
117 383 m 1
 119 351 163 333 199 321 c 1
 200 390 l 2
 200 418 202 440 202 465 c 0
 202 474 202 484 201 494 c 1
 149 481 117 424 117 383 c 1
EndSplineSet
Substitution2: "'smcp' Lowercase to Small Capitals in Latin lookup 0 subtable" dollar.smcp
EndChar

StartChar: cent
Encoding: 162 162 118
Width: 354
Flags: W
HStem: 0 74<119.693 166> 300 89<227.286 301.531>
VStem: 21 72<98.4186 268.046> 164 56<86 310> 177 54<387.233 463.698>
LayerCount: 2
Fore
SplineSet
177 437 m 1xe8
 181 456 195 465 207 465 c 0
 220 465 231 456 231 438 c 0
 231 437 231 435 231 433 c 2xe8
 227 389 l 1
 253 387 311 383 311 357 c 0
 311 339 299 300 276 300 c 0
 263 300 241 311 223 316 c 1
 221 264 220 216 220 169 c 0xf0
 220 141 221 114 221 86 c 1
 250 99 274 117 296 117 c 0
 310 117 319 106 319 93 c 0
 319 63 273 29 224 11 c 1
 229 -39 l 1
 227 -59 214 -70 200 -70 c 0
 172 -70 169 -37 169 0 c 1
 73 0 21 77 21 196 c 0
 21 296 93 361 170 381 c 1
 173 400 176 419 177 437 c 1xe8
93 196 m 0
 93 124 106 79 166 74 c 1
 164 111 164 146 164 182 c 0xf0
 164 224 165 265 167 310 c 1
 126 293 93 253 93 196 c 0
EndSplineSet
EndChar

StartChar: sterling
Encoding: 163 163 119
Width: 459
Flags: W
HStem: -4 65<216.105 356.561> 223 69<33.247 119.694 187 299.483> 494 59<210.911 328.399>
VStem: 119 70<113.752 222.201 289.544 447.269>
LayerCount: 2
Fore
SplineSet
374 100 m 1
 383 108 394 112 403 112 c 0
 417 112 428 103 428 88 c 0
 428 82 426 76 423 69 c 1
 386 20 344 -4 296 -4 c 0
 275 -4 252 0 229 10 c 0
 206 19 169 30 149 49 c 0
 148 49 147 49 146 49 c 0
 108 49 79 -4 56 -4 c 0
 45 -4 33 11 33 26 c 0
 33 70 111 107 119 120 c 1
 119 141 119 164 119 188 c 0
 119 201 124 223 110 223 c 0
 94 223 85 221 63 221 c 1
 40 224 31 239 31 261 c 0
 31 279 44 292 63 292 c 0
 66 292 70 292 74 291 c 2
 120 289 l 1
 120 317 l 2
 120 344 114 376 115 408 c 1
 115 506 182 553 260 553 c 0
 294 553 399 530 399 474 c 1
 395 455 379 445 364 445 c 0
 354 445 345 450 340 459 c 0
 326 482 299 494 271 494 c 0
 240 494 208 479 191 449 c 1
 187 412 184 380 184 343 c 0
 184 325 183 305 186 287 c 1
 186 287 224 291 256 291 c 0
 291 291 304 280 304 262 c 0
 304 245 290 227 273 223 c 1
 187 223 l 1
 188 206 189 186 189 167 c 0
 189 148 188 129 186 113 c 1
 208 79 249 61 289 61 c 0
 323 61 355 74 374 100 c 1
EndSplineSet
Substitution2: "'smcp' Lowercase to Small Capitals in Latin lookup 0 subtable" sterling.smcp
EndChar

StartChar: currency
Encoding: 164 164 120
Width: 577
Flags: W
HStem: 68 63<218.297 364.515> 409 65<205.82 352.854>
VStem: 86 64<200.181 350.749> 417 66<184.655 345.238>
LayerCount: 2
Fore
SplineSet
493 76 m 1
 497 70 498 63 498 57 c 0
 498 37 481 19 462 19 c 0
 454 19 446 22 439 29 c 2
 376 93 l 1
 345 76 310 68 275 68 c 0
 243 68 211 75 183 90 c 1
 141 46 118 21 97 21 c 0
 84 21 73 29 73 45 c 0
 73 65 101 97 134 129 c 1
 107 160 89 201 86 267 c 1
 87 317 104 370 139 409 c 1
 101 450 79 476 80 474 c 1
 74 480 72 488 72 495 c 0
 72 514 91 532 111 532 c 0
 138 532 173 477 197 451 c 1
 228 466 260 474 291 474 c 0
 326 474 360 464 389 447 c 1
 416 476 450 534 482 534 c 0
 497 534 507 523 507 509 c 0
 507 502 505 495 500 487 c 1
 491 477 481 469 434 411 c 1
 464 377 483 331 483 277 c 0
 483 217 463 170 431 136 c 1
 493 76 l 1
150 277 m 1
 155 180 225 131 293 131 c 0
 356 131 417 175 417 264 c 0
 417 358 348 409 278 409 c 0
 215 409 154 367 150 277 c 1
EndSplineSet
EndChar

StartChar: yen
Encoding: 165 165 121
Width: 387
Flags: W
HStem: 166 58<75.1711 147> 534 20G<42 61.5 316 342>
VStem: 147 59<6.60107 76 146 166 233 275.673>
LayerCount: 2
Fore
SplineSet
74 154 m 1
 54 157 45 170 45 183 c 0
 45 212 56 206 147 224 c 1
 147 235 148 246 148 257 c 0
 148 263 148 269 147 276 c 1
 100 344 57 433 20 507 c 0
 18 511 17 515 17 519 c 0
 17 538 34 554 50 554 c 0
 73 554 117 458 139 421 c 0
 148 406 170 359 181 344 c 1
 219 411 l 2
 240 448 297 555 335 555 c 0
 349 555 359 546 359 531 c 0
 359 526 358 521 356 516 c 1
 299 446 251 351 207 270 c 1
 207 233 l 1
 236 237 257 243 280 244 c 1
 296 239 303 228 303 216 c 0
 303 182 239 183 206 176 c 1
 206 166 206 156 206 146 c 1
 244 154 253 157 276 157 c 0
 293 157 304 144 304 130 c 0
 304 109 265 93 204 86 c 1
 204 70 204 54 206 37 c 1
 202 19 186 2 171 2 c 0
 143 2 147 50 147 76 c 1
 123 69 104 69 80 61 c 0
 77 60 74 60 71 60 c 0
 56 60 47 74 47 88 c 0
 47 102 55 117 71 119 c 1
 147 136 l 1
 147 144 147 157 147 166 c 1
 123 161 99 156 74 154 c 1
EndSplineSet
Substitution2: "'smcp' Lowercase to Small Capitals in Latin lookup 0 subtable" yen.smcp
EndChar

StartChar: quotesingle
Encoding: 39 39 122
Width: 137
Flags: W
HStem: 546 180<44.0984 92.3455>
VStem: 37 57<547.147 663.396> 43 58<580.173 724.546>
LayerCount: 2
Fore
SplineSet
43 700 m 1xa0
 46 717 59 726 71 726 c 0
 102 726 101 683 101 665 c 0xa0
 100 630 97 646 94 577 c 0
 93 557 79 546 66 546 c 0
 53 546 40 556 37 576 c 1xc0
 39 656 41 620 43 700 c 1xa0
EndSplineSet
EndChar

StartChar: quotedbl
Encoding: 34 34 123
Width: 253
Flags: W
HStem: 456 180<44.0984 92.3455>
VStem: 37 57<457.147 573.396> 43 58<490.173 634.546> 139 57<470.061 625.841>
LayerCount: 2
Fore
SplineSet
43 610 m 1xb0
 46 627 59 636 71 636 c 0
 102 636 101 593 101 575 c 0xb0
 100 540 97 556 94 487 c 0
 93 467 79 456 66 456 c 0
 53 456 40 466 37 486 c 1xd0
 39 566 41 530 43 610 c 1xb0
144 601 m 1
 147 619 160 629 173 629 c 0
 184 629 196 620 200 604 c 1
 200 526 196 580 196 500 c 0
 196 479 180 469 167 469 c 0
 154 469 141 477 139 497 c 1
 139 576 144 523 144 601 c 1
EndSplineSet
EndChar

StartChar: quoteleft
Encoding: 8216 8216 124
Width: 159
Flags: W
HStem: 473 160<58.0051 88.9008>
VStem: 33 57<524.022 632.057>
LayerCount: 2
Fore
SplineSet
90 607 m 1
 90 573 93 544 116 519 c 1
 118 513 119 508 119 502 c 0
 119 486 110 473 91 473 c 0
 44 473 33 571 33 609 c 1
 39 624 50 633 61 633 c 0
 74 633 87 624 90 607 c 1
EndSplineSet
EndChar

StartChar: quoteright
Encoding: 8217 8217 125
Width: 184
Flags: W
HStem: 473 160<67.0745 97.207>
VStem: 66 57<524.022 631.894>
LayerCount: 2
Fore
SplineSet
66 607 m 1
 69 624 81 633 94 633 c 0
 106 633 117 624 123 609 c 1
 123 571 111 473 64 473 c 0
 45 473 37 486 37 502 c 0
 37 508 38 513 40 519 c 1
 63 544 66 573 66 607 c 1
EndSplineSet
EndChar

StartChar: guillemotleft
Encoding: 171 171 126
Width: 399
Flags: W
HStem: 64 292
VStem: 46 309
LayerCount: 2
Fore
SplineSet
154 339 m 0
 160 346 186 356 193 356 c 0
 208 356 216 345 216 331 c 0
 216 293 124 230 106 206 c 1
 134 180 194 133 194 99 c 0
 194 80 183 69 167 69 c 0
 160 69 130 90 124 99 c 0
 84 154 46 161 46 203 c 0
 46 261 119 294 154 339 c 0
304 343 m 1
 311 349 320 351 327 351 c 0
 341 351 355 342 355 330 c 0
 355 304 286 228 259 199 c 1
 276 166 350 126 350 91 c 0
 350 76 339 64 321 64 c 0
 297 64 281 90 266 107 c 0
 253 121 201 156 197 203 c 1
 197 227 287 324 304 343 c 1
EndSplineSet
EndChar

StartChar: guillemotright
Encoding: 187 187 127
Width: 424
Flags: W
HStem: 56 291
VStem: 50 310
LayerCount: 2
Fore
SplineSet
251 330 m 0
 287 286 360 253 360 194 c 0
 360 153 321 146 281 90 c 1
 276 81 246 60 239 60 c 0
 223 60 211 71 211 90 c 0
 211 124 271 171 300 197 c 1
 281 221 194 281 190 320 c 1
 190 336 196 347 213 347 c 0
 220 347 246 337 251 330 c 0
101 334 m 0
 119 316 209 219 209 194 c 1
 204 147 153 113 140 99 c 0
 124 81 109 56 84 56 c 0
 67 56 56 67 56 83 c 0
 56 117 130 157 147 190 c 1
 121 217 50 295 50 321 c 0
 50 333 65 343 79 343 c 0
 86 343 94 340 101 334 c 0
EndSplineSet
EndChar

StartChar: parenleft
Encoding: 40 40 128
Width: 279
Flags: W
VStem: 50 64<138.145 450.943>
LayerCount: 2
Fore
SplineSet
196 651 m 0
 201 654 206 655 212 655 c 0
 229 655 245 641 245 629 c 1
 246 621 167 515 157 497 c 0
 113 420 114 343 114 273 c 0
 114 210 141 89 173 54 c 0
 196 29 244 -22 244 -41 c 0
 244 -56 220 -61 206 -61 c 0
 199 -61 190 -59 181 -51 c 0
 70 60 50 157 50 274 c 0
 50 347 50 429 97 516 c 0
 130 576 173 637 196 651 c 0
EndSplineSet
EndChar

StartChar: parenright
Encoding: 41 41 129
Width: 304
Flags: W
VStem: 183 63<148.667 460.891>
LayerCount: 2
Fore
SplineSet
100 -57 m 0
 94 -61 88 -62 82 -62 c 0
 64 -62 49 -47 49 -35 c 0
 49 -29 128 77 139 100 c 1
 183 176 183 253 183 324 c 0
 183 389 156 511 123 546 c 0
 99 571 50 622 50 643 c 0
 50 656 73 661 90 661 c 0
 97 661 106 660 111 653 c 1
 226 540 246 441 246 323 c 0
 246 249 246 166 199 79 c 0
 166 19 120 -43 100 -57 c 0
EndSplineSet
EndChar

StartChar: bracketleft
Encoding: 91 91 130
Width: 253
Flags: W
HStem: -56 68<117.52 192.283> 566 67<117.471 211.334>
VStem: 51 68<11 566> 53 147<-45.5009 7.125>
LayerCount: 2
Fore
SplineSet
130 633 m 0xd0
 153 633 214 636 214 603 c 0
 214 555 158 569 117 566 c 1
 119 504 119 443 119 381 c 0xe0
 119 257 117 134 117 11 c 1
 122 12 130 12 138 12 c 0
 165 12 200 7 200 -12 c 0
 200 -53 147 -56 120 -56 c 0
 94 -56 53 -56 53 -24 c 0xd0
 53 128 51 139 51 260 c 0
 51 280 51 303 51 331 c 2xe0
 53 584 l 2
 53 627 84 633 130 633 c 0xd0
EndSplineSet
EndChar

StartChar: bracketright
Encoding: 93 93 131
Width: 247
Flags: W
HStem: -56 68<58.1785 133.483> 566 67<39.6094 133.554>
VStem: 51 148<-45.6016 7.34428> 133 67<11 566>
LayerCount: 2
Fore
SplineSet
121 633 m 0xd0
 167 633 199 627 199 584 c 2xe0
 200 331 l 2
 200 292 200 262 200 237 c 0xd0
 200 137 199 117 199 -24 c 0
 199 -56 157 -56 131 -56 c 0
 105 -56 51 -53 51 -13 c 0xe0
 51 7 85 12 113 12 c 0
 121 12 129 12 134 11 c 1
 134 134 133 257 133 381 c 0
 133 443 133 504 134 566 c 1
 96 569 37 556 37 601 c 0
 37 636 96 633 121 633 c 0xd0
EndSplineSet
EndChar

StartChar: braceleft
Encoding: 123 123 132
Width: 283
Flags: W
HStem: 552 65<181.56 257.444>
VStem: 96 65<22.8246 136.222> 110 69<458.053 569> 119 64<55.6538 223.494> 127 63<379.646 545.27>
LayerCount: 2
Fore
SplineSet
196 617 m 0xa0
 216 617 260 619 260 589 c 0
 260 559 238 552 214 552 c 0
 205 552 197 553 189 554 c 0
 182 554 179 549 179 538 c 0xa0
 179 516 190 478 190 461 c 0x88
 190 396 176 356 123 303 c 1
 157 260 177 244 183 179 c 1x90
 183 154 161 93 161 56 c 0
 161 -10 250 43 250 -4 c 0
 250 -20 234 -40 216 -44 c 1
 123 -44 96 -1 96 41 c 0xc0
 96 69 119 110 119 154 c 0x90
 119 233 47 264 47 301 c 0
 47 341 127 360 127 453 c 0x88
 127 480 110 546 110 554 c 0
 110 584 131 617 196 617 c 0xa0
EndSplineSet
EndChar

StartChar: braceright
Encoding: 125 125 133
Width: 274
Flags: W
HStem: 554 63<38.9297 115.44>
VStem: 107 63<379.646 545.77> 114 65<50.0369 223.494> 118 69<458.076 569> 136 65<22.8246 164.871>
LayerCount: 2
Fore
SplineSet
101 617 m 0x90
 166 617 187 584 187 554 c 0x90
 187 546 170 480 170 453 c 0xc0
 170 360 250 341 250 301 c 0
 250 264 179 233 179 154 c 0xa0
 179 110 201 69 201 41 c 0
 201 -1 174 -44 81 -44 c 1
 63 -40 47 -20 47 -4 c 0
 47 43 136 -10 136 56 c 0x88
 136 93 114 154 114 179 c 1xa0
 120 244 140 260 174 303 c 1
 121 356 107 396 107 461 c 0xc0
 107 479 118 517 118 539 c 0
 118 548 116 554 110 554 c 0
 101 554 93 552 84 552 c 0
 59 552 37 559 37 589 c 0
 37 619 81 617 101 617 c 0x90
EndSplineSet
EndChar

StartChar: equal
Encoding: 61 61 134
Width: 477
Flags: W
HStem: 170 56<93.275 392.013> 310 54<99.2396 392.314>
VStem: 91 304<173.179 225.633 310.413 360.6>
LayerCount: 2
Fore
SplineSet
117 310 m 0
 103 310 97 319 97 330 c 0
 97 344 107 362 121 364 c 1
 194 363 232 361 279 361 c 0
 306 361 337 362 379 364 c 1
 390 362 395 354 395 345 c 0
 395 331 385 314 373 310 c 1
 332 308 302 307 275 307 c 0
 228 307 190 309 117 310 c 0
110 170 m 0
 96 170 91 180 91 191 c 0
 91 206 100 223 114 226 c 1
 233 227 259 227 377 227 c 1
 390 226 395 217 395 206 c 0
 395 192 386 176 373 173 c 1
 254 173 229 171 110 170 c 0
EndSplineSet
EndChar

StartChar: plus
Encoding: 43 43 135
Width: 400
Flags: W
HStem: 167 64<35.7282 169 234 357.005>
VStem: 167 66<17 167 231 372.198>
LayerCount: 2
Fore
SplineSet
57 167 m 2
 37 167 29 177 29 189 c 0
 29 206 45 228 67 231 c 1
 170 231 l 1
 171 284 155 380 212 380 c 0
 223 380 232 373 236 356 c 1
 236 314 234 273 234 231 c 1
 339 231 l 1
 356 228 363 218 363 208 c 0
 363 191 348 172 329 167 c 1
 233 167 l 1
 230 110 247 10 189 10 c 0
 177 10 167 19 167 39 c 0
 167 81 167 124 169 167 c 1
 57 167 l 2
EndSplineSet
EndChar

StartChar: less
Encoding: 60 60 136
Width: 330
Flags: W
HStem: 365 20G<262.5 274>
VStem: 22 274
LayerCount: 2
Fore
SplineSet
249 381 m 0
 255 384 260 385 265 385 c 0
 283 385 296 370 296 354 c 0
 296 347 294 340 289 334 c 1
 226 286 163 243 99 196 c 1
 164 147 229 111 291 61 c 1
 295 55 297 49 297 43 c 0
 297 26 280 12 262 12 c 0
 258 12 254 12 250 14 c 0
 179 71 104 114 34 171 c 0
 26 178 22 187 22 196 c 0
 22 205 27 215 36 221 c 1
 107 280 186 340 249 381 c 0
EndSplineSet
EndChar

StartChar: greater
Encoding: 62 62 137
Width: 334
Flags: W
HStem: 365 20G<50 59.5>
VStem: 36 276
LayerCount: 2
Fore
SplineSet
74 381 m 1
 143 323 224 280 296 221 c 0
 305 213 312 202 312 193 c 0
 312 186 309 180 303 174 c 0
 233 117 154 71 84 14 c 0
 80 12 75 12 71 12 c 0
 52 12 36 27 36 45 c 0
 36 51 37 57 41 63 c 1
 106 111 176 154 239 203 c 1
 176 249 109 290 46 337 c 1
 39 346 35 355 35 363 c 0
 35 376 43 385 57 385 c 0
 62 385 67 384 74 381 c 1
EndSplineSet
EndChar

StartChar: divide
Encoding: 247 247 138
Width: 433
Flags: W
HStem: 49 78<172.328 243.558> 190 61<39.7587 386.128> 311 79<174.916 243.844>
VStem: 168 83<55.9574 121.467 317.51 383.391>
LayerCount: 2
Fore
SplineSet
67 194 m 1
 47 197 37 210 37 223 c 0
 37 237 49 250 69 251 c 1
 103 248 134 247 163 247 c 0
 226 247 284 252 364 253 c 1
 380 247 389 236 389 224 c 0
 389 211 380 199 363 196 c 1
 285 196 227 190 159 190 c 0
 130 190 100 191 67 194 c 1
220 127 m 1
 240 123 250 110 251 87 c 1
 244 64 229 49 204 49 c 0
 180 49 168 65 168 85 c 0
 168 121 197 127 220 127 c 1
213 390 m 0
 230 390 250 374 250 354 c 0
 250 334 234 311 207 311 c 0
 187 311 171 326 171 354 c 0
 171 374 191 390 213 390 c 0
EndSplineSet
EndChar

StartChar: minus
Encoding: 8722 8722 139
Width: 394
Flags: W
HStem: 167 65<35.1424 357.005>
LayerCount: 2
Fore
SplineSet
57 167 m 0
 37 167 29 177 29 189 c 0
 29 245 120 232 165 232 c 0
 201 232 249 232 339 231 c 1
 356 228 363 218 363 208 c 0
 363 191 348 172 329 167 c 1
 194 167 200 167 57 167 c 0
EndSplineSet
EndChar

StartChar: logicalnot
Encoding: 172 172 140
Width: 404
Flags: W
HStem: 167 65<35.1424 304>
VStem: 304 57<31.2378 167>
LayerCount: 2
Fore
SplineSet
57 167 m 2
 37 167 29 177 29 189 c 0
 29 245 120 232 165 232 c 0
 201 232 249 232 339 231 c 1
 361 227 359 214 361 197 c 1
 361 153 360 106 360 61 c 1
 358 41 345 30 332 30 c 0
 319 30 306 40 303 60 c 1
 303 94 303 131 304 167 c 1
 57 167 l 2
EndSplineSet
EndChar

StartChar: plusminus
Encoding: 177 177 141
Width: 396
Flags: W
HStem: -100 63<32.6094 354.922> 167 64<35.7282 169 234 357.005>
VStem: 167 66<17 167 231 372.198>
LayerCount: 2
Fore
SplineSet
57 167 m 2
 37 167 29 177 29 189 c 0
 29 206 45 228 67 231 c 1
 170 231 l 1
 171 284 155 380 212 380 c 0
 223 380 232 373 236 356 c 1
 236 314 234 273 234 231 c 1
 339 231 l 1
 356 228 363 218 363 208 c 0
 363 191 348 172 329 167 c 1
 233 167 l 1
 230 110 247 10 189 10 c 0
 177 10 167 19 167 39 c 0
 167 81 167 124 169 167 c 1
 57 167 l 2
323 -100 m 1
 61 -100 l 2
 39 -100 30 -86 30 -73 c 0
 30 -51 44 -41 71 -37 c 1
 326 -37 l 1
 346 -43 357 -54 357 -69 c 0
 357 -89 346 -94 323 -100 c 1
EndSplineSet
EndChar

StartChar: multiply
Encoding: 215 215 142
Width: 409
Flags: W
HStem: 70 314
VStem: 50 304
LayerCount: 2
Fore
SplineSet
199 261 m 1
 240 303 304 384 336 384 c 0
 351 384 354 375 354 361 c 0
 354 314 278 280 231 223 c 1
 256 197 282 178 307 154 c 0
 323 138 353 123 353 94 c 0
 353 70 333 70 314 70 c 0
 307 70 300 79 200 181 c 1
 176 151 114 71 84 71 c 0
 67 71 56 83 56 100 c 0
 56 127 143 201 161 221 c 1
 107 274 50 331 50 354 c 0
 50 371 61 383 77 383 c 0
 101 383 163 299 199 261 c 1
EndSplineSet
EndChar

StartChar: onesuperior
Encoding: 185 185 143
Width: 200
Flags: W
HStem: 386 210<95.8125 138.289>
LayerCount: 2
Fore
SplineSet
54 496 m 1
 37 496 30 504 30 521 c 0
 30 544 89 596 127 596 c 0
 146 596 157 584 157 554 c 0
 157 511 145 459 143 423 c 0
 142 403 122 386 110 386 c 0
 97 386 84 396 81 416 c 1
 83 449 90 480 94 513 c 1
 89 507 76 504 54 496 c 1
EndSplineSet
EndChar

StartChar: twosuperior
Encoding: 178 178 144
Width: 197
Flags: W
HStem: 390 54<96 152.157> 531 65<54.6115 98.9225>
VStem: 99 65<490.003 560.5>
LayerCount: 2
Fore
SplineSet
96 531 m 1
 83 531 67 519 54 519 c 0
 40 519 26 529 26 547 c 0
 26 577 69 596 96 596 c 0
 127 596 164 584 164 537 c 0
 164 504 120 464 96 444 c 1
 118 444 135 451 153 451 c 0
 170 451 177 435 177 424 c 0
 177 383 128 390 90 390 c 0
 60 390 24 393 24 421 c 0
 24 464 99 483 99 517 c 0
 99 522 98 526 96 531 c 1
EndSplineSet
EndChar

StartChar: threesuperior
Encoding: 179 179 145
Width: 177
Flags: W
HStem: 389 61<21.9951 99.8421> 538 58<28.4015 99.8067>
VStem: 64 90<499 554>
LayerCount: 2
Fore
SplineSet
100 529 m 1
 96 536 84 538 73 538 c 0
 66 538 58 537 53 537 c 0
 39 537 27 547 27 563 c 0
 27 593 51 596 71 596 c 0
 109 596 154 587 154 554 c 0
 154 541 151 510 127 497 c 1
 150 493 160 463 160 449 c 0
 160 430 139 389 96 389 c 0
 69 389 14 400 14 427 c 0
 14 441 26 454 46 456 c 1
 57 454 68 450 77 450 c 0
 86 450 94 454 100 466 c 1
 76 477 64 480 64 499 c 0
 64 511 66 511 100 529 c 1
EndSplineSet
EndChar

StartChar: Aacute
Encoding: 193 193 146
Width: 407
Flags: W
HStem: -1 21G<351 368> 203 63<140.88 269> 529 20G<168.5 227.5> 600 141<176 242>
VStem: 20 60<1.75806 130.833>
LayerCount: 2
Fore
SplineSet
80 17 m 0
 78 7 64 1 50 1 c 0
 35 1 20 8 20 25 c 0
 20 105 121 549 216 549 c 0
 239 549 310 366 344 229 c 0
 360 164 379 91 390 29 c 1
 390 9 377 -1 359 -1 c 0
 343 -1 327 8 323 26 c 2
 283 203 l 1
 233 203 173 204 121 219 c 1
 103 144 90 89 80 17 c 0
207 457 m 1
 177 401 156 346 139 284 c 1
 179 270 226 266 269 266 c 1
 251 331 233 394 207 457 c 1
217 727 m 1
 223 737 233 741 242 741 c 0
 256 741 272 729 272 704 c 1
 257 674 215 600 176 600 c 0
 156 600 146 615 146 626 c 0
 146 635 151 645 159 654 c 1
 189 670 203 696 217 727 c 1
EndSplineSet
Substitution2: "'c2sc' Capitals to Small Capitals in Latin lookup 1 subtable" Aacute.smcp
EndChar

StartChar: aacute
Encoding: 225 225 147
Width: 373
Flags: W
HStem: 0 62<133.075 222.897> 313 73<142.835 245.423> 421 141<160 226>
VStem: 47 64<85.1907 276.827> 260 66<101.886 299.438>
LayerCount: 2
Fore
SplineSet
339 11 m 1
 336 -2 318 -9 301 -9 c 0
 262 -9 268 26 266 41 c 1
 240 14 202 0 165 0 c 0
 74 0 47 76 47 182 c 0
 47 270 73 386 194 386 c 0
 218 386 241 381 260 374 c 1
 267 384 280 389 292 389 c 0
 333 389 326 324 326 282 c 0
 326 244 324 204 320 170 c 1
 323 111 327 69 339 11 c 1
244 113 m 1
 253 139 260 179 260 216 c 0
 260 275 248 313 203 313 c 0
 192 313 180 312 170 311 c 0
 137 307 111 241 111 214 c 0
 111 204 111 192 111 181 c 0
 111 128 123 62 172 62 c 0
 201 62 233 86 244 113 c 1
201 548 m 1
 207 558 217 562 226 562 c 0
 240 562 256 550 256 525 c 1
 241 495 199 421 160 421 c 0
 140 421 130 436 130 447 c 0
 130 456 135 466 143 475 c 1
 173 491 187 517 201 548 c 1
EndSplineSet
Substitution2: "'smcp' Lowercase to Small Capitals in Latin lookup 0 subtable" Aacute.smcp
EndChar

StartChar: Acircumflex
Encoding: 194 194 148
Width: 407
Flags: W
HStem: -1 21G<351 368> 203 63<140.88 269> 529 20G<168.5 227.5>
VStem: 20 60<1.75806 130.833>
LayerCount: 2
Fore
SplineSet
80 17 m 0
 78 7 64 1 50 1 c 0
 35 1 20 8 20 25 c 0
 20 105 121 549 216 549 c 0
 239 549 310 366 344 229 c 0
 360 164 379 91 390 29 c 1
 390 9 377 -1 359 -1 c 0
 343 -1 327 8 323 26 c 2
 283 203 l 1
 233 203 173 204 121 219 c 1
 103 144 90 89 80 17 c 0
207 457 m 1
 177 401 156 346 139 284 c 1
 179 270 226 266 269 266 c 1
 251 331 233 394 207 457 c 1
211 649 m 1
 196 637 157 594 137 594 c 0
 120 594 110 610 110 627 c 0
 110 643 187 706 213 706 c 0
 233 706 314 654 314 624 c 0
 314 607 296 596 281 596 c 0
 273 596 223 636 211 649 c 1
EndSplineSet
Substitution2: "'c2sc' Capitals to Small Capitals in Latin lookup 1 subtable" Acircumflex.smcp
EndChar

StartChar: acircumflex
Encoding: 226 226 149
Width: 373
Flags: W
HStem: 0 62<133.075 222.897> 313 73<142.835 245.423> 536 20G<179 202>
VStem: 47 64<85.1907 276.827> 260 66<101.886 299.438>
LayerCount: 2
Fore
SplineSet
339 11 m 1
 336 -2 318 -9 301 -9 c 0
 262 -9 268 26 266 41 c 1
 240 14 202 0 165 0 c 0
 74 0 47 76 47 182 c 0
 47 270 73 386 194 386 c 0
 218 386 241 381 260 374 c 1
 267 384 280 389 292 389 c 0
 333 389 326 324 326 282 c 0
 326 244 324 204 320 170 c 1
 323 111 327 69 339 11 c 1
244 113 m 1
 253 139 260 179 260 216 c 0
 260 275 248 313 203 313 c 0
 192 313 180 312 170 311 c 0
 137 307 111 241 111 214 c 0
 111 204 111 192 111 181 c 0
 111 128 123 62 172 62 c 0
 201 62 233 86 244 113 c 1
190 499 m 1
 175 487 136 444 116 444 c 0
 99 444 89 460 89 477 c 0
 89 493 166 556 192 556 c 0
 212 556 293 504 293 474 c 0
 293 457 275 446 260 446 c 0
 252 446 202 486 190 499 c 1
EndSplineSet
Substitution2: "'smcp' Lowercase to Small Capitals in Latin lookup 0 subtable" Acircumflex.smcp
EndChar

StartChar: Adieresis
Encoding: 196 196 150
Width: 437
Flags: W
HStem: -1 21G<371 388> 203 63<160.88 289> 529 20G<188.5 247.5> 600 77<129.22 199.643 266.79 337.336>
VStem: 40 60<1.75806 130.833> 121 83<603.223 669.404> 263 82<607.133 673.606>
LayerCount: 2
Fore
SplineSet
100 17 m 0
 98 7 84 1 70 1 c 0
 55 1 40 8 40 25 c 0
 40 105 141 549 236 549 c 0
 259 549 330 366 364 229 c 0
 380 164 399 91 410 29 c 1
 410 9 397 -1 379 -1 c 0
 363 -1 347 8 343 26 c 2
 303 203 l 1
 253 203 193 204 141 219 c 1
 123 144 110 89 100 17 c 0
227 457 m 1
 197 401 176 346 159 284 c 1
 199 270 246 266 289 266 c 1
 271 331 253 394 227 457 c 1
308 677 m 0
 325 677 344 668 345 645 c 1
 341 614 320 600 300 600 c 0
 281 600 263 614 263 640 c 0
 263 663 275 677 308 677 c 0
168 678 m 0
 188 678 203 661 204 635 c 1
 200 611 180 597 158 597 c 0
 133 597 124 614 121 630 c 1
 121 655 144 678 168 678 c 0
EndSplineSet
Substitution2: "'c2sc' Capitals to Small Capitals in Latin lookup 1 subtable" Adieresis.smcp
EndChar

StartChar: adieresis
Encoding: 228 228 151
Width: 393
Flags: W
HStem: 0 62<152.075 241.897> 313 73<161.835 264.423> 446 77<118.22 188.643 255.79 326.336>
VStem: 66 64<85.1907 276.827> 110 83<449.223 515.404> 252 82<453.133 519.606> 279 66<101.886 299.438>
LayerCount: 2
Fore
SplineSet
358 11 m 1xf2
 355 -2 337 -9 320 -9 c 0
 281 -9 287 26 285 41 c 1
 259 14 221 0 184 0 c 0
 93 0 66 76 66 182 c 0
 66 270 92 386 213 386 c 0
 237 386 260 381 279 374 c 1
 286 384 299 389 311 389 c 0
 352 389 345 324 345 282 c 0
 345 244 343 204 339 170 c 1
 342 111 346 69 358 11 c 1xf2
263 113 m 1
 272 139 279 179 279 216 c 0
 279 275 267 313 222 313 c 0
 211 313 199 312 189 311 c 0
 156 307 130 241 130 214 c 0
 130 204 130 192 130 181 c 0
 130 128 142 62 191 62 c 0
 220 62 252 86 263 113 c 1
297 523 m 0
 314 523 333 514 334 491 c 1
 330 460 309 446 289 446 c 0
 270 446 252 460 252 486 c 0xe4
 252 509 264 523 297 523 c 0
157 524 m 0
 177 524 192 507 193 481 c 1
 189 457 169 443 147 443 c 0
 122 443 113 460 110 476 c 1xe8
 110 501 133 524 157 524 c 0
EndSplineSet
Substitution2: "'smcp' Lowercase to Small Capitals in Latin lookup 0 subtable" Adieresis.smcp
EndChar

StartChar: Agrave
Encoding: 192 192 152
Width: 407
Flags: W
HStem: -1 21G<351 368> 203 63<140.88 269> 529 20G<168.5 227.5> 598 58<219.777 285.406>
VStem: 20 60<1.75806 130.833>
LayerCount: 2
Fore
SplineSet
80 17 m 0
 78 7 64 1 50 1 c 0
 35 1 20 8 20 25 c 0
 20 105 121 549 216 549 c 0
 239 549 310 366 344 229 c 0
 360 164 379 91 390 29 c 1
 390 9 377 -1 359 -1 c 0
 343 -1 327 8 323 26 c 2
 283 203 l 1
 233 203 173 204 121 219 c 1
 103 144 90 89 80 17 c 0
207 457 m 1
 177 401 156 346 139 284 c 1
 179 270 226 266 269 266 c 1
 251 331 233 394 207 457 c 1
189 707 m 1
 212 682 232 662 266 656 c 1
 278 648 287 637 287 626 c 0
 287 613 274 598 255 598 c 0
 208 598 141 667 141 685 c 0
 141 704 155 715 170 715 c 0
 176 715 183 712 189 707 c 1
EndSplineSet
Substitution2: "'c2sc' Capitals to Small Capitals in Latin lookup 1 subtable" Agrave.smcp
EndChar

StartChar: agrave
Encoding: 224 224 153
Width: 373
Flags: W
HStem: 0 62<133.075 222.897> 313 73<142.835 245.423> 439 58<187.777 253.406> 536 20G<130.5 141>
VStem: 47 64<85.1907 276.827> 260 66<101.886 299.438>
LayerCount: 2
Fore
SplineSet
339 11 m 1
 336 -2 318 -9 301 -9 c 0
 262 -9 268 26 266 41 c 1
 240 14 202 0 165 0 c 0
 74 0 47 76 47 182 c 0
 47 270 73 386 194 386 c 0
 218 386 241 381 260 374 c 1
 267 384 280 389 292 389 c 0
 333 389 326 324 326 282 c 0
 326 244 324 204 320 170 c 1
 323 111 327 69 339 11 c 1
244 113 m 1
 253 139 260 179 260 216 c 0
 260 275 248 313 203 313 c 0
 192 313 180 312 170 311 c 0
 137 307 111 241 111 214 c 0
 111 204 111 192 111 181 c 0
 111 128 123 62 172 62 c 0
 201 62 233 86 244 113 c 1
157 548 m 1
 180 523 200 503 234 497 c 1
 246 489 255 478 255 467 c 0
 255 454 242 439 223 439 c 0
 176 439 109 508 109 526 c 0
 109 545 123 556 138 556 c 0
 144 556 151 553 157 548 c 1
EndSplineSet
Substitution2: "'smcp' Lowercase to Small Capitals in Latin lookup 0 subtable" Agrave.smcp
EndChar

StartChar: Aring
Encoding: 197 197 154
Width: 414
Flags: W
HStem: -1 21G<351 368> 203 63<140.88 269> 604 36<186.735 236.763>
VStem: 20 60<1.75806 130.148> 141 42<549.881 601.403> 239 40<550.424 603.433>
LayerCount: 2
Fore
SplineSet
80 17 m 0
 78 7 64 1 50 1 c 0
 35 1 20 8 20 25 c 0
 20 97 87 395 183 504 c 1
 156 516 141 544 141 570 c 0
 141 614 177 640 219 640 c 0
 254 640 279 614 279 567 c 1
 276 537 261 514 237 504 c 1
 281 457 316 340 344 229 c 0
 360 164 379 91 390 29 c 1
 390 9 377 -1 359 -1 c 0
 343 -1 327 8 323 26 c 2
 283 203 l 1
 233 203 173 204 121 219 c 1
 103 144 90 89 80 17 c 0
207 457 m 1
 177 401 156 346 139 284 c 1
 179 270 226 266 269 266 c 1
 251 331 233 394 207 457 c 1
216 604 m 0
 199 604 183 591 183 574 c 0
 183 563 190 549 209 549 c 0
 226 549 239 555 239 575 c 0
 239 592 229 604 216 604 c 0
EndSplineSet
Substitution2: "'c2sc' Capitals to Small Capitals in Latin lookup 1 subtable" Aring.smcp
EndChar

StartChar: aring
Encoding: 229 229 155
Width: 373
Flags: W
HStem: 0 62<133.075 222.897> 313 73<142.835 245.423> 428 57<174.027 239.23> 557 45<176.368 239.19>
VStem: 47 64<85.1907 276.827> 118 54<486.81 551.458> 242 51<487.585 555.556> 260 66<101.886 299.438>
LayerCount: 2
Fore
SplineSet
339 11 m 1xfd
 336 -2 318 -9 301 -9 c 0
 262 -9 268 26 266 41 c 1
 240 14 202 0 165 0 c 0
 74 0 47 76 47 182 c 0
 47 270 73 386 194 386 c 0
 218 386 241 381 260 374 c 1
 267 384 280 389 292 389 c 0
 333 389 326 324 326 282 c 0
 326 244 324 204 320 170 c 1
 323 111 327 69 339 11 c 1xfd
244 113 m 1
 253 139 260 179 260 216 c 0
 260 275 248 313 203 313 c 0
 192 313 180 312 170 311 c 0
 137 307 111 241 111 214 c 0
 111 204 111 192 111 181 c 0
 111 128 123 62 172 62 c 0
 201 62 233 86 244 113 c 1
204 428 m 1
 151 428 118 480 118 512 c 0
 118 570 164 602 216 602 c 0
 263 602 293 570 293 508 c 1xfe
 289 469 259 430 204 428 c 1
213 557 m 0
 191 557 172 540 172 518 c 0
 172 503 181 485 204 485 c 0
 227 485 242 494 242 522 c 0
 242 541 229 557 213 557 c 0
EndSplineSet
Substitution2: "'smcp' Lowercase to Small Capitals in Latin lookup 0 subtable" Aring.smcp
EndChar

StartChar: Atilde
Encoding: 195 195 156
Width: 407
Flags: W
HStem: -1 21G<351 368> 203 63<140.88 269> 529 20G<168.5 227.5> 592 47<214.152 287.472> 630 52<130.04 203.9>
VStem: 20 60<1.75806 130.833>
LayerCount: 2
Fore
SplineSet
80 17 m 0xe4
 78 7 64 1 50 1 c 0
 35 1 20 8 20 25 c 0
 20 105 121 549 216 549 c 0
 239 549 310 366 344 229 c 0
 360 164 379 91 390 29 c 1
 390 9 377 -1 359 -1 c 0
 343 -1 327 8 323 26 c 2
 283 203 l 1
 233 203 173 204 121 219 c 1
 103 144 90 89 80 17 c 0xe4
207 457 m 1
 177 401 156 346 139 284 c 1
 179 270 226 266 269 266 c 1
 251 331 233 394 207 457 c 1
158 630 m 0xec
 136 630 129 594 108 594 c 0
 100 594 79 604 79 621 c 0
 79 648 129 682 158 682 c 0xec
 193 682 217 652 256 639 c 1
 277 639 295 679 317 679 c 0
 325 679 341 668 341 655 c 0
 341 627 284 592 254 592 c 0xf4
 207 592 188 630 158 630 c 0xec
EndSplineSet
Substitution2: "'c2sc' Capitals to Small Capitals in Latin lookup 1 subtable" Atilde.smcp
EndChar

StartChar: atilde
Encoding: 227 227 157
Width: 373
Flags: W
HStem: 0 62<133.075 222.897> 313 73<142.835 245.423> 443 47<201.152 274.472> 481 52<117.04 190.9>
VStem: 47 64<85.1907 276.827> 260 66<101.886 299.438>
LayerCount: 2
Fore
SplineSet
339 11 m 1xcc
 336 -2 318 -9 301 -9 c 0
 262 -9 268 26 266 41 c 1
 240 14 202 0 165 0 c 0
 74 0 47 76 47 182 c 0
 47 270 73 386 194 386 c 0
 218 386 241 381 260 374 c 1
 267 384 280 389 292 389 c 0
 333 389 326 324 326 282 c 0
 326 244 324 204 320 170 c 1
 323 111 327 69 339 11 c 1xcc
244 113 m 1
 253 139 260 179 260 216 c 0
 260 275 248 313 203 313 c 0
 192 313 180 312 170 311 c 0
 137 307 111 241 111 214 c 0
 111 204 111 192 111 181 c 0
 111 128 123 62 172 62 c 0
 201 62 233 86 244 113 c 1
145 481 m 0xdc
 123 481 116 445 95 445 c 0
 87 445 66 455 66 472 c 0
 66 499 116 533 145 533 c 0xdc
 180 533 204 503 243 490 c 1
 264 490 282 530 304 530 c 0
 312 530 328 519 328 506 c 0
 328 478 271 443 241 443 c 0xec
 194 443 175 481 145 481 c 0xdc
EndSplineSet
Substitution2: "'smcp' Lowercase to Small Capitals in Latin lookup 0 subtable" Atilde.smcp
EndChar

StartChar: Ccedilla
Encoding: 199 199 158
Width: 451
Flags: W
HStem: -256 63<144.533 295.098> -117 53<242.015 297.697> 474 71<201.516 386.452>
VStem: 35 77<150.284 374.591> 174 68<-62.9024 3.28382> 300 60<-187.699 -117.68>
LayerCount: 2
Fore
SplineSet
403 523 m 1
 413 516 418 508 418 499 c 0
 418 479 396 463 373 463 c 1
 349 470 322 474 294 474 c 0
 177 474 112 397 112 262 c 0
 112 170 150 71 235 71 c 0
 283 71 338 99 373 119 c 0
 381 123 387 124 393 124 c 0
 408 124 415 114 415 101 c 0
 415 64 319 17 246 3 c 1
 246 -12 242 -29 242 -41 c 0
 242 -55 247 -64 266 -64 c 0
 269 -64 272 -64 276 -63 c 1
 339 -63 360 -81 360 -126 c 0
 360 -197 314 -256 223 -256 c 0
 177 -256 119 -241 119 -207 c 0
 119 -189 131 -171 153 -171 c 0
 170 -171 199 -193 233 -193 c 0
 280 -193 300 -189 300 -140 c 0
 300 -122 286 -117 270 -117 c 0
 255 -117 237 -121 226 -121 c 0
 184 -121 174 -91 174 -60 c 0
 174 -44 180 -11 184 4 c 1
 78 27 35 163 35 273 c 0
 35 458 149 545 280 545 c 0
 319 545 361 537 403 523 c 1
EndSplineSet
Substitution2: "'c2sc' Capitals to Small Capitals in Latin lookup 1 subtable" Ccedilla.smcp
EndChar

StartChar: ccedilla
Encoding: 231 231 159
Width: 344
Flags: W
HStem: -256 63<91.5333 242.098> -117 53<189.079 244.697> 319 70<144.609 291.158>
VStem: 21 72<100.41 268.004> 121 70<-62.9024 3.28382> 129 62<-59.2377 7.67482> 247 60<-187.699 -117.68>
LayerCount: 2
Fore
SplineSet
220 389 m 0xf6
 239 389 311 386 311 357 c 0
 311 339 299 300 276 300 c 0
 260 300 229 319 210 319 c 0
 150 319 93 271 93 196 c 0
 93 120 109 74 177 74 c 0
 224 74 264 117 296 117 c 0
 310 117 319 106 319 93 c 0
 319 56 251 14 191 3 c 1
 191 1 191 -1 191 -2 c 0
 191 -15 189 -28 189 -39 c 0
 189 -53 193 -64 213 -64 c 0
 216 -64 219 -64 223 -63 c 1
 286 -63 307 -81 307 -126 c 0
 307 -197 261 -256 170 -256 c 0
 124 -256 66 -241 66 -207 c 0
 66 -189 79 -171 100 -171 c 0
 117 -171 146 -193 180 -193 c 0
 227 -193 247 -189 247 -140 c 0
 247 -122 233 -117 217 -117 c 0
 202 -117 184 -121 173 -121 c 0
 131 -121 121 -91 121 -60 c 0xfa
 121 -44 126 -11 129 4 c 1
 60 21 21 93 21 196 c 0
 21 317 126 389 220 389 c 0xf6
EndSplineSet
Substitution2: "'smcp' Lowercase to Small Capitals in Latin lookup 0 subtable" Ccedilla.smcp
EndChar

StartChar: dotlessi
Encoding: 305 305 160
Width: 187
Flags: W
HStem: 374 20G<75.5 113.5>
VStem: 58 71<54.4531 388.269> 69 61<0.248718 243.535>
LayerCount: 2
Fore
SplineSet
61 379 m 0xc0
 62 390 70 394 81 394 c 0
 146 394 131 324 131 277 c 0
 131 215 129 150 129 90 c 0xc0
 129 70 129 51 130 33 c 1
 126 13 109 -5 93 -5 c 0
 83 -5 74 1 69 16 c 1xa0
 65 94 58 200 58 292 c 0
 58 323 59 352 61 379 c 0xc0
EndSplineSet
Substitution2: "'smcp' Lowercase to Small Capitals in Latin lookup 0 subtable" I.smcp
EndChar

StartChar: Eacute
Encoding: 201 201 161
Width: 369
Flags: W
HStem: 0 64<111 321.844> 278 62<110.328 306.204> 483 68<106 352.452> 600 141<172 238>
VStem: 46 65<64 131.875 135.113 278 340 483>
LayerCount: 2
Fore
SplineSet
324 546 m 1
 347 541 356 530 356 518 c 0
 356 469 251 477 209 477 c 0
 182 477 151 479 106 483 c 1
 106 439 106 383 109 340 c 1
 176 339 214 339 279 339 c 1
 301 335 309 324 309 312 c 0
 309 297 295 280 276 276 c 1
 222 276 213 278 132 278 c 0
 124 278 117 278 110 277 c 1
 110 228 113 178 113 133 c 0
 113 109 113 85 111 64 c 1
 211 64 206 67 304 67 c 1
 324 64 331 55 331 44 c 0
 331 27 313 8 293 3 c 1
 187 3 186 0 80 0 c 0
 54 0 46 9 46 31 c 1
 49 56 49 81 49 106 c 0
 49 125 49 145 49 164 c 2
 46 287 l 1
 38 292 34 300 34 309 c 0
 34 318 37 327 43 334 c 1
 41 397 40 450 40 510 c 1
 47 537 60 547 86 551 c 1
 196 546 211 546 324 546 c 1
213 727 m 1
 219 737 229 741 238 741 c 0
 252 741 268 729 268 704 c 1
 253 674 211 600 172 600 c 0
 152 600 142 615 142 626 c 0
 142 635 147 645 155 654 c 1
 185 670 199 696 213 727 c 1
EndSplineSet
Substitution2: "'c2sc' Capitals to Small Capitals in Latin lookup 1 subtable" Eacute.smcp
EndChar

StartChar: eacute
Encoding: 233 233 162
Width: 337
Flags: W
HStem: -3 73<126.612 225.503> 177 59<101 198.503> 328 58<127.131 213.908> 427 141<142 208>
VStem: 217 73<255.876 324.294>
LayerCount: 2
Fore
SplineSet
186 186 m 0
 153 176 133 177 101 177 c 1
 109 121 119 70 171 70 c 0
 229 70 265 140 296 140 c 0
 308 140 329 114 329 100 c 0
 329 81 246 -3 157 -3 c 0
 69 -3 31 115 31 214 c 0
 31 290 64 386 157 386 c 0
 221 386 290 350 290 300 c 0
 290 245 229 198 186 186 c 0
144 320 m 0
 110 301 106 271 100 236 c 1
 192 236 217 264 217 293 c 0
 217 316 198 328 175 328 c 0
 164 328 153 325 144 320 c 0
183 554 m 1
 189 564 199 568 208 568 c 0
 222 568 238 556 238 531 c 1
 223 501 181 427 142 427 c 0
 122 427 112 442 112 453 c 0
 112 462 117 472 125 481 c 1
 155 497 169 523 183 554 c 1
EndSplineSet
Substitution2: "'smcp' Lowercase to Small Capitals in Latin lookup 0 subtable" Eacute.smcp
EndChar

StartChar: Ecircumflex
Encoding: 202 202 163
Width: 369
Flags: W
HStem: 0 64<111 321.844> 278 62<110.328 306.204> 483 68<106 352.452>
VStem: 46 65<64 131.875 135.113 278 340 483>
LayerCount: 2
Fore
SplineSet
324 546 m 1
 347 541 356 530 356 518 c 0
 356 469 251 477 209 477 c 0
 182 477 151 479 106 483 c 1
 106 439 106 383 109 340 c 1
 176 339 214 339 279 339 c 1
 301 335 309 324 309 312 c 0
 309 297 295 280 276 276 c 1
 222 276 213 278 132 278 c 0
 124 278 117 278 110 277 c 1
 110 228 113 178 113 133 c 0
 113 109 113 85 111 64 c 1
 211 64 206 67 304 67 c 1
 324 64 331 55 331 44 c 0
 331 27 313 8 293 3 c 1
 187 3 186 0 80 0 c 0
 54 0 46 9 46 31 c 1
 49 56 49 81 49 106 c 0
 49 125 49 145 49 164 c 2
 46 287 l 1
 38 292 34 300 34 309 c 0
 34 318 37 327 43 334 c 1
 41 397 40 450 40 510 c 1
 47 537 60 547 86 551 c 1
 196 546 211 546 324 546 c 1
200 650 m 1
 185 638 146 595 126 595 c 0
 109 595 99 611 99 628 c 0
 99 644 176 707 202 707 c 0
 222 707 303 655 303 625 c 0
 303 608 285 597 270 597 c 0
 262 597 212 637 200 650 c 1
EndSplineSet
Substitution2: "'c2sc' Capitals to Small Capitals in Latin lookup 1 subtable" Ecircumflex.smcp
EndChar

StartChar: ecircumflex
Encoding: 234 234 164
Width: 337
Flags: W
HStem: -3 73<126.612 225.503> 177 59<101 198.503> 328 58<127.131 213.908> 532 20G<160 183>
VStem: 217 73<255.876 324.294>
LayerCount: 2
Fore
SplineSet
186 186 m 0
 153 176 133 177 101 177 c 1
 109 121 119 70 171 70 c 0
 229 70 265 140 296 140 c 0
 308 140 329 114 329 100 c 0
 329 81 246 -3 157 -3 c 0
 69 -3 31 115 31 214 c 0
 31 290 64 386 157 386 c 0
 221 386 290 350 290 300 c 0
 290 245 229 198 186 186 c 0
144 320 m 0
 110 301 106 271 100 236 c 1
 192 236 217 264 217 293 c 0
 217 316 198 328 175 328 c 0
 164 328 153 325 144 320 c 0
171 495 m 1
 156 483 117 440 97 440 c 0
 80 440 70 456 70 473 c 0
 70 489 147 552 173 552 c 0
 193 552 274 500 274 470 c 0
 274 453 256 442 241 442 c 0
 233 442 183 482 171 495 c 1
EndSplineSet
Substitution2: "'smcp' Lowercase to Small Capitals in Latin lookup 0 subtable" Ecircumflex.smcp
EndChar

StartChar: Edieresis
Encoding: 203 203 165
Width: 369
Flags: W
HStem: 0 64<111 321.844> 278 62<110.328 306.204> 483 68<106 352.452> 597 77<94.2202 164.643 231.79 302.336>
VStem: 46 65<64 131.875 135.113 278 340 483> 86 83<600.223 666.404> 228 82<604.133 670.606>
LayerCount: 2
Fore
SplineSet
324 546 m 1xf6
 347 541 356 530 356 518 c 0
 356 469 251 477 209 477 c 0
 182 477 151 479 106 483 c 1
 106 439 106 383 109 340 c 1
 176 339 214 339 279 339 c 1
 301 335 309 324 309 312 c 0
 309 297 295 280 276 276 c 1
 222 276 213 278 132 278 c 0
 124 278 117 278 110 277 c 1
 110 228 113 178 113 133 c 0
 113 109 113 85 111 64 c 1
 211 64 206 67 304 67 c 1
 324 64 331 55 331 44 c 0
 331 27 313 8 293 3 c 1
 187 3 186 0 80 0 c 0
 54 0 46 9 46 31 c 1
 49 56 49 81 49 106 c 0
 49 125 49 145 49 164 c 2
 46 287 l 1xfa
 38 292 34 300 34 309 c 0
 34 318 37 327 43 334 c 1
 41 397 40 450 40 510 c 1
 47 537 60 547 86 551 c 1
 196 546 211 546 324 546 c 1xf6
273 674 m 0
 290 674 309 665 310 642 c 1
 306 611 285 597 265 597 c 0
 246 597 228 611 228 637 c 0
 228 660 240 674 273 674 c 0
133 675 m 0
 153 675 168 658 169 632 c 1
 165 608 145 594 123 594 c 0
 98 594 89 611 86 627 c 1xf6
 86 652 109 675 133 675 c 0
EndSplineSet
Substitution2: "'c2sc' Capitals to Small Capitals in Latin lookup 1 subtable" Edieresis.smcp
EndChar

StartChar: edieresis
Encoding: 235 235 166
Width: 337
Flags: W
HStem: -3 73<126.612 225.503> 177 59<101 198.503> 328 58<127.131 213.908> 446 77<65.2202 135.643 202.79 273.336>
VStem: 57 83<449.223 515.404> 199 82<453.133 519.606> 217 73<255.876 324.294>
LayerCount: 2
Fore
SplineSet
186 186 m 0xfa
 153 176 133 177 101 177 c 1
 109 121 119 70 171 70 c 0
 229 70 265 140 296 140 c 0
 308 140 329 114 329 100 c 0
 329 81 246 -3 157 -3 c 0
 69 -3 31 115 31 214 c 0
 31 290 64 386 157 386 c 0
 221 386 290 350 290 300 c 0
 290 245 229 198 186 186 c 0xfa
144 320 m 0
 110 301 106 271 100 236 c 1
 192 236 217 264 217 293 c 0
 217 316 198 328 175 328 c 0
 164 328 153 325 144 320 c 0
244 523 m 0
 261 523 280 514 281 491 c 1
 277 460 256 446 236 446 c 0
 217 446 199 460 199 486 c 0xfc
 199 509 211 523 244 523 c 0
104 524 m 0
 124 524 139 507 140 481 c 1
 136 457 116 443 94 443 c 0
 69 443 60 460 57 476 c 1
 57 501 80 524 104 524 c 0
EndSplineSet
Substitution2: "'smcp' Lowercase to Small Capitals in Latin lookup 0 subtable" Edieresis.smcp
EndChar

StartChar: Egrave
Encoding: 200 200 167
Width: 369
Flags: W
HStem: 0 64<111 321.844> 278 62<110.328 306.204> 483 68<106 352.452> 599 58<187.777 253.406>
VStem: 46 65<64 131.875 135.113 278 340 483>
LayerCount: 2
Fore
SplineSet
324 546 m 1
 347 541 356 530 356 518 c 0
 356 469 251 477 209 477 c 0
 182 477 151 479 106 483 c 1
 106 439 106 383 109 340 c 1
 176 339 214 339 279 339 c 1
 301 335 309 324 309 312 c 0
 309 297 295 280 276 276 c 1
 222 276 213 278 132 278 c 0
 124 278 117 278 110 277 c 1
 110 228 113 178 113 133 c 0
 113 109 113 85 111 64 c 1
 211 64 206 67 304 67 c 1
 324 64 331 55 331 44 c 0
 331 27 313 8 293 3 c 1
 187 3 186 0 80 0 c 0
 54 0 46 9 46 31 c 1
 49 56 49 81 49 106 c 0
 49 125 49 145 49 164 c 2
 46 287 l 1
 38 292 34 300 34 309 c 0
 34 318 37 327 43 334 c 1
 41 397 40 450 40 510 c 1
 47 537 60 547 86 551 c 1
 196 546 211 546 324 546 c 1
157 708 m 1
 180 683 200 663 234 657 c 1
 246 649 255 638 255 627 c 0
 255 614 242 599 223 599 c 0
 176 599 109 668 109 686 c 0
 109 705 123 716 138 716 c 0
 144 716 151 713 157 708 c 1
EndSplineSet
Substitution2: "'c2sc' Capitals to Small Capitals in Latin lookup 1 subtable" Egrave.smcp
EndChar

StartChar: egrave
Encoding: 232 232 168
Width: 337
Flags: W
HStem: -3 73<126.612 225.503> 177 59<101 198.503> 328 58<127.131 213.908> 441 58<163.777 229.406>
VStem: 217 73<255.876 324.294>
LayerCount: 2
Fore
SplineSet
186 186 m 0
 153 176 133 177 101 177 c 1
 109 121 119 70 171 70 c 0
 229 70 265 140 296 140 c 0
 308 140 329 114 329 100 c 0
 329 81 246 -3 157 -3 c 0
 69 -3 31 115 31 214 c 0
 31 290 64 386 157 386 c 0
 221 386 290 350 290 300 c 0
 290 245 229 198 186 186 c 0
144 320 m 0
 110 301 106 271 100 236 c 1
 192 236 217 264 217 293 c 0
 217 316 198 328 175 328 c 0
 164 328 153 325 144 320 c 0
133 550 m 1
 156 525 176 505 210 499 c 1
 222 491 231 480 231 469 c 0
 231 456 218 441 199 441 c 0
 152 441 85 510 85 528 c 0
 85 547 99 558 114 558 c 0
 120 558 127 555 133 550 c 1
EndSplineSet
Substitution2: "'smcp' Lowercase to Small Capitals in Latin lookup 0 subtable" Egrave.smcp
EndChar

StartChar: Eth
Encoding: 208 208 169
Width: 491
Flags: W
HStem: -2 65<187 346.319> 264 63<31.787 91 161 244.484> 532 20G<129 140.5>
VStem: 91 70<72.1788 264 327 480> 120 70<-40.8156 3.76635> 383 67<93.8725 282.894>
LayerCount: 2
Fore
SplineSet
60 264 m 1xf4
 40 267 30 281 30 296 c 0
 30 311 41 325 61 327 c 1
 91 327 l 1xf4
 91 386 91 461 94 521 c 1
 100 539 119 552 139 552 c 0
 142 552 146 552 150 551 c 0
 305 507 445 375 450 193 c 1
 450 53 361 -2 250 -2 c 0
 229 -2 208 0 187 4 c 1
 189 -1 190 -5 190 -10 c 0
 190 -30 168 -46 148 -46 c 0
 135 -46 124 -40 120 -23 c 2xec
 109 27 l 1
 101 33 97 41 97 48 c 0
 97 55 100 61 106 66 c 1
 96 137 93 193 91 264 c 1
 60 264 l 1xf4
163 480 m 1
 160 434 160 373 160 327 c 1
 221 327 l 1
 238 322 246 309 246 295 c 0
 246 281 237 267 220 264 c 1
 161 264 l 1
 163 193 167 137 176 69 c 1
 190 65 211 63 234 63 c 0
 297 63 377 79 381 126 c 0
 382 138 383 150 383 162 c 0
 383 309 299 423 163 480 c 1
EndSplineSet
Substitution2: "'c2sc' Capitals to Small Capitals in Latin lookup 1 subtable" Eth.smcp
EndChar

StartChar: Iacute
Encoding: 205 205 170
Width: 196
Flags: W
HStem: -1 21G<80.5 96> 518 20G<100.5 115> 583 141<80 146>
VStem: 72 65<26.189 535.036>
LayerCount: 2
Fore
SplineSet
67 510 m 1
 71 526 92 538 109 538 c 0
 121 538 130 533 133 519 c 1
 133 423 137 326 137 230 c 0
 137 163 136 96 130 31 c 0
 128 13 105 -1 87 -1 c 0
 74 -1 63 6 63 23 c 1
 70 91 72 161 72 230 c 0
 72 324 68 418 67 510 c 1
121 710 m 1
 127 720 137 724 146 724 c 0
 160 724 176 712 176 687 c 1
 161 657 119 583 80 583 c 0
 60 583 50 598 50 609 c 0
 50 618 55 628 63 637 c 1
 93 653 107 679 121 710 c 1
EndSplineSet
Substitution2: "'c2sc' Capitals to Small Capitals in Latin lookup 1 subtable" Iacute.smcp
EndChar

StartChar: iacute
Encoding: 237 237 171
Width: 186
Flags: W
HStem: 374 20G<75.5 113.5> 431 141<60 126>
VStem: 58 71<54.4531 388.269> 69 61<0.248718 243.535>
LayerCount: 2
Fore
SplineSet
101 558 m 1xc0
 107 568 117 572 126 572 c 0
 140 572 156 560 156 535 c 1
 141 505 99 431 60 431 c 0
 40 431 30 446 30 457 c 0
 30 466 35 476 43 485 c 1
 73 501 87 527 101 558 c 1xc0
61 379 m 0
 62 390 70 394 81 394 c 0
 146 394 131 324 131 277 c 0
 131 215 129 150 129 90 c 0xe0
 129 70 129 51 130 33 c 1
 126 13 109 -5 93 -5 c 0
 83 -5 74 1 69 16 c 1xd0
 65 94 58 200 58 292 c 0xe0
 58 323 59 352 61 379 c 0
EndSplineSet
Substitution2: "'smcp' Lowercase to Small Capitals in Latin lookup 0 subtable" Iacute.smcp
EndChar

StartChar: Icircumflex
Encoding: 206 206 172
Width: 196
Flags: W
HStem: -1 21G<80.5 96> 518 20G<100.5 115> 589 21G<174 185.5>
VStem: 72 65<26.189 535.036>
LayerCount: 2
Fore
SplineSet
67 510 m 1
 71 526 92 538 109 538 c 0
 121 538 130 533 133 519 c 1
 133 423 137 326 137 230 c 0
 137 163 136 96 130 31 c 0
 128 13 105 -1 87 -1 c 0
 74 -1 63 6 63 23 c 1
 70 91 72 161 72 230 c 0
 72 324 68 418 67 510 c 1
108 642 m 1
 93 630 54 587 34 587 c 0
 17 587 7 603 7 620 c 0
 7 636 84 699 110 699 c 0
 130 699 211 647 211 617 c 0
 211 600 193 589 178 589 c 0
 170 589 120 629 108 642 c 1
EndSplineSet
Substitution2: "'c2sc' Capitals to Small Capitals in Latin lookup 1 subtable" Icircumflex.smcp
EndChar

StartChar: icircumflex
Encoding: 238 238 173
Width: 236
Flags: W
HStem: 374 20G<99.5 137.5> 535 20G<106 129>
VStem: 82 71<54.4531 388.269> 93 61<0.248718 243.535>
LayerCount: 2
Fore
SplineSet
85 379 m 0xe0
 86 390 94 394 105 394 c 0
 170 394 155 324 155 277 c 0
 155 215 153 150 153 90 c 0xe0
 153 70 153 51 154 33 c 1
 150 13 133 -5 117 -5 c 0
 107 -5 98 1 93 16 c 1xd0
 89 94 82 200 82 292 c 0
 82 323 83 352 85 379 c 0xe0
117 498 m 1
 102 486 63 443 43 443 c 0
 26 443 16 459 16 476 c 0
 16 492 93 555 119 555 c 0
 139 555 220 503 220 473 c 0
 220 456 202 445 187 445 c 0
 179 445 129 485 117 498 c 1
EndSplineSet
Substitution2: "'smcp' Lowercase to Small Capitals in Latin lookup 0 subtable" Icircumflex.smcp
EndChar

StartChar: Idieresis
Encoding: 207 207 174
Width: 196
Flags: W
HStem: -1 21G<80.5 96> 518 20G<100.5 115> 599 77<2.22021 72.6432 139.79 210.336>
VStem: -6 83<602.223 668.404> 72 65<26.189 535.036> 136 82<606.133 672.606>
LayerCount: 2
Fore
SplineSet
67 510 m 1xe8
 71 526 92 538 109 538 c 0
 121 538 130 533 133 519 c 1
 133 423 137 326 137 230 c 0
 137 163 136 96 130 31 c 0
 128 13 105 -1 87 -1 c 0
 74 -1 63 6 63 23 c 1
 70 91 72 161 72 230 c 0
 72 324 68 418 67 510 c 1xe8
181 676 m 0
 198 676 217 667 218 644 c 1
 214 613 193 599 173 599 c 0
 154 599 136 613 136 639 c 0xe4
 136 662 148 676 181 676 c 0
41 677 m 0
 61 677 76 660 77 634 c 1
 73 610 53 596 31 596 c 0
 6 596 -3 613 -6 629 c 1xf0
 -6 654 17 677 41 677 c 0
EndSplineSet
Substitution2: "'c2sc' Capitals to Small Capitals in Latin lookup 1 subtable" Idieresis.smcp
EndChar

StartChar: idieresis
Encoding: 239 239 175
Width: 263
Flags: W
HStem: 374 20G<114.5 152.5> 449 77<28.2202 98.6432 165.79 236.336>
VStem: 20 83<452.223 518.404> 97 71<54.4531 388.269> 108 61<0.248718 243.535> 162 82<456.133 522.606>
LayerCount: 2
Fore
SplineSet
100 379 m 0xd0
 101 390 109 394 120 394 c 0
 185 394 170 324 170 277 c 0
 170 215 168 150 168 90 c 0xd0
 168 70 168 51 169 33 c 1
 165 13 148 -5 132 -5 c 0
 122 -5 113 1 108 16 c 1xc8
 104 94 97 200 97 292 c 0
 97 323 98 352 100 379 c 0xd0
207 526 m 0
 224 526 243 517 244 494 c 1
 240 463 219 449 199 449 c 0
 180 449 162 463 162 489 c 0xc4
 162 512 174 526 207 526 c 0
67 527 m 0
 87 527 102 510 103 484 c 1
 99 460 79 446 57 446 c 0
 32 446 23 463 20 479 c 1xe0
 20 504 43 527 67 527 c 0
EndSplineSet
Substitution2: "'smcp' Lowercase to Small Capitals in Latin lookup 0 subtable" Idieresis.smcp
EndChar

StartChar: Igrave
Encoding: 204 204 176
Width: 196
Flags: W
HStem: -1 21G<80.5 96> 518 20G<100.5 115> 596 58<110.777 176.406>
VStem: 72 65<26.189 535.036>
LayerCount: 2
Fore
SplineSet
67 510 m 1
 71 526 92 538 109 538 c 0
 121 538 130 533 133 519 c 1
 133 423 137 326 137 230 c 0
 137 163 136 96 130 31 c 0
 128 13 105 -1 87 -1 c 0
 74 -1 63 6 63 23 c 1
 70 91 72 161 72 230 c 0
 72 324 68 418 67 510 c 1
80 705 m 1
 103 680 123 660 157 654 c 1
 169 646 178 635 178 624 c 0
 178 611 165 596 146 596 c 0
 99 596 32 665 32 683 c 0
 32 702 46 713 61 713 c 0
 67 713 74 710 80 705 c 1
EndSplineSet
Substitution2: "'c2sc' Capitals to Small Capitals in Latin lookup 1 subtable" Igrave.smcp
EndChar

StartChar: igrave
Encoding: 236 236 177
Width: 187
Flags: W
HStem: 374 20G<75.5 113.5> 439 58<102.777 168.406> 536 20G<45.5 56>
VStem: 58 71<54.4531 388.269> 69 61<0.248718 243.535>
LayerCount: 2
Fore
SplineSet
61 379 m 0xf0
 62 390 70 394 81 394 c 0
 146 394 131 324 131 277 c 0
 131 215 129 150 129 90 c 0xf0
 129 70 129 51 130 33 c 1
 126 13 109 -5 93 -5 c 0
 83 -5 74 1 69 16 c 1xe8
 65 94 58 200 58 292 c 0
 58 323 59 352 61 379 c 0xf0
72 548 m 1
 95 523 115 503 149 497 c 1
 161 489 170 478 170 467 c 0
 170 454 157 439 138 439 c 0
 91 439 24 508 24 526 c 0
 24 545 38 556 53 556 c 0
 59 556 66 553 72 548 c 1
EndSplineSet
Substitution2: "'smcp' Lowercase to Small Capitals in Latin lookup 0 subtable" Igrave.smcp
EndChar

StartChar: Lcaron
Encoding: 317 317 178
Width: 310
Flags: W
HStem: 1 60<89.3676 253.637> 531 20G<58 78>
VStem: 23 61<62.8259 402.638> 31 78<289.75 547.735>
LayerCount: 2
Fore
SplineSet
31 529 m 0xd0
 31 544 49 551 67 551 c 0
 89 551 109 541 109 520 c 1xd0
 99 403 84 293 84 178 c 0
 84 140 86 101 90 61 c 1
 130 59 206 73 256 73 c 0
 277 73 287 60 287 44 c 0
 287 -10 180 1 127 1 c 0
 93 1 39 -7 30 17 c 1
 25 71 23 126 23 181 c 0xe0
 23 297 31 413 31 529 c 0xd0
220 711 m 0
 225 717 238 722 249 722 c 0
 261 722 271 717 271 704 c 0
 271 702 270 700 270 698 c 0
 262 677 175 595 154 595 c 0
 131 595 58 668 45 704 c 1
 47 720 57 727 69 727 c 0
 96 727 114 687 154 650 c 1
 181 670 201 688 220 711 c 0
EndSplineSet
Substitution2: "'c2sc' Capitals to Small Capitals in Latin lookup 1 subtable" Lcaron.smcp
EndChar

StartChar: Lslash
Encoding: 321 321 179
Width: 320
Flags: W
HStem: 1 60<113.124 277.637> 531 20G<83 103>
VStem: 49 59<61 153> 50 137<271.455 326> 56 77<428.562 547.994>
LayerCount: 2
Fore
SplineSet
56 529 m 0xc8
 56 544 74 551 92 551 c 0
 114 551 133 541 133 520 c 1xc8
 117 311 l 1
 132 326 145 338 160 338 c 0
 175 338 187 326 187 311 c 0xd0
 187 284 137 243 110 216 c 1
 109 191 108 172 108 153 c 0
 108 125 110 99 114 61 c 1
 154 59 230 73 280 73 c 0
 302 73 312 59 312 44 c 0
 312 -11 204 1 152 1 c 0
 119 1 65 -7 54 17 c 1
 49 73 49 97 49 153 c 1xe0
 26 131 l 1
 20 128 14 127 9 127 c 0
 -8 127 -20 139 -20 156 c 0
 -20 175 26 214 50 237 c 1xd0
 51 323 56 443 56 529 c 0xc8
EndSplineSet
Substitution2: "'c2sc' Capitals to Small Capitals in Latin lookup 1 subtable" Lslash.smcp
EndChar

StartChar: lslash
Encoding: 322 322 180
Width: 236
Flags: W
HStem: 570 20G<81.5 113.5>
VStem: 69 64<89.7012 189 246.6 271.576 337 569.102>
LayerCount: 2
Fore
SplineSet
150 360 m 1
 158 366 166 368 173 368 c 0
 188 368 200 357 200 342 c 0
 200 319 157 274 131 247 c 1
 133 176 139 91 169 69 c 1
 195 75 201 124 231 124 c 0
 246 124 260 109 260 79 c 0
 260 40 217 -4 169 -4 c 0
 86 -4 75 102 73 189 c 1
 56 171 l 1
 50 168 44 167 39 167 c 0
 22 167 10 179 10 196 c 0
 10 217 48 246 69 267 c 1
 69 331 l 2
 69 354 67 383 68 412 c 1
 68 535 57 590 106 590 c 0
 121 590 136 582 140 561 c 1
 134 504 134 459 133 339 c 1
 133 337 l 1
 150 360 l 1
EndSplineSet
Substitution2: "'smcp' Lowercase to Small Capitals in Latin lookup 0 subtable" Lslash.smcp
EndChar

StartChar: Ntilde
Encoding: 209 209 181
Width: 444
Flags: W
HStem: 0 21G<366 390.5> 532 20G<353 383> 596 47<220.152 293.472> 634 52<136.04 209.9>
VStem: 34 62<4.01452 246.784> 48 63<149.625 399> 337 72<193.1 548.828> 347 62<120.535 291.9>
LayerCount: 2
Fore
SplineSet
96 23 m 0xc8
 94 9 79 3 65 3 c 0
 49 3 34 11 34 27 c 0xc8
 34 52 39 131 40 186 c 1
 47 257 48 267 48 354 c 0
 48 377 47 406 47 431 c 0
 47 471 47 500 71 509 c 1
 86 509 98 504 109 499 c 1
 189 419 281 240 347 119 c 1xc5
 337 366 l 2
 336 379 337 391 337 401 c 0
 337 510 330 552 376 552 c 0
 390 552 409 537 409 514 c 0xc2
 409 513 408 505 407 439 c 1
 409 184 l 2
 409 124 415 85 415 56 c 0
 415 33 407 0 374 0 c 0
 358 0 342 8 336 19 c 0
 271 140 200 287 111 399 c 1
 111 379 l 2xc5
 111 260 108 100 96 23 c 0xc8
164 634 m 0xd1
 142 634 135 598 114 598 c 0
 106 598 85 608 85 625 c 0
 85 652 135 686 164 686 c 0xd1
 199 686 223 656 262 643 c 1
 283 643 301 683 323 683 c 0
 331 683 347 672 347 659 c 0
 347 631 290 596 260 596 c 0xe1
 213 596 194 634 164 634 c 0xd1
EndSplineSet
Substitution2: "'c2sc' Capitals to Small Capitals in Latin lookup 1 subtable" Ntilde.smcp
EndChar

StartChar: ntilde
Encoding: 241 241 182
Width: 327
Flags: W
HStem: -1 22G<53.5 70 266 298> 307 83<137.684 221.496> 453 47<163.152 236.472> 491 52<79.0397 152.9>
VStem: 30 67<331 395.526> 39 64<3.69583 253.38> 252 61<4.85687 252.589>
LayerCount: 2
Fore
SplineSet
30 364 m 1xca
 35 381 49 400 65 400 c 0
 97 400 93 377 97 331 c 1xca
 137 384 183 390 209 390 c 0
 304 390 313 250 313 123 c 0
 313 71 324 0 272 0 c 0
 260 0 252 9 252 27 c 0
 252 122 260 307 185 307 c 0
 108 307 105 200 105 126 c 0
 105 81 103 98 103 36 c 0
 103 11 80 -1 60 -1 c 0
 47 -1 39 7 39 26 c 0xc6
 39 163 30 229 30 364 c 1xca
107 491 m 0xd2
 85 491 78 455 57 455 c 0
 49 455 28 465 28 482 c 0
 28 509 78 543 107 543 c 0xd2
 142 543 166 513 205 500 c 1
 226 500 244 540 266 540 c 0
 274 540 290 529 290 516 c 0
 290 488 233 453 203 453 c 0xe2
 156 453 137 491 107 491 c 0xd2
EndSplineSet
Substitution2: "'smcp' Lowercase to Small Capitals in Latin lookup 0 subtable" Ntilde.smcp
EndChar

StartChar: Oacute
Encoding: 211 211 183
Width: 464
Flags: W
HStem: 1 75<184.273 299.947> 487 69<168.402 312.361> 596 141<213 279>
VStem: 35 67<190.196 415.021> 364 70<161.951 427.77>
LayerCount: 2
Fore
SplineSet
254 556 m 0
 376 556 434 431 434 299 c 0
 434 157 366 7 240 1 c 1
 77 1 35 207 35 307 c 0
 35 441 98 556 254 556 c 0
351 184 m 0
 358 217 364 262 364 308 c 0
 364 397 340 487 249 487 c 0
 140 487 102 407 102 315 c 0
 102 257 126 76 246 76 c 0
 304 76 341 139 351 184 c 0
254 723 m 1
 260 733 270 737 279 737 c 0
 293 737 309 725 309 700 c 1
 294 670 252 596 213 596 c 0
 193 596 183 611 183 622 c 0
 183 631 188 641 196 650 c 1
 226 666 240 692 254 723 c 1
EndSplineSet
Substitution2: "'c2sc' Capitals to Small Capitals in Latin lookup 1 subtable" Oacute.smcp
EndChar

StartChar: oacute
Encoding: 243 243 184
Width: 336
Flags: W
HStem: 0 59<149.338 223.962> 369 20G<135 228.5> 427 141<140 206>
VStem: 21 63<134.255 272.862> 250 67<90.2791 270.135>
LayerCount: 2
Fore
SplineSet
183 389 m 0
 274 389 317 277 317 187 c 0
 317 119 274 0 186 0 c 0
 83 0 21 120 21 187 c 0
 21 283 87 389 183 389 c 0
201 59 m 1
 234 77 250 120 250 167 c 0
 250 229 231 309 169 321 c 1
 119 313 84 254 84 201 c 0
 84 167 129 59 201 59 c 1
181 554 m 1
 187 564 197 568 206 568 c 0
 220 568 236 556 236 531 c 1
 221 501 179 427 140 427 c 0
 120 427 110 442 110 453 c 0
 110 462 115 472 123 481 c 1
 153 497 167 523 181 554 c 1
EndSplineSet
Substitution2: "'smcp' Lowercase to Small Capitals in Latin lookup 0 subtable" Oacute.smcp
EndChar

StartChar: Ocircumflex
Encoding: 212 212 185
Width: 464
Flags: W
HStem: 1 75<184.273 299.947> 487 69<168.402 312.361>
VStem: 35 67<190.196 415.021> 364 70<161.951 427.77>
LayerCount: 2
Fore
SplineSet
254 556 m 0
 376 556 434 431 434 299 c 0
 434 157 366 7 240 1 c 1
 77 1 35 207 35 307 c 0
 35 441 98 556 254 556 c 0
351 184 m 0
 358 217 364 262 364 308 c 0
 364 397 340 487 249 487 c 0
 140 487 102 407 102 315 c 0
 102 257 126 76 246 76 c 0
 304 76 341 139 351 184 c 0
238 649 m 1
 223 637 184 594 164 594 c 0
 147 594 137 610 137 627 c 0
 137 643 214 706 240 706 c 0
 260 706 341 654 341 624 c 0
 341 607 323 596 308 596 c 0
 300 596 250 636 238 649 c 1
EndSplineSet
Substitution2: "'c2sc' Capitals to Small Capitals in Latin lookup 1 subtable" Ocircumflex.smcp
EndChar

StartChar: ocircumflex
Encoding: 244 244 186
Width: 336
Flags: W
HStem: 0 59<149.338 223.962> 369 20G<135 228.5> 533 20G<161 184>
VStem: 21 63<134.255 272.862> 250 67<90.2791 270.135>
LayerCount: 2
Fore
SplineSet
183 389 m 0
 274 389 317 277 317 187 c 0
 317 119 274 0 186 0 c 0
 83 0 21 120 21 187 c 0
 21 283 87 389 183 389 c 0
201 59 m 1
 234 77 250 120 250 167 c 0
 250 229 231 309 169 321 c 1
 119 313 84 254 84 201 c 0
 84 167 129 59 201 59 c 1
172 496 m 1
 157 484 118 441 98 441 c 0
 81 441 71 457 71 474 c 0
 71 490 148 553 174 553 c 0
 194 553 275 501 275 471 c 0
 275 454 257 443 242 443 c 0
 234 443 184 483 172 496 c 1
EndSplineSet
Substitution2: "'smcp' Lowercase to Small Capitals in Latin lookup 0 subtable" Ocircumflex.smcp
EndChar

StartChar: Odieresis
Encoding: 214 214 187
Width: 464
Flags: W
HStem: 1 75<184.273 299.947> 487 69<168.402 312.361> 597 77<135.22 205.643 272.79 343.336>
VStem: 35 67<190.196 415.021> 127 83<600.223 666.404> 269 82<604.133 670.606> 364 70<161.951 427.77>
LayerCount: 2
Fore
SplineSet
254 556 m 0
 376 556 434 431 434 299 c 0
 434 157 366 7 240 1 c 1
 77 1 35 207 35 307 c 0
 35 441 98 556 254 556 c 0
351 184 m 0
 358 217 364 262 364 308 c 0
 364 397 340 487 249 487 c 0
 140 487 102 407 102 315 c 0
 102 257 126 76 246 76 c 0
 304 76 341 139 351 184 c 0
314 674 m 0
 331 674 350 665 351 642 c 1
 347 611 326 597 306 597 c 0
 287 597 269 611 269 637 c 0
 269 660 281 674 314 674 c 0
174 675 m 0
 194 675 209 658 210 632 c 1
 206 608 186 594 164 594 c 0
 139 594 130 611 127 627 c 1
 127 652 150 675 174 675 c 0
EndSplineSet
Substitution2: "'c2sc' Capitals to Small Capitals in Latin lookup 1 subtable" Odieresis.smcp
EndChar

StartChar: odieresis
Encoding: 246 246 188
Width: 364
Flags: W
HStem: 0 59<175.338 249.962> 369 20G<161 254.5> 446 77<91.2202 161.643 228.79 299.336>
VStem: 47 63<134.255 272.862> 83 83<449.223 515.404> 225 82<453.133 519.606> 276 67<90.2791 270.135>
LayerCount: 2
Fore
SplineSet
209 389 m 0xf2
 300 389 343 277 343 187 c 0
 343 119 300 0 212 0 c 0
 109 0 47 120 47 187 c 0
 47 283 113 389 209 389 c 0xf2
227 59 m 1
 260 77 276 120 276 167 c 0
 276 229 257 309 195 321 c 1
 145 313 110 254 110 201 c 0
 110 167 155 59 227 59 c 1
270 523 m 0
 287 523 306 514 307 491 c 1
 303 460 282 446 262 446 c 0
 243 446 225 460 225 486 c 0xe4
 225 509 237 523 270 523 c 0
130 524 m 0
 150 524 165 507 166 481 c 1
 162 457 142 443 120 443 c 0
 95 443 86 460 83 476 c 1xe8
 83 501 106 524 130 524 c 0
EndSplineSet
Substitution2: "'smcp' Lowercase to Small Capitals in Latin lookup 0 subtable" Odieresis.smcp
EndChar

StartChar: OE
Encoding: 338 338 189
Width: 646
Flags: W
HStem: 0 64<401 580.899> 1 76<167.083 260.883> 254 62<397 560.67> 476 68<406.793 594.957> 487 64<157.958 268.074 393.99 472.152>
VStem: 40 65<171.159 427.786> 304 92<130.237 253 316 442.07>
LayerCount: 2
Fore
SplineSet
224 551 m 0x6e
 269 551 319 544 333 506 c 1
 333 508 333 510 333 512 c 0
 333 543 356 551 405 551 c 0x6e
 443 551 497 546 567 544 c 1
 592 539 602 527 602 515 c 0
 602 470 496 476 473 476 c 0
 455 476 431 477 393 481 c 1
 393 439 393 359 396 316 c 1
 463 314 467 313 531 313 c 1
 554 309 563 298 563 286 c 0
 563 271 548 255 529 250 c 1
 494 250 460 254 424 254 c 0
 415 254 406 253 397 253 c 1
 397 204 402 157 402 107 c 0
 402 93 402 78 401 64 c 1xb6
 500 64 463 67 561 67 c 1
 581 64 589 54 589 43 c 0
 589 26 572 6 551 1 c 1x66
 453 1 474 0 390 0 c 0xa6
 372 0 323 -3 323 63 c 1
 291 14 269 1 201 1 c 0
 81 1 40 171 40 277 c 0
 40 411 48 551 224 551 c 0x6e
304 273 m 0
 304 346 303 487 224 487 c 0
 140 487 105 420 105 309 c 0
 105 225 137 77 209 77 c 0
 267 77 304 129 304 273 c 0
EndSplineSet
Substitution2: "'c2sc' Capitals to Small Capitals in Latin lookup 1 subtable" OE.smcp
EndChar

StartChar: oe
Encoding: 339 339 190
Width: 573
Flags: W
HStem: -3 73<350.947 449.826> 0 59<156.381 233.589> 177 59<326 422.503> 328 58<350.818 437.478>
VStem: 29 62<136.18 272.862> 256 297<90.5 225> 441 73<256.147 323.377>
LayerCount: 2
Fore
SplineSet
410 186 m 0x7a
 377 176 357 177 326 177 c 1
 333 121 343 70 396 70 c 0
 452 70 489 140 520 140 c 0
 532 140 553 114 553 100 c 0
 553 81 471 -3 382 -3 c 0xbc
 340 -3 308 22 289 61 c 1
 267 26 234 0 193 0 c 0
 90 0 29 120 29 187 c 0
 29 283 94 389 190 389 c 0
 231 389 263 364 284 331 c 1
 305 363 337 386 384 386 c 0
 447 386 514 349 514 301 c 0
 514 245 453 199 410 186 c 0x7a
209 59 m 1x7c
 256 86 256 141 256 197 c 1
 250 253 229 310 176 321 c 1
 126 313 91 254 91 201 c 0
 91 167 136 59 209 59 c 1x7c
369 320 m 0
 334 301 330 271 324 236 c 1
 416 236 441 264 441 293 c 0x3a
 441 316 422 328 399 328 c 0
 389 328 378 325 369 320 c 0
EndSplineSet
Substitution2: "'smcp' Lowercase to Small Capitals in Latin lookup 0 subtable" OE.smcp
EndChar

StartChar: Ograve
Encoding: 210 210 191
Width: 464
Flags: W
HStem: 1 75<184.273 299.947> 487 69<168.402 312.361> 596 58<242.777 308.406>
VStem: 35 67<190.196 415.021> 364 70<161.951 427.77>
LayerCount: 2
Fore
SplineSet
254 556 m 0
 376 556 434 431 434 299 c 0
 434 157 366 7 240 1 c 1
 77 1 35 207 35 307 c 0
 35 441 98 556 254 556 c 0
351 184 m 0
 358 217 364 262 364 308 c 0
 364 397 340 487 249 487 c 0
 140 487 102 407 102 315 c 0
 102 257 126 76 246 76 c 0
 304 76 341 139 351 184 c 0
212 705 m 1
 235 680 255 660 289 654 c 1
 301 646 310 635 310 624 c 0
 310 611 297 596 278 596 c 0
 231 596 164 665 164 683 c 0
 164 702 178 713 193 713 c 0
 199 713 206 710 212 705 c 1
EndSplineSet
Substitution2: "'c2sc' Capitals to Small Capitals in Latin lookup 1 subtable" Ograve.smcp
EndChar

StartChar: ograve
Encoding: 242 242 192
Width: 336
Flags: W
HStem: 0 59<149.338 223.962> 369 20G<135 228.5> 438 58<173.777 239.406> 535 20G<116.5 127>
VStem: 21 63<134.255 272.862> 250 67<90.2791 270.135>
LayerCount: 2
Fore
SplineSet
183 389 m 0
 274 389 317 277 317 187 c 0
 317 119 274 0 186 0 c 0
 83 0 21 120 21 187 c 0
 21 283 87 389 183 389 c 0
201 59 m 1
 234 77 250 120 250 167 c 0
 250 229 231 309 169 321 c 1
 119 313 84 254 84 201 c 0
 84 167 129 59 201 59 c 1
143 547 m 1
 166 522 186 502 220 496 c 1
 232 488 241 477 241 466 c 0
 241 453 228 438 209 438 c 0
 162 438 95 507 95 525 c 0
 95 544 109 555 124 555 c 0
 130 555 137 552 143 547 c 1
EndSplineSet
Substitution2: "'smcp' Lowercase to Small Capitals in Latin lookup 0 subtable" Ograve.smcp
EndChar

StartChar: Oslash
Encoding: 216 216 193
Width: 474
Flags: W
HStem: 1 75<189.939 299.947> 487 69<168.402 288.409>
VStem: 35 67<187.617 415.021> 95 65<-8.69037 20.5178> 310 72<544.453 579.142> 364 70<161.951 425.045>
LayerCount: 2
Fore
SplineSet
310 544 m 1xe8
 317 574 336 586 352 586 c 0
 368 586 382 574 382 554 c 0xe8
 382 542 377 527 364 510 c 1
 411 462 434 382 434 299 c 0
 434 157 366 7 240 1 c 1
 209 1 184 7 160 21 c 1
 159 0 142 -11 126 -11 c 0
 110 -11 95 -1 95 20 c 0xd4
 95 31 100 45 110 63 c 1
 50 128 35 228 35 307 c 0
 35 441 98 556 254 556 c 0
 277 556 291 553 310 544 c 1xe8
114 220 m 0
 120 193 133 163 149 137 c 1
 200 259 239 359 289 480 c 1
 277 484 264 487 249 487 c 0
 140 487 102 407 102 315 c 0
 102 284 106 251 114 220 c 0
351 184 m 0
 358 217 364 261 364 306 c 0xc4
 364 356 357 407 334 441 c 1
 284 320 243 220 189 93 c 1
 206 81 224 76 246 76 c 0
 304 76 341 139 351 184 c 0
EndSplineSet
Substitution2: "'c2sc' Capitals to Small Capitals in Latin lookup 1 subtable" Oslash.smcp
EndChar

StartChar: oslash
Encoding: 248 248 194
Width: 350
Flags: W
HStem: 0 59<153.75 223.962> 369 20G<135 191.5>
VStem: 21 63<133.589 272.862> 250 67<90.2791 252.095>
LayerCount: 2
Fore
SplineSet
229 377 m 1
 239 397 250 402 259 402 c 0
 280 402 288 395 288 383 c 0
 288 371 281 355 273 339 c 1
 303 299 317 239 317 187 c 0
 317 119 274 0 186 0 c 0
 163 0 143 6 126 14 c 1
 114 -9 104 -17 92 -17 c 0
 76 -17 63 -7 63 5 c 0
 63 19 76 37 81 49 c 1
 43 89 21 147 21 187 c 0
 21 283 87 389 183 389 c 0
 200 389 216 384 229 377 c 1
84 201 m 0
 84 184 94 151 113 120 c 1
 147 196 161 223 199 307 c 1
 190 314 180 319 169 321 c 1
 119 313 84 254 84 201 c 0
201 59 m 1
 234 77 250 120 250 167 c 0
 250 194 246 226 236 253 c 1
 206 187 190 159 153 76 c 1
 167 64 183 59 201 59 c 1
EndSplineSet
Substitution2: "'smcp' Lowercase to Small Capitals in Latin lookup 0 subtable" Oslash.smcp
EndChar

StartChar: Otilde
Encoding: 213 213 195
Width: 464
Flags: W
HStem: 1 75<184.273 299.947> 487 69<168.402 312.361> 596 47<244.152 317.472> 634 52<160.04 233.9>
VStem: 35 67<190.196 415.021> 364 70<161.951 427.77>
LayerCount: 2
Fore
SplineSet
254 556 m 0xcc
 376 556 434 431 434 299 c 0
 434 157 366 7 240 1 c 1
 77 1 35 207 35 307 c 0
 35 441 98 556 254 556 c 0xcc
351 184 m 0
 358 217 364 262 364 308 c 0
 364 397 340 487 249 487 c 0
 140 487 102 407 102 315 c 0
 102 257 126 76 246 76 c 0
 304 76 341 139 351 184 c 0
188 634 m 0xdc
 166 634 159 598 138 598 c 0
 130 598 109 608 109 625 c 0
 109 652 159 686 188 686 c 0xdc
 223 686 247 656 286 643 c 1
 307 643 325 683 347 683 c 0
 355 683 371 672 371 659 c 0
 371 631 314 596 284 596 c 0xec
 237 596 218 634 188 634 c 0xdc
EndSplineSet
Substitution2: "'c2sc' Capitals to Small Capitals in Latin lookup 1 subtable" Otilde.smcp
EndChar

StartChar: otilde
Encoding: 245 245 196
Width: 336
Flags: W
HStem: 0 59<149.338 223.962> 369 20G<135 228.5> 452 47<180.152 253.472> 490 52<96.0397 169.9>
VStem: 21 63<134.255 272.862> 250 67<90.2791 270.135>
LayerCount: 2
Fore
SplineSet
183 389 m 0xcc
 274 389 317 277 317 187 c 0
 317 119 274 0 186 0 c 0
 83 0 21 120 21 187 c 0
 21 283 87 389 183 389 c 0xcc
201 59 m 1
 234 77 250 120 250 167 c 0
 250 229 231 309 169 321 c 1
 119 313 84 254 84 201 c 0
 84 167 129 59 201 59 c 1
124 490 m 0xdc
 102 490 95 454 74 454 c 0
 66 454 45 464 45 481 c 0
 45 508 95 542 124 542 c 0xdc
 159 542 183 512 222 499 c 1
 243 499 261 539 283 539 c 0
 291 539 307 528 307 515 c 0
 307 487 250 452 220 452 c 0xec
 173 452 154 490 124 490 c 0xdc
EndSplineSet
Substitution2: "'smcp' Lowercase to Small Capitals in Latin lookup 0 subtable" Otilde.smcp
EndChar

StartChar: Sacute
Encoding: 346 346 197
Width: 383
Flags: W
HStem: 0 70<127.626 267.409> 493 59<132.856 284.719> 595 141<169 235>
VStem: 28 71<376.233 462.462> 300 67<103.453 237.458>
LayerCount: 2
Fore
SplineSet
341 513 m 0
 348 503 352 493 352 484 c 0
 352 468 340 456 322 456 c 0
 297 456 268 493 215 493 c 0
 161 493 99 466 99 422 c 0
 99 297 367 397 367 186 c 0
 367 89 291 0 186 0 c 0
 133 0 96 27 40 57 c 1
 32 64 29 72 29 80 c 0
 29 100 50 117 72 117 c 0
 74 117 77 116 80 116 c 1
 120 93 170 70 212 70 c 0
 253 70 300 97 300 182 c 0
 300 328 28 216 28 420 c 0
 28 511 132 552 222 552 c 0
 275 552 322 538 341 513 c 0
210 722 m 1
 216 732 226 736 235 736 c 0
 249 736 265 724 265 699 c 1
 250 669 208 595 169 595 c 0
 149 595 139 610 139 621 c 0
 139 630 144 640 152 649 c 1
 182 665 196 691 210 722 c 1
EndSplineSet
Substitution2: "'c2sc' Capitals to Small Capitals in Latin lookup 1 subtable" Sacute.smcp
EndChar

StartChar: Scaron
Encoding: 352 352 198
Width: 383
Flags: W
HStem: 0 70<127.626 267.409> 493 59<132.856 284.719>
VStem: 28 71<376.233 462.462> 300 67<103.453 237.458>
LayerCount: 2
Fore
SplineSet
341 513 m 0
 348 503 352 493 352 484 c 0
 352 468 340 456 322 456 c 0
 297 456 268 493 215 493 c 0
 161 493 99 466 99 422 c 0
 99 297 367 397 367 186 c 0
 367 89 291 0 186 0 c 0
 133 0 96 27 40 57 c 1
 32 64 29 72 29 80 c 0
 29 100 50 117 72 117 c 0
 74 117 77 116 80 116 c 1
 120 93 170 70 212 70 c 0
 253 70 300 97 300 182 c 0
 300 328 28 216 28 420 c 0
 28 511 132 552 222 552 c 0
 275 552 322 538 341 513 c 0
260 710 m 0
 265 716 278 721 289 721 c 0
 301 721 311 716 311 703 c 0
 311 701 310 699 310 697 c 0
 302 676 215 594 194 594 c 0
 171 594 98 667 85 703 c 1
 87 719 97 726 109 726 c 0
 136 726 154 686 194 649 c 1
 221 669 241 687 260 710 c 0
EndSplineSet
Substitution2: "'c2sc' Capitals to Small Capitals in Latin lookup 1 subtable" Scaron.smcp
EndChar

StartChar: scaron
Encoding: 353 353 199
Width: 301
Flags: W
HStem: 4 60<92.4081 191.087> 330 61<94.3095 208.99>
VStem: 26 61<245.716 319.878> 211 63<82.3651 154.653>
LayerCount: 2
Fore
SplineSet
150 391 m 0
 183 391 273 374 273 330 c 0
 273 310 253 299 233 299 c 0
 219 299 181 330 136 330 c 0
 120 330 87 314 87 289 c 0
 87 187 274 261 274 140 c 0
 274 61 207 4 150 4 c 0
 97 4 26 21 26 64 c 0
 26 84 40 93 61 93 c 0
 96 93 117 64 161 64 c 0
 183 64 211 106 211 136 c 0
 211 141 210 145 209 149 c 1
 154 203 26 151 26 283 c 0
 26 353 83 391 150 391 c 0
218 577 m 0
 223 583 236 588 247 588 c 0
 259 588 269 583 269 570 c 0
 269 568 268 566 268 564 c 0
 260 543 173 461 152 461 c 0
 129 461 56 534 43 570 c 1
 45 586 55 593 67 593 c 0
 94 593 112 553 152 516 c 1
 179 536 199 554 218 577 c 0
EndSplineSet
Substitution2: "'smcp' Lowercase to Small Capitals in Latin lookup 0 subtable" Scaron.smcp
EndChar

StartChar: Uacute
Encoding: 218 218 200
Width: 459
Flags: W
HStem: 0 65<198.444 299.403> 524 20G<75 88.5 377.5 391.5> 584 141<203 269>
VStem: 29 65<207.051 511.757> 36 64<191.189 327.547 331.859 341.688 345.766 532.774> 361 64<151.246 508.843>
LayerCount: 2
Fore
SplineSet
41 510 m 1xf4
 48 528 67 544 83 544 c 0
 94 544 103 537 106 519 c 1
 101 461 94 402 94 343 c 0xf4
 94 315 95 288 100 261 c 0
 114 178 182 65 250 65 c 0
 281 65 313 88 340 147 c 1
 360 184 356 220 359 261 c 1
 359 297 361 334 361 371 c 0
 361 418 358 465 349 511 c 1
 349 534 368 555 387 555 c 0
 396 555 404 551 411 541 c 1
 422 486 425 432 425 378 c 0
 425 286 432 179 381 100 c 1
 344 32 281 0 237 0 c 0
 136 0 53 129 36 237 c 0xec
 31 267 29 298 29 329 c 0
 29 390 36 451 41 510 c 1xf4
244 711 m 1
 250 721 260 725 269 725 c 0
 283 725 299 713 299 688 c 1
 284 658 242 584 203 584 c 0
 183 584 173 599 173 610 c 0
 173 619 178 629 186 638 c 1
 216 654 230 680 244 711 c 1
EndSplineSet
Substitution2: "'c2sc' Capitals to Small Capitals in Latin lookup 1 subtable" Uacute.smcp
EndChar

StartChar: uacute
Encoding: 250 250 201
Width: 334
Flags: W
HStem: -1 21G<88 147> 370 20G<59.5 73 253 267> 424 141<137 203>
VStem: 23 66<98.2446 360.078> 226 64<179.989 385.187> 254 63<-4.62006 53.75>
LayerCount: 2
Fore
SplineSet
30 357 m 1xf4
 35 378 52 390 67 390 c 0
 79 390 91 382 94 367 c 1
 91 333 89 290 89 252 c 0
 89 173 89 129 131 59 c 1
 176 70 216 104 236 141 c 1
 230 213 226 287 226 347 c 0
 226 370 244 389 262 389 c 0
 272 389 283 382 290 367 c 1xf8
 290 290 294 241 297 177 c 0
 299 137 317 54 317 33 c 0
 317 10 296 -10 278 -10 c 0
 268 -10 259 -4 254 10 c 1
 246 60 l 1
 209 22 165 -1 129 -1 c 0
 47 -1 23 131 23 220 c 0
 23 271 26 309 30 357 c 1xf4
178 551 m 1
 184 561 194 565 203 565 c 0
 217 565 233 553 233 528 c 1
 218 498 176 424 137 424 c 0
 117 424 107 439 107 450 c 0
 107 459 112 469 120 478 c 1
 150 494 164 520 178 551 c 1
EndSplineSet
Substitution2: "'smcp' Lowercase to Small Capitals in Latin lookup 0 subtable" Uacute.smcp
EndChar

StartChar: Ucircumflex
Encoding: 219 219 202
Width: 459
Flags: W
HStem: 0 65<198.444 299.403> 524 20G<75 88.5 377.5 391.5>
VStem: 29 65<207.051 511.757> 36 64<191.189 327.547 331.859 341.688 345.766 532.774> 361 64<151.246 508.843>
LayerCount: 2
Fore
SplineSet
41 510 m 1xe8
 48 528 67 544 83 544 c 0
 94 544 103 537 106 519 c 1
 101 461 94 402 94 343 c 0xe8
 94 315 95 288 100 261 c 0
 114 178 182 65 250 65 c 0
 281 65 313 88 340 147 c 1
 360 184 356 220 359 261 c 1
 359 297 361 334 361 371 c 0
 361 418 358 465 349 511 c 1
 349 534 368 555 387 555 c 0
 396 555 404 551 411 541 c 1
 422 486 425 432 425 378 c 0
 425 286 432 179 381 100 c 1
 344 32 281 0 237 0 c 0
 136 0 53 129 36 237 c 0xd8
 31 267 29 298 29 329 c 0
 29 390 36 451 41 510 c 1xe8
234 649 m 1
 219 637 180 594 160 594 c 0
 143 594 133 610 133 627 c 0
 133 643 210 706 236 706 c 0
 256 706 337 654 337 624 c 0
 337 607 319 596 304 596 c 0
 296 596 246 636 234 649 c 1
EndSplineSet
Substitution2: "'c2sc' Capitals to Small Capitals in Latin lookup 1 subtable" Ucircumflex.smcp
EndChar

StartChar: ucircumflex
Encoding: 251 251 203
Width: 334
Flags: W
HStem: -1 21G<88 147> 370 20G<59.5 73 253 267> 536 20G<146 169>
VStem: 23 66<98.2446 360.078> 226 64<179.989 385.187> 254 63<-4.62006 53.75>
LayerCount: 2
Fore
SplineSet
30 357 m 1xf4
 35 378 52 390 67 390 c 0
 79 390 91 382 94 367 c 1
 91 333 89 290 89 252 c 0
 89 173 89 129 131 59 c 1
 176 70 216 104 236 141 c 1
 230 213 226 287 226 347 c 0
 226 370 244 389 262 389 c 0
 272 389 283 382 290 367 c 1xf8
 290 290 294 241 297 177 c 0
 299 137 317 54 317 33 c 0
 317 10 296 -10 278 -10 c 0
 268 -10 259 -4 254 10 c 1
 246 60 l 1
 209 22 165 -1 129 -1 c 0
 47 -1 23 131 23 220 c 0
 23 271 26 309 30 357 c 1xf4
157 499 m 1
 142 487 103 444 83 444 c 0
 66 444 56 460 56 477 c 0
 56 493 133 556 159 556 c 0
 179 556 260 504 260 474 c 0
 260 457 242 446 227 446 c 0
 219 446 169 486 157 499 c 1
EndSplineSet
Substitution2: "'smcp' Lowercase to Small Capitals in Latin lookup 0 subtable" Ucircumflex.smcp
EndChar

StartChar: Udieresis
Encoding: 220 220 204
Width: 459
Flags: W
HStem: 0 65<198.444 299.403> 524 20G<75 88.5 377.5 391.5> 599 77<125.22 195.643 262.79 333.336>
VStem: 29 65<207.051 511.757> 36 64<191.189 327.547 331.859 341.688 345.766 532.774> 117 83<602.223 668.404> 259 82<606.133 672.606> 361 64<151.246 508.843>
LayerCount: 2
Fore
SplineSet
41 510 m 1xf7
 48 528 67 544 83 544 c 0
 94 544 103 537 106 519 c 1
 101 461 94 402 94 343 c 0xf7
 94 315 95 288 100 261 c 0
 114 178 182 65 250 65 c 0
 281 65 313 88 340 147 c 1
 360 184 356 220 359 261 c 1
 359 297 361 334 361 371 c 0
 361 418 358 465 349 511 c 1
 349 534 368 555 387 555 c 0
 396 555 404 551 411 541 c 1
 422 486 425 432 425 378 c 0
 425 286 432 179 381 100 c 1
 344 32 281 0 237 0 c 0
 136 0 53 129 36 237 c 0xef
 31 267 29 298 29 329 c 0
 29 390 36 451 41 510 c 1xf7
304 676 m 0
 321 676 340 667 341 644 c 1
 337 613 316 599 296 599 c 0
 277 599 259 613 259 639 c 0
 259 662 271 676 304 676 c 0
164 677 m 0
 184 677 199 660 200 634 c 1
 196 610 176 596 154 596 c 0
 129 596 120 613 117 629 c 1
 117 654 140 677 164 677 c 0
EndSplineSet
Substitution2: "'c2sc' Capitals to Small Capitals in Latin lookup 1 subtable" Udieresis.smcp
EndChar

StartChar: udieresis
Encoding: 252 252 205
Width: 354
Flags: W
HStem: -1 21G<108 167> 370 20G<79.5 93 273 287> 446 77<85.2202 155.643 222.79 293.336>
VStem: 43 66<98.2446 360.078> 77 83<449.223 515.404> 219 82<453.133 519.606> 246 64<179.989 385.187> 274 63<-4.62006 53.75>
LayerCount: 2
Fore
SplineSet
50 357 m 1xf1
 55 378 72 390 87 390 c 0
 99 390 111 382 114 367 c 1
 111 333 109 290 109 252 c 0
 109 173 109 129 151 59 c 1
 196 70 236 104 256 141 c 1
 250 213 246 287 246 347 c 0
 246 370 264 389 282 389 c 0
 292 389 303 382 310 367 c 1xf2
 310 290 314 241 317 177 c 0
 319 137 337 54 337 33 c 0
 337 10 316 -10 298 -10 c 0
 288 -10 279 -4 274 10 c 1
 266 60 l 1
 229 22 185 -1 149 -1 c 0
 67 -1 43 131 43 220 c 0
 43 271 46 309 50 357 c 1xf1
264 523 m 0
 281 523 300 514 301 491 c 1
 297 460 276 446 256 446 c 0
 237 446 219 460 219 486 c 0xe4
 219 509 231 523 264 523 c 0
124 524 m 0
 144 524 159 507 160 481 c 1
 156 457 136 443 114 443 c 0
 89 443 80 460 77 476 c 1xe8
 77 501 100 524 124 524 c 0
EndSplineSet
Substitution2: "'smcp' Lowercase to Small Capitals in Latin lookup 0 subtable" Udieresis.smcp
EndChar

StartChar: Ugrave
Encoding: 217 217 206
Width: 459
Flags: W
HStem: 0 65<198.444 299.403> 524 20G<75 88.5 377.5 391.5> 598 58<226.777 292.406>
VStem: 29 65<207.051 511.757> 36 64<191.189 327.547 331.859 341.688 345.766 532.774> 361 64<151.246 508.843>
LayerCount: 2
Fore
SplineSet
41 510 m 1xf4
 48 528 67 544 83 544 c 0
 94 544 103 537 106 519 c 1
 101 461 94 402 94 343 c 0xf4
 94 315 95 288 100 261 c 0
 114 178 182 65 250 65 c 0
 281 65 313 88 340 147 c 1
 360 184 356 220 359 261 c 1
 359 297 361 334 361 371 c 0
 361 418 358 465 349 511 c 1
 349 534 368 555 387 555 c 0
 396 555 404 551 411 541 c 1
 422 486 425 432 425 378 c 0
 425 286 432 179 381 100 c 1
 344 32 281 0 237 0 c 0
 136 0 53 129 36 237 c 0xec
 31 267 29 298 29 329 c 0
 29 390 36 451 41 510 c 1xf4
196 707 m 1
 219 682 239 662 273 656 c 1
 285 648 294 637 294 626 c 0
 294 613 281 598 262 598 c 0
 215 598 148 667 148 685 c 0
 148 704 162 715 177 715 c 0
 183 715 190 712 196 707 c 1
EndSplineSet
Substitution2: "'c2sc' Capitals to Small Capitals in Latin lookup 1 subtable" Ugrave.smcp
EndChar

StartChar: ugrave
Encoding: 249 249 207
Width: 334
Flags: W
HStem: -1 21G<88 147> 370 20G<59.5 73 253 267> 441 58<159.777 225.406>
VStem: 23 66<98.2446 360.078> 226 64<179.989 385.187> 254 63<-4.62006 53.75>
LayerCount: 2
Fore
SplineSet
30 357 m 1xf4
 35 378 52 390 67 390 c 0
 79 390 91 382 94 367 c 1
 91 333 89 290 89 252 c 0
 89 173 89 129 131 59 c 1
 176 70 216 104 236 141 c 1
 230 213 226 287 226 347 c 0
 226 370 244 389 262 389 c 0
 272 389 283 382 290 367 c 1xf8
 290 290 294 241 297 177 c 0
 299 137 317 54 317 33 c 0
 317 10 296 -10 278 -10 c 0
 268 -10 259 -4 254 10 c 1
 246 60 l 1
 209 22 165 -1 129 -1 c 0
 47 -1 23 131 23 220 c 0
 23 271 26 309 30 357 c 1xf4
129 550 m 1
 152 525 172 505 206 499 c 1
 218 491 227 480 227 469 c 0
 227 456 214 441 195 441 c 0
 148 441 81 510 81 528 c 0
 81 547 95 558 110 558 c 0
 116 558 123 555 129 550 c 1
EndSplineSet
Substitution2: "'smcp' Lowercase to Small Capitals in Latin lookup 0 subtable" Ugrave.smcp
EndChar

StartChar: uring
Encoding: 367 367 208
Width: 334
Flags: W
HStem: -1 21G<88 147> 370 20G<59.5 73 253 267> 418 44<138.349 192.053> 518 35<141.449 190.94>
VStem: 23 66<98.2446 360.078> 96 42<462.273 516.042> 193 40<463.079 517.154> 226 64<179.989 385.187> 254 63<-4.62006 53.75>
LayerCount: 2
Fore
SplineSet
30 357 m 1xfc80
 35 378 52 390 67 390 c 0
 79 390 91 382 94 367 c 1
 91 333 89 290 89 252 c 0
 89 173 89 129 131 59 c 1
 176 70 216 104 236 141 c 1
 230 213 226 287 226 347 c 0
 226 370 244 389 262 389 c 0
 272 389 283 382 290 367 c 1xfd
 290 290 294 241 297 177 c 0
 299 137 317 54 317 33 c 0
 317 10 296 -10 278 -10 c 0
 268 -10 259 -4 254 10 c 1
 246 60 l 1
 209 22 165 -1 129 -1 c 0
 47 -1 23 131 23 220 c 0
 23 271 26 309 30 357 c 1xfc80
163 418 m 0
 122 418 96 458 96 483 c 0
 96 528 132 553 173 553 c 0
 209 553 233 528 233 480 c 1xfe
 230 450 206 419 163 418 c 0
170 518 m 0
 153 518 138 505 138 488 c 0
 138 476 145 462 163 462 c 0
 181 462 193 469 193 491 c 0
 193 506 183 518 170 518 c 0
EndSplineSet
EndChar

StartChar: Yacute
Encoding: 221 221 209
Width: 369
Flags: W
HStem: 535 19G<42 61.5 331 342> 589 141<156 222>
VStem: 146 57<4.76172 278.689>
LayerCount: 2
Fore
SplineSet
309 544 m 1
 318 552 327 555 335 555 c 0
 349 555 359 546 359 531 c 0
 359 526 358 521 356 516 c 1
 299 446 251 351 207 270 c 1
 207 191 203 146 203 101 c 0
 203 81 204 60 206 37 c 1
 202 19 186 2 171 2 c 0
 141 2 146 65 146 93 c 0
 146 130 148 165 148 202 c 0
 148 226 147 252 144 280 c 1
 97 349 57 433 20 507 c 0
 18 511 17 515 17 519 c 0
 17 538 34 554 50 554 c 0
 73 554 117 458 139 421 c 0
 148 406 170 359 181 344 c 1
 219 411 l 2
 243 454 271 499 309 544 c 1
197 716 m 1
 203 726 213 730 222 730 c 0
 236 730 252 718 252 693 c 1
 237 663 195 589 156 589 c 0
 136 589 126 604 126 615 c 0
 126 624 131 634 139 643 c 1
 169 659 183 685 197 716 c 1
EndSplineSet
Substitution2: "'c2sc' Capitals to Small Capitals in Latin lookup 1 subtable" Yacute.smcp
EndChar

StartChar: yacute
Encoding: 253 253 210
Width: 379
Flags: W
HStem: 368 20G<58.5 73 304.5 321> 416 141<164 230>
VStem: 35 313<355 370>
LayerCount: 2
Fore
SplineSet
35 349 m 1
 35 370 49 388 68 388 c 0
 78 388 87 383 95 371 c 1
 126 273 169 181 207 89 c 1
 233 181 250 259 279 370 c 0
 282 381 297 388 312 388 c 0
 330 388 348 379 348 359 c 0
 348 355 347 351 346 347 c 0
 282 120 215 -109 172 -231 c 0
 167 -246 156 -253 145 -253 c 0
 130 -253 114 -239 114 -214 c 0
 114 -173 162 -54 176 -1 c 1
 150 43 72 236 35 349 c 1
205 543 m 1
 211 553 221 557 230 557 c 0
 244 557 260 545 260 520 c 1
 245 490 203 416 164 416 c 0
 144 416 134 431 134 442 c 0
 134 451 139 461 147 470 c 1
 177 486 191 512 205 543 c 1
EndSplineSet
Substitution2: "'smcp' Lowercase to Small Capitals in Latin lookup 0 subtable" Yacute.smcp
EndChar

StartChar: Ydieresis
Encoding: 376 376 211
Width: 369
Flags: W
HStem: 535 19G<42 61.5 331 342> 599 77<78.2202 148.643 215.79 286.336>
VStem: 70 83<602.223 668.404> 146 57<4.76172 278.689> 212 82<606.133 672.606>
LayerCount: 2
Fore
SplineSet
309 544 m 1xd8
 318 552 327 555 335 555 c 0
 349 555 359 546 359 531 c 0
 359 526 358 521 356 516 c 1
 299 446 251 351 207 270 c 1
 207 191 203 146 203 101 c 0
 203 81 204 60 206 37 c 1
 202 19 186 2 171 2 c 0
 141 2 146 65 146 93 c 0
 146 130 148 165 148 202 c 0
 148 226 147 252 144 280 c 1
 97 349 57 433 20 507 c 0
 18 511 17 515 17 519 c 0
 17 538 34 554 50 554 c 0
 73 554 117 458 139 421 c 0
 148 406 170 359 181 344 c 1
 219 411 l 2
 243 454 271 499 309 544 c 1xd8
257 676 m 0
 274 676 293 667 294 644 c 1
 290 613 269 599 249 599 c 0
 230 599 212 613 212 639 c 0
 212 662 224 676 257 676 c 0
117 677 m 0
 137 677 152 660 153 634 c 1
 149 610 129 596 107 596 c 0
 82 596 73 613 70 629 c 1xe8
 70 654 93 677 117 677 c 0
EndSplineSet
Substitution2: "'c2sc' Capitals to Small Capitals in Latin lookup 1 subtable" Ydieresis.smcp
EndChar

StartChar: ydieresis
Encoding: 255 255 212
Width: 379
Flags: W
HStem: 368 20G<58.5 73 304.5 321> 446 77<89.2202 159.643 226.79 297.336>
VStem: 81 83<449.223 515.404> 223 82<453.133 519.606>
LayerCount: 2
Fore
SplineSet
35 349 m 1
 35 370 49 388 68 388 c 0
 78 388 87 383 95 371 c 1
 126 273 169 181 207 89 c 1
 233 181 250 259 279 370 c 0
 282 381 297 388 312 388 c 0
 330 388 348 379 348 359 c 0
 348 355 347 351 346 347 c 0
 282 120 215 -109 172 -231 c 0
 167 -246 156 -253 145 -253 c 0
 130 -253 114 -239 114 -214 c 0
 114 -173 162 -54 176 -1 c 1
 150 43 72 236 35 349 c 1
268 523 m 0
 285 523 304 514 305 491 c 1
 301 460 280 446 260 446 c 0
 241 446 223 460 223 486 c 0
 223 509 235 523 268 523 c 0
128 524 m 0
 148 524 163 507 164 481 c 1
 160 457 140 443 118 443 c 0
 93 443 84 460 81 476 c 1
 81 501 104 524 128 524 c 0
EndSplineSet
Substitution2: "'smcp' Lowercase to Small Capitals in Latin lookup 0 subtable" Ydieresis.smcp
EndChar

StartChar: Zcaron
Encoding: 381 381 213
Width: 423
Flags: W
HStem: -2 63<107 386.75> 260 63<306 360.409> 296 59<81.1528 125.86> 491 63<38.0071 286.065>
LayerCount: 2
Fore
SplineSet
87 296 m 1xb0
 80 303 77 311 77 318 c 0
 77 337 96 355 118 355 c 0xb0
 121 355 123 354 126 354 c 1
 157 337 193 334 233 330 c 1
 269 376 303 417 331 469 c 1
 251 487 123 491 59 491 c 0
 39 491 31 501 31 512 c 0
 31 529 48 551 69 554 c 1
 144 554 319 546 391 520 c 1
 403 512 406 506 406 495 c 0
 406 493 406 491 406 489 c 0
 379 429 344 373 306 323 c 1
 319 323 329 323 341 324 c 1
 358 321 365 312 365 301 c 0
 365 252 298 260 256 260 c 1xd0
 186 180 141 169 107 63 c 1
 154 63 202 61 251 61 c 0
 291 61 332 62 373 67 c 1
 390 64 397 55 397 44 c 0
 397 -13 290 -2 233 -2 c 0
 201 -2 168 -2 136 -2 c 0
 112 -2 88 -3 64 -3 c 0
 44 -3 37 4 37 24 c 1
 59 146 107 176 180 266 c 1
 149 271 117 280 87 296 c 1xb0
288 710 m 0
 293 716 306 721 317 721 c 0
 329 721 339 716 339 703 c 0
 339 701 338 699 338 697 c 0
 330 676 243 594 222 594 c 0
 199 594 126 667 113 703 c 1
 115 719 125 726 137 726 c 0
 164 726 182 686 222 649 c 1
 249 669 269 687 288 710 c 0
EndSplineSet
Substitution2: "'c2sc' Capitals to Small Capitals in Latin lookup 1 subtable" Zcaron.smcp
EndChar

StartChar: zcaron
Encoding: 382 382 214
Width: 357
Flags: W
HStem: -1 66<121.241 310.958> 322 61<44.8183 243.254>
VStem: 26 311
LayerCount: 2
Fore
SplineSet
61 310 m 0
 54 314 26 313 26 346 c 0
 26 389 70 383 145 383 c 0
 222 383 324 373 324 313 c 0
 324 211 166 157 120 74 c 1
 133 68 148 65 164 65 c 0
 208 65 262 81 311 81 c 0
 329 81 337 67 337 56 c 0
 337 3 233 -1 167 -1 c 0
 99 -1 44 7 44 61 c 0
 44 156 223 233 246 296 c 1
 238 316 212 322 182 322 c 0
 140 322 88 310 65 310 c 0
 64 310 62 310 61 310 c 0
233 549 m 0
 238 555 251 560 262 560 c 0
 274 560 284 555 284 542 c 0
 284 540 283 538 283 536 c 0
 275 515 188 433 167 433 c 0
 144 433 71 506 58 542 c 1
 60 558 70 565 82 565 c 0
 109 565 127 525 167 488 c 1
 194 508 214 526 233 549 c 0
EndSplineSet
Substitution2: "'smcp' Lowercase to Small Capitals in Latin lookup 0 subtable" Zcaron.smcp
EndChar

StartChar: fl
Encoding: 64258 64258 215
Width: 469
Flags: W
HStem: 0 64<311.957 382.358> 295 61<-30.6918 60 124 220> 579 61<163.195 222.02>
VStem: 71 63<6.2687 251.424> 219 74<84.4803 295 356 577.027> 219 67<161.861 295 356 550.592>
LayerCount: 2
Fore
SplineSet
-6 297 m 0xf4
 -20 299 -33 315 -33 325 c 0
 -33 357 9 360 27 360 c 0
 37 360 37 360 60 359 c 1
 63 526 90 640 201 640 c 0
 270 640 293 626 293 552 c 1xf8
 291 523 286 427 286 343 c 0
 286 283 289 220 291 159 c 0
 293 112 310 64 353 64 c 0
 381 64 400 130 434 130 c 0
 447 130 459 121 459 107 c 0
 459 81 394 0 337 0 c 0
 223 0 221 169 221 295 c 1
 124 295 l 1
 129 173 134 163 134 36 c 1
 131 16 109 0 93 0 c 0
 81 0 71 7 71 26 c 0
 71 156 64 146 60 295 c 1
 51 295 45 295 40 295 c 0
 26 295 22 295 18 295 c 0
 13 295 9 295 -6 297 c 0xf4
223 579 m 1
 117 579 121 450 121 356 c 1
 220 356 l 1
 220 396 219 435 219 475 c 0
 219 509 220 543 223 579 c 1
EndSplineSet
Ligature2: "'liga' Standard Ligatures in Latin lookup 2 subtable" f l
EndChar

StartChar: fi
Encoding: 64257 64257 216
Width: 301
Flags: W
HStem: -1 21G<97 111> 327 64<-26.6779 64 129 199.713> 533 63<132.414 202.532>
VStem: 64 62<99.646 327 391 525.732> 81 63<5.43359 255.404> 200 73<38.5261 331 452.031 530.924> 210 61<-0.214844 243.568>
LayerCount: 2
Fore
SplineSet
-1 330 m 0xf0
 -16 331 -29 347 -29 357 c 0
 -29 391 13 393 36 393 c 0
 42 393 45 393 64 391 c 1
 67 559 97 596 169 596 c 0
 258 596 273 537 273 490 c 0
 273 466 260 449 236 449 c 0
 216 449 200 466 200 487 c 0
 200 493 203 501 203 507 c 0
 203 522 193 533 181 533 c 0
 132 533 124 509 124 464 c 0
 124 443 126 418 126 389 c 1
 186 391 l 2
 191 391 199 392 208 392 c 0
 235 392 271 387 273 357 c 0xf4
 274 335 275 312 275 288 c 0
 275 219 270 145 270 77 c 0
 270 62 270 47 271 33 c 1
 268 13 251 -5 234 -5 c 0
 225 -5 216 1 210 16 c 1xe2
 207 95 199 186 199 278 c 0
 199 295 199 313 200 331 c 1
 194 329 180 327 173 327 c 2
 129 327 l 1
 133 206 144 163 144 36 c 1
 141 16 119 -1 103 -1 c 0
 91 -1 81 7 81 26 c 0xec
 81 156 69 179 64 327 c 1
 26 329 33 326 -1 330 c 0xf0
EndSplineSet
Ligature2: "'liga' Standard Ligatures in Latin lookup 2 subtable" f i
EndChar

StartChar: f_f
Encoding: 64256 64256 217
Width: 401
Flags: W
HStem: -1 21G<130 143.5> 327 64<10.4688 100 164 244 309 398.019> 533 63<167.41 243.055 311.66 397.506>
VStem: 100 62<104.466 329 391 529.691> 114 63<5.94752 251.74> 242 63<101.038 327 391 527.893> 259 62<3.43359 250.127>
LayerCount: 2
Fore
SplineSet
34 331 m 0xf0
 20 333 7 349 7 359 c 0
 7 377 27 393 49 393 c 0
 81 393 81 391 100 391 c 1
 103 559 110 596 181 596 c 0
 216 596 244 591 251 567 c 1
 260 585 286 594 318 594 c 0
 353 594 419 584 419 535 c 0
 419 523 414 514 403 514 c 0
 381 514 370 531 344 531 c 0
 310 531 305 507 305 461 c 0xf4
 305 441 306 418 306 390 c 1
 359 390 l 2
 389 390 401 385 401 360 c 0
 401 344 382 327 360 327 c 2
 309 327 l 1
 313 206 321 161 321 34 c 1
 319 14 296 -3 280 -3 c 0
 269 -3 259 6 259 24 c 0
 259 154 249 179 244 327 c 1
 233 327 226 328 220 328 c 0
 214 328 208 327 201 327 c 0
 193 327 182 328 164 329 c 1
 169 207 177 163 177 36 c 1
 174 16 151 -1 136 -1 c 0
 124 -1 114 7 114 26 c 0xea
 114 156 104 180 100 329 c 1
 94 329 89 329 84 329 c 0
 74 329 68 329 62 329 c 0
 56 329 49 329 34 331 c 0xf0
163 391 m 1
 244 391 l 1
 244 426 242 444 242 460 c 0
 242 472 245 483 245 499 c 0
 245 515 238 533 200 533 c 0
 167 533 162 512 162 469 c 0
 162 448 163 422 163 391 c 1
EndSplineSet
Ligature2: "'liga' Standard Ligatures in Latin lookup 2 subtable" f f
EndChar

StartChar: f_f_i
Encoding: 64259 64259 218
Width: 464
Flags: W
HStem: -1 21G<108.5 122> 327 64<-11.5528 78 143 223 287 359.547> 531 64<144.152 221.144 288.444 360.959>
VStem: 78 62<104.466 329 391 529.691> 93 63<5.94752 251.74> 223 60<102.565 327 391 527.565> 237 63<3.94752 250.127> 360 73<38.5261 331 452.031 528.024> 370 61<-0.214844 243.568>
LayerCount: 2
Fore
SplineSet
361 496 m 0xf1
 362 499 362 502 362 504 c 0
 362 523 343 531 323 531 c 0
 288 531 283 507 283 460 c 0
 283 441 284 417 284 390 c 1
 331 391 l 2
 335 391 343 391 352 391 c 0
 383 391 431 388 433 357 c 0xf5
 434 335 435 312 435 288 c 0
 435 219 430 145 430 77 c 0
 430 62 430 47 431 33 c 1
 428 13 411 -5 394 -5 c 0
 385 -5 376 1 370 16 c 1xe080
 367 95 359 186 359 278 c 0
 359 295 359 313 360 331 c 1
 350 328 327 327 305 327 c 0
 299 327 293 327 287 327 c 1
 291 206 300 161 300 34 c 1
 297 14 274 -3 258 -3 c 0
 247 -3 237 6 237 24 c 0xe3
 237 154 227 179 223 327 c 1
 212 327 205 328 199 328 c 0
 192 328 187 327 180 327 c 0
 172 327 161 328 143 329 c 1
 147 207 156 163 156 36 c 1
 153 16 130 -1 114 -1 c 0
 103 -1 93 7 93 26 c 0xec
 93 156 83 180 78 329 c 1
 72 329 67 329 63 329 c 0
 52 329 47 329 41 329 c 0
 31 329 -14 330 -14 359 c 0
 -14 377 6 393 27 393 c 0
 60 393 60 391 78 391 c 1
 81 559 88 596 160 596 c 0
 194 596 224 591 231 567 c 1
 241 586 284 595 319 595 c 0
 381 595 433 563 433 490 c 0
 433 466 420 449 396 449 c 0
 376 449 360 466 360 487 c 0
 360 490 360 493 361 496 c 0xf1
141 391 m 1
 223 391 l 1
 223 426 221 444 221 460 c 0
 221 471 223 482 223 496 c 0
 223 513 218 533 178 533 c 0
 145 533 140 511 140 466 c 0
 140 446 141 421 141 391 c 1
EndSplineSet
Ligature2: "'liga' Standard Ligatures in Latin lookup 2 subtable" f f i
EndChar

StartChar: l_l
Encoding: 65547 -1 219
Width: 387
Flags: W
HStem: -4 68<129.234 195.743 310.568 355.038>
VStem: 36 63<113.355 532.174> 217 63<114.372 522.679>
LayerCount: 2
Fore
SplineSet
236 561 m 0
 240 579 259 593 275 593 c 0
 288 593 299 586 303 567 c 1
 284 416 280 389 280 269 c 0
 280 219 287 95 327 64 c 1
 329 64 l 1
 360 73 372 123 400 123 c 0
 414 123 426 109 426 80 c 0
 426 41 376 -4 324 -4 c 0
 290 -4 267 17 254 46 c 1
 235 19 185 -4 144 -4 c 0
 76 -4 63 64 53 110 c 0
 39 171 36 232 36 349 c 0
 36 436 45 518 54 561 c 0
 58 579 77 593 94 593 c 0
 106 593 117 586 121 567 c 1
 102 416 99 389 99 269 c 0
 99 219 105 95 146 64 c 1
 147 64 l 1
 183 73 226 100 231 121 c 1
 221 174 217 229 217 324 c 0
 217 420 226 514 236 561 c 0
EndSplineSet
Ligature2: "'liga' Standard Ligatures in Latin lookup 2 subtable" l l
EndChar

StartChar: Euro
Encoding: 8364 8364 220
Width: 401
Flags: W
HStem: 10 57<219.062 341.976> 211 58<17.147 59 131 315.831> 316 57<16.9102 61 140.752 315.128> 504 49<227.204 366.471>
VStem: 59 59<269 313>
LayerCount: 2
Fore
SplineSet
293 269 m 1
 309 263 317 251 317 240 c 0
 317 227 309 214 291 211 c 1
 131 211 l 1
 161 141 217 67 271 67 c 0
 303 67 326 90 353 90 c 0
 367 90 381 79 381 60 c 0
 381 26 309 10 269 10 c 0
 169 10 96 133 71 211 c 1
 46 211 l 1
 26 214 16 227 16 240 c 0
 16 254 27 267 47 269 c 1
 59 269 l 1
 59 293 59 297 61 316 c 1
 44 316 l 2
 29 316 16 330 16 344 c 0
 16 351 17 369 47 373 c 1
 71 373 l 1
 107 451 149 553 303 553 c 0
 353 553 404 541 404 503 c 0
 404 486 390 481 376 481 c 0
 354 481 323 504 287 504 c 0
 244 504 179 461 140 369 c 1
 156 367 174 367 251 367 c 0
 283 367 320 366 320 336 c 0
 320 323 313 313 296 310 c 1
 237 310 181 310 121 313 c 1
 119 298 118 291 118 286 c 0
 118 280 119 277 120 269 c 1
 293 269 l 1
EndSplineSet
Substitution2: "'smcp' Lowercase to Small Capitals in Latin lookup 0 subtable" Euro.smcp
EndChar

StartChar: quotesinglbase
Encoding: 8218 8218 221
Width: 174
Flags: W
HStem: -73 160<67.8815 98.5926>
VStem: 67 57<-21.6147 86.1431>
LayerCount: 2
Fore
SplineSet
67 61 m 1
 70 79 83 87 96 87 c 0
 107 87 119 79 124 63 c 1
 124 26 113 -73 66 -73 c 0
 46 -73 38 -60 38 -44 c 0
 38 -38 39 -33 41 -27 c 1
 64 -1 67 27 67 61 c 1
EndSplineSet
EndChar

StartChar: quotedblbase
Encoding: 8222 8222 222
Width: 249
Flags: W
HStem: -73 160<56.8641 86.7923 156.864 186.792>
VStem: 56 57<-21.6147 85.993> 156 57<-21.6147 85.993>
LayerCount: 2
Fore
SplineSet
56 61 m 1
 59 79 71 87 84 87 c 0
 96 87 107 79 113 63 c 1
 113 26 101 -73 54 -73 c 0
 35 -73 27 -60 27 -44 c 0
 27 -38 28 -33 30 -27 c 1
 53 -1 56 27 56 61 c 1
156 61 m 1
 159 79 171 87 184 87 c 0
 196 87 207 79 213 63 c 1
 213 26 201 -73 154 -73 c 0
 135 -73 127 -60 127 -44 c 0
 127 -38 128 -33 130 -27 c 1
 153 -1 156 27 156 61 c 1
EndSplineSet
EndChar

StartChar: quotedblleft
Encoding: 8220 8220 223
Width: 263
Flags: W
HStem: 476 160<74.0051 104.901 174.005 204.901>
VStem: 49 57<526.909 635.057> 149 57<526.909 635.057>
LayerCount: 2
Fore
SplineSet
206 610 m 1
 206 576 209 547 231 521 c 1
 233 515 234 509 234 504 c 0
 234 489 226 476 207 476 c 0
 160 476 149 574 149 611 c 1
 154 627 166 636 177 636 c 0
 190 636 203 627 206 610 c 1
106 610 m 1
 106 576 109 547 131 521 c 1
 133 515 134 509 134 504 c 0
 134 489 126 476 107 476 c 0
 60 476 49 574 49 611 c 1
 54 627 66 636 77 636 c 0
 90 636 103 627 106 610 c 1
EndSplineSet
EndChar

StartChar: quotedblright
Encoding: 8221 8221 224
Width: 253
Flags: W
HStem: 486 160<72.0992 103.114 172.099 203.114>
VStem: 71 58<536.909 644.718> 171 58<536.909 644.718>
LayerCount: 2
Fore
SplineSet
71 620 m 1
 74 637 87 646 100 646 c 0
 111 646 123 637 129 621 c 1
 129 584 117 486 70 486 c 0
 51 486 43 499 43 514 c 0
 43 520 44 525 46 531 c 1
 69 557 71 586 71 620 c 1
171 620 m 1
 174 637 187 646 200 646 c 0
 211 646 223 637 229 621 c 1
 229 584 217 486 170 486 c 0
 151 486 143 499 143 514 c 0
 143 520 144 525 146 531 c 1
 169 557 171 586 171 620 c 1
EndSplineSet
EndChar

StartChar: ellipsis
Encoding: 8230 8230 225
Width: 476
Flags: W
HStem: 1 99<58.2063 127.238 185.206 254.238 315.206 384.238>
VStem: 46 91<9.10536 89.7278> 173 91<9.10536 89.7278> 303 91<9.10536 89.7278>
LayerCount: 2
Fore
SplineSet
137 50 m 1
 137 27 117 1 91 1 c 0
 74 1 46 13 46 34 c 0
 46 59 59 100 93 100 c 0
 104 100 133 89 137 50 c 1
264 50 m 1
 264 27 244 1 219 1 c 0
 201 1 173 13 173 34 c 0
 173 59 186 100 220 100 c 0
 231 100 260 89 264 50 c 1
394 50 m 1
 394 27 374 1 349 1 c 0
 331 1 303 13 303 34 c 0
 303 59 316 100 350 100 c 0
 361 100 390 89 394 50 c 1
EndSplineSet
EndChar

StartChar: endash
Encoding: 8211 8211 226
Width: 350
Flags: W
HStem: 256 63<32.9446 318.922>
VStem: 30 291<259.309 313.438>
LayerCount: 2
Fore
SplineSet
287 256 m 1
 61 256 l 2
 39 256 30 270 30 283 c 0
 30 304 44 314 71 319 c 1
 290 319 l 1
 310 313 321 301 321 287 c 0
 321 267 310 261 287 256 c 1
EndSplineSet
EndChar

StartChar: emdash
Encoding: 8212 8212 227
Width: 540
Flags: W
HStem: 256 63<32.9446 508.922>
LayerCount: 2
Fore
SplineSet
477 256 m 1
 61 256 l 2
 39 256 30 270 30 283 c 0
 30 304 44 314 71 319 c 1
 480 319 l 1
 500 313 511 301 511 287 c 0
 511 267 500 261 477 256 c 1
EndSplineSet
EndChar

StartChar: trademark
Encoding: 8482 8482 228
Width: 397
Flags: W
HStem: 413 178<73.1622 114.43 205.468 243.787 319.901 363.693> 544 47<20.436 73 116 165.011>
VStem: 73 43<413.421 544> 199 47<411.234 491.837> 319 45<413.354 493>
LayerCount: 2
Fore
SplineSet
246 441 m 1xb8
 244 424 236 411 221 411 c 0
 211 411 199 423 199 440 c 0
 199 485 188 591 229 591 c 0
 253 591 270 549 284 529 c 1
 300 554 317 591 346 591 c 0
 356 591 363 576 367 563 c 1
 367 503 364 497 364 437 c 0
 364 420 350 413 339 413 c 0
 310 413 319 468 319 493 c 1
 307 476 293 464 280 464 c 0
 270 464 257 476 244 493 c 1
 246 441 l 1xb8
43 544 m 2x78
 25 544 20 558 20 566 c 0
 20 586 58 591 96 591 c 0
 133 591 164 587 166 571 c 1
 166 559 154 549 137 546 c 1
 116 546 l 1
 117 497 119 490 119 441 c 1
 116 424 104 413 90 413 c 0xb8
 81 413 71 420 71 436 c 0
 71 480 73 490 73 525 c 0
 73 530 73 537 73 544 c 1
 43 544 l 2x78
EndSplineSet
EndChar

StartChar: Omega
Encoding: 937 937 229
AltUni2: 002126.ffffffff.0
Width: 456
Flags: W
HStem: 3 80<41.3394 130.7 326.864 422.366> 483 71<167.251 277.212>
VStem: 36 154<8.35385 82.5322> 55 71<222.364 436.638> 270 56<37 188.991> 316 74<241.994 435.348>
LayerCount: 2
Fore
SplineSet
67 4 m 1xe0
 47 7 36 28 36 48 c 0xe0
 36 68 46 87 66 89 c 1
 131 83 l 1
 123 136 96 170 77 221 c 0
 63 257 55 305 55 352 c 0
 55 453 96 554 226 554 c 0
 348 554 390 433 390 341 c 0xd4
 390 250 326 181 326 88 c 0
 326 81 343 83 351 83 c 0
 369 83 388 84 404 84 c 1
 420 79 427 64 427 48 c 0
 427 -5 379 3 348 3 c 0
 300 3 270 10 270 64 c 0xc8
 270 161 295 206 311 277 c 0
 314 289 316 307 316 327 c 0
 316 392 296 483 229 483 c 0
 145 483 126 404 126 342 c 0xd4
 126 315 130 290 133 274 c 0
 141 231 180 130 186 99 c 0
 189 82 190 68 190 57 c 0
 190 10 167 1 127 1 c 0
 110 1 90 3 67 4 c 1xe0
EndSplineSet
EndChar

StartChar: radical
Encoding: 8730 8730 230
Width: 461
Flags: W
HStem: -2 21G<169.5 194> 188 58<45.2598 123.084> 497 59<344.618 425.576>
LayerCount: 2
Fore
SplineSet
44 189 m 1
 41 192 39 198 39 204 c 0
 39 222 53 246 99 246 c 0
 153 246 164 233 187 143 c 1
 239 344 l 2
 251 391 263 437 281 480 c 0
 307 545 317 556 352 556 c 0
 370 556 427 560 427 526 c 0
 427 513 418 501 401 497 c 1
 381 499 377 499 357 499 c 1
 310 426 296 320 274 237 c 0
 255 164 237 91 214 19 c 0
 209 5 199 -2 189 -2 c 0
 150 -2 130 123 120 187 c 1
 117 187 113 188 110 188 c 0
 96 188 82 183 68 183 c 0
 61 183 52 185 44 189 c 1
EndSplineSet
EndChar

StartChar: onehalf
Encoding: 189 189 231
Width: 489
Flags: W
HStem: 0 54<360 416.157> 141 65<319.565 362.925> 370 20G<122 150.5 355 364.5>
VStem: 96 61<183.545 305.455> 363 66<100.673 170.5>
LayerCount: 2
Fore
SplineSet
69 290 m 1
 51 290 44 299 44 316 c 0
 44 339 103 390 141 390 c 0
 160 390 171 379 171 349 c 0
 171 306 159 253 157 217 c 0
 156 197 137 180 124 180 c 0
 111 180 99 190 96 210 c 1
 97 243 104 274 109 307 c 1
 103 301 90 299 69 290 c 1
360 141 m 1
 347 141 331 129 319 129 c 0
 304 129 290 139 290 157 c 0
 290 187 333 206 360 206 c 0
 391 206 429 194 429 147 c 0
 429 114 384 74 360 54 c 1
 382 54 399 61 417 61 c 0
 434 61 441 45 441 34 c 0
 441 -7 392 0 354 0 c 0
 324 0 289 3 289 31 c 0
 289 74 363 93 363 127 c 0
 363 132 362 136 360 141 c 1
344 387 m 0
 348 389 353 390 357 390 c 0
 372 390 382 376 382 362 c 0
 382 353 379 344 371 337 c 1
 376 341 158 51 137 19 c 0
 128 6 119 1 108 1 c 0
 92 1 77 14 77 30 c 0
 77 35 78 39 81 44 c 0
 139 121 199 193 250 271 c 0
 276 310 319 376 344 387 c 0
EndSplineSet
EndChar

StartChar: onequarter
Encoding: 188 188 232
Width: 446
Flags: W
HStem: -1 21G<353.5 374> 370 20G<122 150.5 355 364.5>
VStem: 96 61<183.545 305.455> 334 52<-0.566162 61>
LayerCount: 2
Fore
SplineSet
69 290 m 1
 51 290 44 299 44 316 c 0
 44 339 103 390 141 390 c 0
 160 390 171 379 171 349 c 0
 171 306 159 253 157 217 c 0
 156 197 137 180 124 180 c 0
 111 180 99 190 96 210 c 1
 97 243 104 274 109 307 c 1
 103 301 90 299 69 290 c 1
344 387 m 0
 348 389 353 390 357 390 c 0
 372 390 382 376 382 362 c 0
 382 353 379 344 371 337 c 1
 376 341 158 51 137 19 c 0
 128 6 119 1 108 1 c 0
 92 1 77 14 77 30 c 0
 77 35 78 39 81 44 c 0
 139 121 199 193 250 271 c 0
 276 310 319 376 344 387 c 0
337 204 m 1
 343 209 352 212 360 212 c 0
 378 212 396 201 396 179 c 1
 390 151 389 131 387 113 c 1
 398 111 406 103 406 89 c 0
 406 74 398 71 386 66 c 1
 381 37 389 -1 359 -1 c 0
 348 -1 336 8 334 26 c 1
 334 61 l 1
 327 61 321 61 314 61 c 0
 268 61 255 67 255 88 c 0
 255 91 255 94 256 97 c 0
 276 137 309 173 337 204 c 1
313 109 m 1
 343 113 336 120 336 140 c 1
 329 133 321 124 313 109 c 1
EndSplineSet
EndChar

StartChar: threequarters
Encoding: 190 190 233
Width: 447
Flags: W
HStem: -1 21G<348 368.5> 61 49<307.419 329> 190 59<44.7042 119.727> 333 56<51.2922 119.531>
VStem: 86 85<296 349> 329 51<-0.577148 61>
LayerCount: 2
Fore
SplineSet
343 387 m 0
 347 389 351 390 355 390 c 0
 370 390 380 376 380 361 c 0
 380 353 377 344 370 337 c 1
 374 341 157 51 136 19 c 0
 128 6 117 1 107 1 c 0
 91 1 76 14 76 30 c 0
 76 34 77 39 80 44 c 0
 137 121 197 193 249 271 c 0
 275 310 316 376 343 387 c 0
331 204 m 1
 337 209 346 212 354 212 c 0
 372 212 390 201 390 179 c 1
 384 151 383 131 381 113 c 1
 393 111 401 103 401 89 c 0
 401 74 393 70 380 66 c 1
 377 36 383 -1 354 -1 c 0
 342 -1 331 8 329 26 c 1
 329 61 l 1
 322 61 315 61 309 61 c 0
 260 61 249 69 249 88 c 0
 249 91 249 94 250 97 c 0
 270 137 303 173 331 204 c 1
307 109 m 1
 316 110 321 110 329 110 c 1
 330 120 330 130 330 140 c 1
 323 133 316 124 307 109 c 1
120 324 m 1
 116 332 104 333 93 333 c 0
 86 333 79 333 74 333 c 0
 61 333 50 341 50 357 c 0
 50 386 73 389 93 389 c 0
 127 389 171 380 171 349 c 0
 171 337 169 306 146 294 c 1
 167 290 177 261 177 247 c 0
 177 230 157 190 116 190 c 0
 90 190 37 201 37 227 c 0
 37 240 49 253 67 254 c 1
 78 252 88 249 97 249 c 0
 106 249 113 252 120 264 c 1
 96 274 86 277 86 296 c 0
 86 307 87 307 120 324 c 1
EndSplineSet
EndChar

StartChar: florin
Encoding: 402 402 234
Width: 481
Flags: W
HStem: -250 73<51.825 169.873> 324 65<33.8048 186 251 401.005> 526 71<262.148 410.497>
VStem: 185 65<-163.516 324 389 514.253>
LayerCount: 2
Fore
SplineSet
60 324 m 2
 38 324 29 336 29 349 c 0
 29 366 42 386 63 389 c 1
 187 389 l 1
 187 412 185 440 185 467 c 0
 185 573 238 597 310 597 c 0
 363 597 435 588 435 550 c 0
 435 533 422 517 402 517 c 0
 382 517 352 526 324 526 c 0
 234 526 251 475 251 389 c 1
 383 389 l 1
 400 385 407 376 407 365 c 0
 407 348 392 329 373 324 c 1
 250 324 l 1
 250 21 l 2
 250 8 249 -6 249 -19 c 0
 249 -46 250 -72 250 -99 c 0
 250 -196 232 -250 105 -250 c 0
 75 -250 32 -250 32 -217 c 0
 32 -197 47 -167 67 -167 c 0
 91 -167 113 -177 135 -177 c 0
 181 -177 185 -117 185 -38 c 0
 185 -11 184 10 184 11 c 2
 186 324 l 1
 60 324 l 2
EndSplineSet
EndChar

StartChar: dagger
Encoding: 8224 8224 235
Width: 331
Flags: W
HStem: -1 21G<149 163.5> 390 64<34.7282 133 197 298.699>
VStem: 133 64<5.72817 389 454 589.868>
LayerCount: 2
Fore
SplineSet
56 390 m 2
 36 390 28 400 28 412 c 0
 28 429 44 451 66 454 c 1
 133 454 l 1
 133 561 l 1
 138 580 157 596 173 596 c 0
 184 596 194 589 197 571 c 1
 197 453 l 1
 280 453 l 1
 297 449 304 440 304 429 c 0
 304 413 289 394 270 389 c 1
 197 389 l 1
 197 37 l 1
 193 15 172 -1 155 -1 c 0
 143 -1 133 7 133 27 c 2
 133 390 l 1
 56 390 l 2
EndSplineSet
EndChar

StartChar: daggerdbl
Encoding: 8225 8225 236
Width: 343
Flags: W
HStem: -1 21G<150 164.5> 124 65<35.5 134 199 299.451> 390 64<36.0071 134 199 300.618>
VStem: 134 65<6.37317 124 190 389 454 589.451>
LayerCount: 2
Fore
SplineSet
57 390 m 2
 37 390 29 400 29 411 c 0
 29 429 46 451 67 454 c 1
 134 454 l 1
 134 561 l 1
 139 580 159 596 174 596 c 0
 186 596 194 589 199 571 c 1
 199 453 l 1
 281 453 l 1
 299 449 306 440 306 429 c 0
 306 413 290 393 271 389 c 1
 199 389 l 1
 199 189 l 1
 281 189 l 1
 299 184 306 176 306 164 c 0
 306 149 290 129 271 124 c 1
 199 124 l 1
 199 37 l 1
 196 16 173 -1 156 -1 c 0
 144 -1 134 7 134 27 c 2
 134 126 l 1
 57 126 l 2
 37 126 29 136 29 147 c 0
 29 164 46 187 67 190 c 1
 134 190 l 1
 134 390 l 1
 57 390 l 2
EndSplineSet
EndChar

StartChar: perthousand
Encoding: 8240 8240 237
Width: 799
Flags: W
HStem: 6 57<339.207 428.422 600.508 689.887> 184 57<353.37 442.181 614.585 703.608> 290 64<100.304 190.269> 490 49<122.255 207.692>
VStem: 36 61<357.46 465.125> 214 63<377.579 485.911> 270 62<70.2155 163.344> 451 55<85.0934 178.083> 531 62<70.2155 163.344> 713 54<86.5783 177.712>
LayerCount: 2
Fore
SplineSet
169 539 m 0xfdc0
 226 539 277 510 277 446 c 0
 277 374 211 290 136 290 c 0
 90 290 36 326 36 404 c 0
 36 490 103 539 169 539 c 0xfdc0
400 530 m 0
 409 540 419 541 427 541 c 0
 448 541 454 529 454 521 c 0
 453 502 416 438 394 406 c 0
 312 287 205 118 159 40 c 0
 144 15 127 6 113 6 c 0
 95 6 81 21 81 34 c 0
 81 66 137 118 167 163 c 0
 255 292 242 285 343 441 c 0
 366 476 370 496 400 530 c 0
406 241 m 0
 464 241 506 187 506 127 c 0
 506 51 447 6 373 6 c 0
 321 6 270 36 270 106 c 0xfbc0
 270 184 341 241 406 241 c 0
214 429 m 0xfdc0
 214 454 210 490 177 490 c 0
 121 490 97 447 97 401 c 0
 97 364 107 354 139 354 c 0
 170 354 214 381 214 429 c 0xfdc0
451 126 m 0
 451 141 446 184 410 184 c 0
 379 184 332 165 332 114 c 0xfbc0
 332 74 359 63 379 63 c 0
 416 63 451 99 451 126 c 0
667 241 m 0
 726 241 767 187 767 127 c 0
 767 51 709 6 634 6 c 0
 583 6 531 36 531 106 c 0
 531 184 603 241 667 241 c 0
713 126 m 0
 713 141 707 184 671 184 c 0
 640 184 593 165 593 114 c 0
 593 74 621 63 640 63 c 0
 677 63 713 99 713 126 c 0
EndSplineSet
Substitution2: "'smcp' Lowercase to Small Capitals in Latin lookup 0 subtable" perthousand.smcp
EndChar

StartChar: bullet
Encoding: 8226 8226 238
Width: 294
Flags: W
HStem: 137 132<101.79 194.016>
VStem: 83 130<155.086 250.299>
LayerCount: 2
Fore
SplineSet
160 269 m 0
 190 266 213 223 213 211 c 0
 213 169 187 137 146 137 c 0
 113 137 83 166 83 214 c 0
 83 250 120 269 151 269 c 0
 154 269 157 269 160 269 c 0
EndSplineSet
EndChar

StartChar: guilsinglleft
Encoding: 8249 8249 239
Width: 254
Flags: W
HStem: 69 287<167 193>
VStem: 46 170
LayerCount: 2
Fore
SplineSet
154 339 m 0
 160 346 186 356 193 356 c 0
 208 356 216 345 216 331 c 0
 216 293 124 230 106 206 c 1
 134 180 194 133 194 99 c 0
 194 80 183 69 167 69 c 0
 160 69 130 90 124 99 c 0
 84 154 46 161 46 203 c 0
 46 261 119 294 154 339 c 0
EndSplineSet
EndChar

StartChar: guilsinglright
Encoding: 8250 8250 240
Width: 250
Flags: W
HStem: 56 287<67 86>
VStem: 50 159
LayerCount: 2
Fore
SplineSet
101 334 m 0
 119 316 209 219 209 194 c 1
 204 147 153 113 140 99 c 0
 124 81 109 56 84 56 c 0
 67 56 56 67 56 83 c 0
 56 117 130 157 147 190 c 1
 121 217 50 295 50 321 c 0
 50 333 65 343 79 343 c 0
 86 343 94 340 101 334 c 0
EndSplineSet
EndChar

StartChar: infinity
Encoding: 8734 8734 241
Width: 813
Flags: W
HStem: -6 67<176.835 288.441> 3 63<527.226 643.785> 281 63<166.19 269.859> 373 20G<541.5 627>
VStem: 67 62<110.165 241.253> 694 59<120.897 274.358>
LayerCount: 2
Fore
SplineSet
577 393 m 1xbc
 677 386 753 346 753 212 c 0
 753 106 697 3 571 3 c 0x7c
 495 3 441 57 387 124 c 1
 349 66 300 -6 216 -6 c 0
 131 -6 67 84 67 171 c 0
 67 256 145 344 234 344 c 0
 291 344 332 301 389 237 c 1
 457 349 506 384 577 393 c 1xbc
600 66 m 0
 658 75 694 139 694 201 c 0
 694 262 659 321 577 327 c 1
 484 314 467 246 430 187 c 1
 470 138 520 66 593 66 c 0
 595 66 597 66 600 66 c 0
233 61 m 1xbc
 291 61 324 122 350 173 c 1
 313 223 263 281 220 281 c 0
 162 281 129 219 129 179 c 0
 129 121 173 63 233 61 c 1xbc
EndSplineSet
EndChar

StartChar: pi
Encoding: 960 960 242
Width: 514
Flags: W
HStem: 291 78<207 288.643> 314 77<369.28 461.623>
VStem: 130 77<-1.91672 291> 289 77<5.6084 299>
LayerCount: 2
Fore
SplineSet
289 40 m 1x70
 290 299 l 1
 261 295 235 292 207 291 c 1
 207 34 l 1
 205 7 188 -7 170 -7 c 0
 153 -7 134 6 130 33 c 1
 130 294 l 1
 111 296 91 300 69 304 c 1
 50 312 42 326 42 340 c 0
 42 359 58 378 84 380 c 1
 125 372 159 369 191 369 c 0xb0
 266 369 327 386 433 391 c 1
 456 384 466 368 466 352 c 0
 466 336 454 319 431 314 c 1
 407 313 386 311 367 309 c 1
 366 43 l 1
 363 15 345 1 327 1 c 0
 309 1 292 14 289 40 c 1x70
EndSplineSet
EndChar

StartChar: approxequal
Encoding: 8776 8776 243
Width: 476
Flags: W
HStem: 127 50<261.378 345.629> 176 57<145.703 234.951> 264 51<260.763 344.892> 315 50<141.489 233.003>
LayerCount: 2
Fore
SplineSet
139 290 m 1x10
 133 275 119 268 107 268 c 0
 94 268 82 276 82 290 c 0
 82 346 133 365 164 365 c 0x10
 205 365 253 344 291 319 c 0
 295 316 300 315 305 315 c 0
 344 315 350 359 383 359 c 0
 394 359 409 352 409 330 c 0
 409 288 342 264 314 264 c 0x20
 257 264 217 315 179 315 c 0
 166 315 152 308 139 290 c 1x10
134 140 m 0
 127 131 118 127 110 127 c 0x80
 94 127 79 140 79 155 c 0
 79 202 146 233 187 233 c 0x40
 249 233 261 180 303 177 c 1
 349 177 353 229 390 229 c 0
 409 229 415 221 415 212 c 0
 415 198 403 182 400 179 c 0
 385 164 340 127 294 127 c 0x80
 245 127 233 176 187 176 c 0x40
 162 176 148 158 134 140 c 0
EndSplineSet
EndChar

StartChar: summation
Encoding: 8721 8721 244
Width: 477
Flags: W
HStem: -4 65<150 393.625> 494 65<153 415.868>
LayerCount: 2
Fore
SplineSet
397 559 m 1
 415 555 422 546 422 535 c 0
 422 518 406 499 387 494 c 1
 309 494 231 494 153 491 c 1
 191 434 229 376 270 321 c 1
 276 311 280 295 280 281 c 0
 280 274 279 267 277 263 c 0
 233 189 193 136 150 61 c 1
 231 61 300 66 380 66 c 1
 397 62 404 53 404 42 c 0
 404 26 388 6 369 1 c 1
 273 1 177 -4 80 -4 c 0
 60 -4 51 4 51 20 c 0
 51 24 52 30 54 36 c 1
 104 120 154 203 206 287 c 1
 154 357 111 431 60 501 c 1
 58 506 57 511 57 516 c 0
 57 536 74 552 96 556 c 1
 197 556 297 559 397 559 c 1
EndSplineSet
EndChar

StartChar: notequal
Encoding: 8800 8800 245
Width: 506
Flags: W
HStem: 170 57<94.1445 163 256 392.013> 307 54<98.3727 231 326 391.062>
VStem: 91 304<173.179 222.599 313.298 360.6>
LayerCount: 2
Fore
SplineSet
110 170 m 2
 96 170 91 180 91 191 c 0
 91 240 163 227 189 227 c 1
 201 254 217 281 231 307 c 1
 200 306 167 310 117 310 c 0
 103 310 97 319 97 330 c 0
 97 344 107 362 121 364 c 1
 184 363 223 361 263 361 c 1
 282 398 298 450 322 450 c 0
 335 450 347 439 347 421 c 0
 347 420 347 418 347 417 c 2
 326 361 l 1
 379 364 l 1
 390 362 395 354 395 345 c 0
 395 297 323 307 299 307 c 1
 286 280 270 253 256 227 c 1
 377 227 l 1
 390 226 395 217 395 206 c 0
 395 192 386 176 373 173 c 1
 306 173 269 173 227 171 c 1
 214 139 202 90 175 90 c 0
 161 90 148 100 148 118 c 0
 148 134 156 153 163 170 c 1
 110 170 l 2
EndSplineSet
EndChar

StartChar: lambda
Encoding: 955 955 246
Width: 487
Flags: W
HStem: -2 21G<88.5 103.5 358 372>
VStem: 65 68<0.803787 57.6599> 336 62<0.671875 66.6661>
LayerCount: 2
Fore
SplineSet
133 20 m 0
 124 5 110 -2 97 -2 c 0
 80 -2 65 9 65 27 c 0
 65 33 66 39 70 46 c 0
 111 129 147 210 204 301 c 1
 154 404 141 397 97 454 c 1
 91 460 88 468 88 476 c 0
 88 497 104 519 123 519 c 0
 150 519 240 385 270 327 c 0
 319 231 353 151 394 53 c 0
 397 46 398 40 398 34 c 0
 398 13 381 -2 363 -2 c 0
 353 -2 343 3 336 13 c 1
 299 104 287 147 244 233 c 1
 193 150 173 91 133 20 c 0
EndSplineSet
EndChar

StartChar: lozenge
Encoding: 9674 9674 247
Width: 376
Flags: W
HStem: -2 21G<176.5 198.5> 373 20G<170 200.5>
VStem: 41 298<179 185>
LayerCount: 2
Fore
SplineSet
44 196 m 1
 73 257 153 393 187 393 c 0
 214 393 313 240 337 201 c 1
 338 196 339 191 339 186 c 0
 339 179 337 172 334 166 c 0
 296 107 267 57 221 16 c 1
 212 5 203 -2 194 -2 c 0
 159 -2 83 108 44 166 c 1
 42 171 41 176 41 180 c 0
 41 185 42 189 44 196 c 1
193 60 m 1
 276 186 l 1
 256 217 224 281 187 326 c 1
 153 280 126 213 103 180 c 1
 131 140 167 103 193 60 c 1
EndSplineSet
EndChar

StartChar: lessequal
Encoding: 8804 8804 248
Width: 330
Flags: W
HStem: -96 65<24.9292 290.404> 365 20G<262.5 274>
VStem: 18 278
LayerCount: 2
Fore
SplineSet
46 -96 m 0
 26 -96 18 -86 18 -74 c 0
 18 -56 34 -35 56 -31 c 1
 134 -31 193 -33 271 -33 c 1
 289 -36 296 -46 296 -57 c 0
 296 -73 280 -92 261 -97 c 1
 183 -97 126 -96 46 -96 c 0
249 381 m 0
 255 384 260 385 265 385 c 0
 283 385 296 370 296 354 c 0
 296 347 294 340 289 334 c 1
 226 286 163 243 99 196 c 1
 164 147 229 111 291 61 c 1
 295 55 297 49 297 43 c 0
 297 26 280 12 262 12 c 0
 258 12 254 12 250 14 c 0
 179 71 104 114 34 171 c 0
 26 178 22 187 22 196 c 0
 22 205 27 215 36 221 c 1
 107 280 186 340 249 381 c 0
EndSplineSet
EndChar

StartChar: greaterequal
Encoding: 8805 8805 249
Width: 344
Flags: W
HStem: -81 61<43.3632 314.291> 365 20G<50 59.5>
VStem: 36 283
LayerCount: 2
Fore
SplineSet
69 -81 m 0
 47 -81 39 -70 39 -58 c 0
 39 -42 53 -23 74 -20 c 1
 153 -20 216 -19 294 -19 c 1
 312 -22 319 -32 319 -43 c 0
 319 -59 303 -78 284 -83 c 1
 206 -83 149 -81 69 -81 c 0
74 381 m 1
 143 323 224 280 296 221 c 0
 305 213 312 202 312 193 c 0
 312 186 309 180 303 174 c 0
 233 117 154 71 84 14 c 0
 80 12 75 12 71 12 c 0
 52 12 36 27 36 45 c 0
 36 51 37 57 41 63 c 1
 106 111 176 154 239 203 c 1
 176 249 109 290 46 337 c 1
 39 346 35 355 35 363 c 0
 35 376 43 385 57 385 c 0
 62 385 67 384 74 381 c 1
EndSplineSet
EndChar

StartChar: integral
Encoding: 8747 8747 250
Width: 467
Flags: W
HStem: -249 76<105.615 178.293> 539 61<256.25 319.9>
VStem: 183 61<-170.197 78.2129>
LayerCount: 2
Fore
SplineSet
394 530 m 0
 396 525 397 520 397 515 c 0
 397 495 382 476 365 476 c 0
 358 476 351 479 344 486 c 1
 326 517 301 539 282 539 c 0
 263 539 249 519 249 467 c 0
 249 234 244 -23 244 -187 c 0
 244 -230 193 -249 142 -249 c 0
 88 -249 43 -229 43 -194 c 0
 43 -167 62 -143 84 -143 c 0
 104 -143 126 -173 148 -173 c 0
 165 -173 179 -161 183 -139 c 1
 188 521 184 504 199 551 c 0
 209 584 241 600 278 600 c 0
 324 600 375 575 394 530 c 0
EndSplineSet
EndChar

StartChar: uni275B
Encoding: 10075 10075 251
Width: 264
Flags: W
HStem: 363 171<115.107 189.152>
VStem: 44 180<398.358 509.035>
LayerCount: 2
Fore
SplineSet
161 644 m 0
 164 644 166 644 168 644 c 0
 185 644 193 636 193 626 c 0
 193 592 119 608 113 527 c 1
 123 532 134 534 145 534 c 0
 185 534 224 503 224 459 c 0
 224 407 182 363 136 363 c 0
 77 363 44 408 44 471 c 0
 44 553 94 633 161 644 c 0
EndSplineSet
EndChar

StartChar: uni275D
Encoding: 10077 10077 252
Width: 477
Flags: W
HStem: 363 171<115.107 189.152 321.671 399.498>
VStem: 44 180<398.358 509.035> 253 180<397.943 509.636>
LayerCount: 2
Fore
SplineSet
161 644 m 0
 164 644 166 644 168 644 c 0
 185 644 193 636 193 626 c 0
 193 592 119 608 113 527 c 1
 123 532 134 534 145 534 c 0
 185 534 224 503 224 459 c 0
 224 407 182 363 136 363 c 0
 77 363 44 408 44 471 c 0
 44 553 94 633 161 644 c 0
370 644 m 0
 372 644 375 644 377 644 c 0
 393 644 402 636 402 626 c 0
 402 592 329 608 321 527 c 1
 331 532 342 534 353 534 c 0
 394 534 433 503 433 459 c 0
 433 406 391 363 345 363 c 0
 286 363 253 408 253 472 c 0
 253 553 303 633 370 644 c 0
EndSplineSet
EndChar

StartChar: uni275E
Encoding: 10078 10078 253
Width: 471
Flags: W
HStem: 460 172<76.5092 152.329 284.809 358.893>
VStem: 41 180<484.965 595.455> 249 181<484.706 594.494>
LayerCount: 2
Fore
SplineSet
313 350 m 0
 311 350 309 350 307 350 c 0
 290 350 281 358 281 368 c 0
 281 401 355 388 361 467 c 1
 351 462 340 460 329 460 c 0
 289 460 249 491 249 534 c 0
 249 587 293 632 338 632 c 0
 397 632 430 584 430 522 c 0
 430 440 380 361 313 350 c 0
104 350 m 0
 102 350 100 350 98 350 c 0
 81 350 72 358 72 368 c 0
 72 401 147 388 153 467 c 1
 143 462 132 460 121 460 c 0
 81 460 41 490 41 534 c 0
 41 586 83 632 129 632 c 0
 188 632 221 586 221 523 c 0
 221 441 171 361 104 350 c 0
EndSplineSet
EndChar

StartChar: uni275C
Encoding: 10076 10076 254
Width: 261
Flags: W
HStem: 460 172<76.5092 152.329>
VStem: 41 180<484.965 595.455>
LayerCount: 2
Fore
SplineSet
104 350 m 0
 102 350 100 350 98 350 c 0
 81 350 72 358 72 368 c 0
 72 401 147 388 153 467 c 1
 143 462 132 460 121 460 c 0
 81 460 41 490 41 534 c 0
 41 586 83 632 129 632 c 0
 188 632 221 586 221 523 c 0
 221 441 171 361 104 350 c 0
EndSplineSet
EndChar

StartChar: uni2766
Encoding: 10086 10086 255
Width: 423
Flags: W
HStem: -4 24<208.651 285.569> 370 20G<376 393.5> 371 25<207 249.641>
VStem: 79 122<37.5 181.5> 86 35<316.42 351.483>
LayerCount: 2
Fore
SplineSet
121 329 m 0xc8
 118 322 108 316 100 316 c 0
 92 316 86 321 86 333 c 0
 86 376 136 396 191 396 c 0xa8
 245 396 301 375 303 337 c 0
 303 326 311 319 321 319 c 0
 347 319 363 390 389 390 c 0
 398 390 409 382 409 377 c 0
 409 368 387 360 381 341 c 0
 359 267 281 319 281 246 c 1
 283 246 286 246 288 246 c 0
 333 246 378 217 378 175 c 0
 378 168 376 161 374 153 c 0
 357 99 201 107 201 47 c 0
 201 28 221 20 241 20 c 0
 280 20 305 47 321 47 c 0
 327 47 330 44 330 39 c 0
 330 9 293 -4 253 -4 c 0
 160 -4 79 53 79 153 c 0xd0
 79 210 120 271 161 271 c 0
 193 271 224 249 249 249 c 0
 255 249 258 265 258 271 c 0
 258 310 204 359 162 359 c 0
 145 359 129 351 121 329 c 0xc8
277 311 m 1
 277 346 245 371 212 371 c 0
 210 371 209 371 207 371 c 1
 219 360 264 321 277 311 c 1
EndSplineSet
EndChar

